<svg width="14" height="14" viewBox="0 0 14 14" fill="none" xmlns="http://www.w3.org/2000/svg">
<path d="M8.72671 4.33333L7.00004 6.05999L5.27337 4.33333L4.33337 5.27333L6.06004 6.99999L4.33337 8.72666L5.27337 9.66666L7.00004 7.93999L8.72671 9.66666L9.66671 8.72666L7.94004 6.99999L9.66671 5.27333L8.72671 4.33333ZM7.00004 0.333328C3.31337 0.333328 0.333374 3.31333 0.333374 6.99999C0.333374 10.6867 3.31337 13.6667 7.00004 13.6667C10.6867 13.6667 13.6667 10.6867 13.6667 6.99999C13.6667 3.31333 10.6867 0.333328 7.00004 0.333328ZM7.00004 12.3333C4.06004 12.3333 1.66671 9.93999 1.66671 6.99999C1.66671 4.05999 4.06004 1.66666 7.00004 1.66666C9.94004 1.66666 12.3334 4.05999 12.3334 6.99999C12.3334 9.93999 9.94004 12.3333 7.00004 12.3333Z" fill="currentColor"/>
</svg>
