<?xml version="1.0" encoding="UTF-8"?>
<svg width="33px" height="33px" viewBox="0 0 33 33" version="1.1" xmlns="http://www.w3.org/2000/svg" xmlns:xlink="http://www.w3.org/1999/xlink">
    <title>8036BFBC-3D18-44E2-BDF7-15AC773AB71A</title>
    <g id="센트릭스_이관" stroke="none" stroke-width="1" fill="none" fill-rule="evenodd">
        <g id="CTI_센트릭스_상담_element" transform="translate(-755.000000, -1501.000000)">
            <g id="btn_memo_pre" transform="translate(755.000000, 1501.000000)">
                <path d="M19.4638139,3.78 L25.2134172,9.13209985 L25.38,27.165 C25.38,27.6126062 25.1884869,28.0182616 24.8837506,28.31284 C24.5722571,28.6139504 24.1423814,28.8 23.67,28.8 L23.67,28.8 L7.47,28.8 C6.99761861,28.8 6.56774294,28.6139504 6.25624943,28.31284 C5.95151314,28.0182616 5.76,27.6126062 5.76,27.165 L5.76,27.165 L5.76,5.415 C5.76,4.96739381 5.95151314,4.56173839 6.25624943,4.26715997 C6.56774294,3.96604958 6.99761861,3.78 7.47,3.78 L7.47,3.78 L19.4638139,3.78 Z" id="Path" stroke="#0060FF" stroke-width="1.08" fill-rule="nonzero"></path>
                <rect id="Rectangle" fill="#0060FF" x="13.14" y="19.44" width="6.48" height="1.08" rx="0.54"></rect>
                <rect id="Rectangle-Copy-25" fill="#0060FF" x="13.14" y="21.6" width="9.72" height="1.08" rx="0.54"></rect>
                <rect id="Rectangle" stroke="#0060FF" stroke-width="1.08" x="9.36" y="19.98" width="2.16" height="2.16" rx="0.54"></rect>
                <path d="M19.4793662,4.15020376 L19.4793662,8.53423671 C19.4793662,9.13070424 19.9628987,9.61423671 20.5593662,9.61423671 L24.9286158,9.61423671 L24.9286158,9.61423671" id="Path-7" stroke="#0060FF" stroke-width="1.08"></path>
                <rect id="Rectangle" fill="#0060FF" x="13.14" y="14.04" width="6.48" height="1.08" rx="0.54"></rect>
                <rect id="Rectangle-Copy-25" fill="#0060FF" x="13.14" y="16.2" width="9.72" height="1.08" rx="0.54"></rect>
                <rect id="Rectangle" stroke="#0060FF" stroke-width="1.08" x="9.36" y="14.58" width="2.16" height="2.16" rx="0.54"></rect>
            </g>
        </g>
    </g>
</svg>