<?xml version="1.0" encoding="UTF-8"?>
<svg width="33px" height="33px" viewBox="0 0 33 33" version="1.1" xmlns="http://www.w3.org/2000/svg" xmlns:xlink="http://www.w3.org/1999/xlink">
    <title>ED79196E-4840-4FF6-892A-A1E56FD7A6DA</title>
    <g id="센트릭스_이관" stroke="none" stroke-width="1" fill="none" fill-rule="evenodd">
        <g id="CTI_센트릭스_상담_element" transform="translate(-504.000000, -1501.000000)">
            <g id="btn_calllist_pre" transform="translate(504.000000, 1501.000000)">
                <path d="M9.36702679,25.6124439 C9.36702679,25.6124439 12.4955876,28.340756 15.98688,28.8409465 C15.98688,28.8409465 18.4353189,29.3866089 20.1129529,27.3858468 C20.1129529,27.3858468 21.2691602,26.5446172 20.2036358,25.2031971 L17.5738311,22.6113007 C17.5738311,22.6113007 16.9390507,21.8837508 15.9188678,22.5203569 L14.3545874,24.0664004 C14.3545874,24.0664004 10.0471487,21.8382789 8.32417319,17.9504342 L9.5257219,16.7454297 C9.5257219,16.7454297 10.7272706,15.6768409 9.54839263,14.4718364 L6.91858792,11.8799399 C6.91858792,11.8799399 5.98908798,11.2205978 5.05958804,12.0390914 C5.05958804,12.0390914 2.79251502,13.9489099 3.51797838,17.1546766 C3.51797838,17.1546766 3.58599057,20.5195948 9.36702679,25.6124439 Z" id="Path-Copy-6" stroke="#0060FF" stroke-width="1.08" fill-rule="nonzero" transform="translate(12.014783, 20.268918) rotate(2.000000) translate(-12.014783, -20.268918) "></path>
                <rect id="Rectangle" fill="#0060FF" x="18.54" y="7.2" width="9.9" height="1.08"></rect>
                <rect id="Rectangle-Copy-23" fill="#0060FF" x="18.54" y="10.44" width="9.9" height="1.08"></rect>
                <rect id="Rectangle-Copy-24" fill="#0060FF" x="18.54" y="13.68" width="9.9" height="1.08"></rect>
                <path d="M16.38,10.98 L16.38,10.98 C16.38,10.6817662 16.1382338,10.44 15.84,10.44 L15.84,10.44 C15.5417662,10.44 15.3,10.6817662 15.3,10.98 L15.3,10.98 C15.3,11.2782338 15.5417662,11.52 15.84,11.52 L15.84,11.52 C16.1382338,11.52 16.38,11.2782338 16.38,10.98 L16.38,10.98 Z" id="Path" fill="#0060FF" fill-rule="nonzero"></path>
                <path d="M16.3798711,7.73416846 L16.3798711,7.73416846 C16.3798711,7.43915537 16.1381626,7.2 15.84,7.2 L15.84,7.2 C15.5418374,7.2 15.3001289,7.43915537 15.3001289,7.73416846 L15.3001289,7.73416846 C15.2969575,7.87784859 15.3524335,8.01673205 15.4540247,8.11944491 C15.555616,8.22215776 15.6947513,8.28003425 15.84,8.28 L15.84,8.28 C15.9852487,8.28003425 16.124384,8.22215776 16.2259753,8.11944491 C16.3275665,8.01673205 16.3830425,7.87784859 16.3798711,7.73416846 L16.3798711,7.73416846 Z" id="Path" fill="#0060FF" fill-rule="nonzero"></path>
                <path d="M16.38,14.2188235 L16.38,14.2188235 C16.38,13.9212395 16.1382349,13.68 15.8400026,13.68 L15.8400026,13.68 C15.6963769,13.68 15.5586678,13.7370903 15.4573306,13.8386487 C15.3559934,13.9402072 15.299378,14.0778643 15.3,14.2211765 L15.3,14.2211765 C15.3,14.5187605 15.5417702,14.76 15.8400026,14.76 L15.8400026,14.76 C16.1382349,14.76 16.38,14.5187605 16.38,14.2211765 L16.38,14.2188235 Z" id="Path" fill="#0060FF" fill-rule="nonzero"></path>
            </g>
        </g>
    </g>
</svg>