<svg xmlns="http://www.w3.org/2000/svg" width="16" height="16" viewBox="0 0 16 16">
    <g fill="none" fill-rule="evenodd">
        <g fill="#282828">
            <g>
                <g>
                    <g>
                        <path d="M7.235 8.002L.152 15.133c-.196.2-.196.52 0 .718.098.1.227.149.357.149.128 0 .257-.05.355-.149l7.135-7.185 7.137 7.185c.097.1.227.149.355.149.13 0 .258-.05.357-.149.196-.198.196-.518 0-.718l-7.082-7.13L15.853.864c.196-.198.196-.519 0-.717-.197-.197-.516-.197-.712 0L8 7.338.859.149C.662-.049.344-.049.147.148c-.196.198-.196.52 0 .717l7.088 7.137z" transform="translate(-3409 -244) translate(2775 216) translate(36 28) translate(598)"/>
                    </g>
                </g>
            </g>
        </g>
    </g>
</svg>
