<?xml version="1.0" encoding="UTF-8"?>
<svg width="36px" height="36px" viewBox="0 0 36 36" version="1.1" xmlns="http://www.w3.org/2000/svg" xmlns:xlink="http://www.w3.org/1999/xlink">
    <title>AD6B5F7A-EAD0-4AFE-BC6F-32C07A73BED3</title>
    <g id="센트릭스_이관" stroke="none" stroke-width="1" fill="none" fill-rule="evenodd">
        <g id="CTI_센트릭스_sidebar_element" transform="translate(-644.000000, -1409.000000)" fill="#0060FF" fill-rule="nonzero">
            <g id="BTN" transform="translate(139.500000, 1313.000000)">
                <g id="brn/cti/recent/setting" transform="translate(522.500000, 114.000000) rotate(-360.000000) translate(-522.500000, -114.000000) translate(504.500000, 96.000000)">
                    <path d="M9.37244673,19.8651956 L11.5100162,20.2214566 C11.602364,20.4946062 11.7119994,20.7616027 11.8382578,21.0208277 L10.5802895,22.7817731 C10.4537795,22.9590464 10.4739473,23.2017935 10.627977,23.3557592 L12.6440661,25.372023 C12.7980759,25.5259993 13.0408208,25.546093 13.2180523,25.4195358 L14.9789976,24.1617422 C15.2383301,24.2879416 15.5053759,24.3976322 15.7785398,24.4901584 L16.134619,26.6277279 C16.1705046,26.8425788 16.3564302,27 16.5742574,27 L19.4257426,27 C19.6435657,27 19.8294854,26.8425749 19.8653703,26.6277279 L20.2214495,24.4901584 C20.4946134,24.3976322 20.7616593,24.2879416 21.0209917,24.1617422 L22.7819406,25.4195358 C22.9591311,25.5462416 23.2019818,25.5261392 23.3559267,25.372023 L25.3720158,23.3557592 C25.5260456,23.2017935 25.5462134,22.9590464 25.4197034,22.7817731 L24.161735,21.0208277 C24.2879935,20.7616027 24.3976289,20.4946062 24.4899766,20.2214566 L26.6275461,19.8651956 C26.8424468,19.8294829 27,19.6435904 27,19.4257426 L27,16.5742574 C27,16.3564119 26.8424511,16.1705202 26.6275533,16.1348044 L24.4899802,15.7785434 C24.3976325,15.5053938 24.2879971,15.2383973 24.1617386,14.9791723 L25.4197069,13.2182269 C25.5462169,13.0409536 25.5260492,12.7982065 25.3720194,12.6442408 L23.3559303,10.627977 C23.2020305,10.4737636 22.9591062,10.453655 22.7819442,10.5804642 L21.0209988,11.8382578 C20.7616664,11.7120584 20.4946205,11.6023678 20.2214566,11.5098416 L19.8653774,9.37227208 C19.8294921,9.15742249 19.6435684,9 19.4257426,9 L16.5742574,9 C16.3564343,9 16.1705146,9.15742515 16.1346297,9.37227208 L15.7785505,11.5098416 C15.5053866,11.6023678 15.2383407,11.7120584 14.9790083,11.8382578 L13.2180594,10.5804642 C13.0407912,10.4540402 12.7981411,10.474126 12.6440733,10.627977 L10.6279842,12.6442408 C10.4739544,12.7982065 10.4537866,13.0409536 10.5802966,13.2182269 L11.838265,14.9791723 C11.7120065,15.2383973 11.6023711,15.5053938 11.5100234,15.7785434 L9.37245386,16.1348044 C9.15755324,16.1705171 9,16.3564096 9,16.5742574 L9,19.4257426 C9,19.6435881 9.15754894,19.8294798 9.37244673,19.8651956 Z M9.89108911,16.9517513 L11.9249287,16.6127204 C12.0930176,16.5847245 12.2304264,16.4633261 12.2789263,16.2999695 C12.3957401,15.9026538 12.5536969,15.5186128 12.7502305,15.1540859 C12.8315436,15.0042711 12.8203307,14.8212072 12.7213414,14.682436 L11.5249901,13.007463 L13.0071208,11.524983 L14.6824396,12.7213414 C14.8211488,12.8205056 15.0043148,12.8317247 15.1540895,12.7502305 C15.5185676,12.5535941 15.9026196,12.3956327 16.2999731,12.2789263 C16.4633146,12.2304559 16.5847563,12.093141 16.6128986,11.9250998 L16.9515766,9.89108911 L19.0484198,9.89108911 L19.387105,11.9251034 C19.4152472,12.0931446 19.536689,12.2304594 19.7000305,12.2789299 C20.097384,12.3956363 20.481436,12.5535976 20.8459141,12.7502341 C20.9957084,12.8316398 21.1788245,12.8204237 21.317564,12.721345 L22.9928828,11.5249865 L24.4750135,13.0074665 L23.278655,14.682436 C23.1796657,14.8212072 23.1684528,15.0042711 23.2497659,15.1540859 C23.4462995,15.5186128 23.6042563,15.9026538 23.7210701,16.2999695 C23.7695701,16.4633261 23.9069789,16.5847245 24.0750677,16.6127204 L26.1089073,16.9517513 L26.1089073,19.0482487 L24.0750677,19.3872796 C23.9069789,19.4152755 23.7695701,19.5366739 23.7210701,19.7000305 C23.6042563,20.0973462 23.4462995,20.4813872 23.2497659,20.8459141 C23.1684528,20.9957289 23.1796657,21.1787928 23.278655,21.317564 L24.4750099,22.992537 L22.9928828,24.4750099 L21.317564,23.2786515 C21.1789684,23.1791675 20.995615,23.1679369 20.8459141,23.2497624 C20.481436,23.4463988 20.097384,23.6043602 19.7000305,23.7210665 C19.536689,23.769537 19.4152472,23.9068519 19.387105,24.0748931 L19.0484234,26.1089109 L16.9515766,26.1089109 L16.6128915,24.0748966 C16.5847492,23.9068554 16.4633074,23.7695406 16.2999659,23.7210701 C15.9026125,23.6043637 15.5185605,23.4464024 15.1540824,23.2497659 C15.0042857,23.1683706 14.8211755,23.1795863 14.6824325,23.278655 L13.0071172,24.4750099 L11.5249901,22.992537 L12.7213485,21.3175675 C12.8203378,21.1787964 12.8315507,20.9957325 12.7502376,20.8459176 C12.553704,20.4813908 12.3957472,20.0973498 12.2789335,19.7000341 C12.2304335,19.5366774 12.0930247,19.4152791 11.9249358,19.3872832 L9.89108911,19.0482487 L9.89108911,16.9517513 Z" id="Shape" transform="translate(18.000000, 18.000000) rotate(-270.000000) translate(-18.000000, -18.000000) "></path>
                    <path d="M18,21.24 C19.7894026,21.24 21.24,19.7894026 21.24,18 C21.24,16.2105974 19.7894026,14.76 18,14.76 C16.2105974,14.76 14.76,16.2105974 14.76,18 C14.7619921,19.7885768 16.2114232,21.2380079 18,21.24 Z M18,15.6356757 C19.3057803,15.6356757 20.3643243,16.6942197 20.3643243,18 C20.3643243,19.3057803 19.3057803,20.3643243 18,20.3643243 C16.6942197,20.3643243 15.6356757,19.3057803 15.6356757,18 C15.6371601,16.6948351 16.6948351,15.6371601 18,15.6356757 L18,15.6356757 Z" id="Shape" transform="translate(18.000000, 18.000000) rotate(-270.000000) translate(-18.000000, -18.000000) "></path>
                </g>
            </g>
        </g>
    </g>
</svg>