<svg xmlns="http://www.w3.org/2000/svg" xmlns:xlink="http://www.w3.org/1999/xlink" width="29" height="29" viewBox="0 0 29 29">
    <defs>
        <filter id="y0fqopn4za">
            <feColorMatrix in="SourceGraphic" values="0 0 0 0 1.000000 0 0 0 0 1.000000 0 0 0 0 1.000000 0 0 0 1.000000 0"/>
        </filter>
        <filter id="14o1j7kulb">
            <feColorMatrix in="SourceGraphic" values="0 0 0 0 0.000000 0 0 0 0 0.000000 0 0 0 0 0.000000 0 0 0 1.000000 0"/>
        </filter>
        <filter id="krs7ris7hg">
            <feColorMatrix in="SourceGraphic" values="0 0 0 0 0.000000 0 0 0 0 0.000000 0 0 0 0 0.000000 0 0 0 1.000000 0"/>
        </filter>
        <path id="fh9chb45gc" d="M0 0.134L11.804 0.134 11.804 4.752 0 4.752z"/>
        <path id="utihr7n9pe" d="M0.015 0.134L7.648 0.134 7.648 8.047 0.015 8.047z"/>
    </defs>
    <g fill="none" fill-rule="evenodd">
        <g>
            <g>
                <g>
                    <g>
                        <g transform="translate(-1214 -688) translate(1044 232) translate(6 219) translate(0 210) translate(164 27)">
                            <rect width="29" height="29" fill="#FFF" opacity=".105" rx="14.5"/>
                            <g filter="url(#14o1j7kulb)" opacity=".399">
                                <g>
                                    <g transform="translate(9 10) translate(0 8.316)">
                                        <mask id="1737vdct5d" fill="#fff">
                                            <use xlink:href="#fh9chb45gc"/>
                                        </mask>
                                        <path fill="#000" d="M11.033 1.678C10.395 1.248 9.474.891 8.45.58c-.059-.015-.118.015-.133.074l-.98 2.807c-.03.104-.164.104-.208.015l-.787-1.41c-.03-.06-.015-.12.03-.164.98-.92.564-1.678-.446-1.767h-.03C4.9.208 4.485.98 5.45 1.9c.044.044.044.104.03.163l-.788 1.411c-.044.089-.178.074-.208-.015L3.504.653C3.49.593 3.415.564 3.371.58c-1.025.312-1.93.668-2.584 1.1-.639.415-.876 1.35-.758 2.286v.03c.12.415.312.683.58.742.014 0 .014.015.03.015h10.498c.015 0 .015-.015.03-.015.282-.06.46-.327.594-.728v-.03c.148-.95-.09-1.885-.728-2.3" mask="url(#1737vdct5d)"/>
                                    </g>
                                    <g transform="translate(9 10) translate(2.079)">
                                        <mask id="r7kvhsqstf" fill="#fff">
                                            <use xlink:href="#utihr7n9pe"/>
                                        </mask>
                                        <path fill="#000" d="M1.336 4.054c0-.03.03-.06.075-.074.698-.104 1.188-.55 1.47-1.307.015-.06.104-.074.133-.015.728.995 1.5 1.41 3.356 1.337.045 0 .075.03.09.074.074.653-.09 1.485-.46 2.183-.075.133-.15.267-.238.386H4.618V6.37c0-.164-.133-.312-.312-.312h-.4c-.164 0-.312.133-.312.312v.445c0 .104.074.178.178.178H5.45c-.297.312-.654.55-1.084.698-.178.06-.372.09-.565.06-.638-.075-1.217-.431-1.663-.966-.534-.653-.876-1.618-.802-2.732m4.782 2.584c.09-.134.178-.267.267-.416.104-.178.193-.371.282-.564 0 0 .015 0 .015.015v.386c-.015.312-.252.564-.564.579M.49 5.673h.475c.03 0 .045-.015.06-.03.118.282.267.535.43.787l.015.015c.045.074.119.163.193.267.015.015.03.045.045.06v.014c.014.015.03.03.044.06l.015.015c.282.341.698.727 1.218.965.742.341 1.455.312 2.272-.267.193-.134.386-.327.564-.55h.208c.535 0 .98-.43.98-.98v-.356h.149c.267 0 .49-.223.49-.49v-.936c0-.267-.223-.49-.49-.49h-.03C7.276 1.886 5.836.223 3.95.148c-.015 0-.03-.014-.03-.014-.876 0-1.589.267-2.183.742C.876 1.574.445 2.673.55 3.772H.505c-.268 0-.49.223-.49.49v.935c0 .253.208.476.475.476" mask="url(#r7kvhsqstf)"/>
                                    </g>
                                    <path fill="#FFF" d="M3.37 8.895c1.608-.61 3.301-.61 5.08 0 1.778.61 1.187 1.856-1.772 3.737H3.906l-.535-3.737z" opacity=".3" transform="translate(9 10)"/>
                                    <path fill="#000" d="M3.415 4.054c0-.03.03-.06.075-.074.698-.104 1.188-.55 1.47-1.307.015-.06.104-.074.133-.015.728.995 1.5 1.41 3.356 1.337.045 0 .075.03.09.074.074.653-.09 1.485-.46 2.183-.075.133-.15.267-.238.386H6.697V6.37c0-.164-.133-.312-.312-.312h-.4c-.164 0-.312.133-.312.312v.445c0 .104.074.178.178.178h1.678c-.297.312-.654.55-1.084.698-.178.06-.372.09-.565.06-.638-.075-1.217-.431-1.663-.966-.534-.653-.876-1.618-.802-2.732" opacity=".3" transform="translate(9 10)"/>
                                </g>
                            </g>
                            <g filter="url(#krs7ris7hg)" opacity=".399">
                                <g fill="#FFF" transform="translate(11 5)">
                                    <circle cx="1" cy="1" r="1"/>
                                    <circle cx="4" cy="1" r="1"/>
                                    <circle cx="7" cy="1" r="1"/>
                                </g>
                            </g>
                        </g>
                    </g>
                </g>
            </g>
        </g>
    </g>
</svg>
