<svg xmlns="http://www.w3.org/2000/svg" xmlns:xlink="http://www.w3.org/1999/xlink" width="36" height="36" viewBox="0 0 36 36">
    <defs>
        <filter id="lp8ecnffha" width="202.8%" height="202.8%" x="-51.4%" y="-62.5%" filterUnits="objectBoundingBox">
            <feOffset dy="-4" in="SourceAlpha" result="shadowOffsetOuter1"/>
            <feGaussianBlur in="shadowOffsetOuter1" result="shadowBlurOuter1" stdDeviation="5.5"/>
            <feComposite in="shadowBlurOuter1" in2="SourceAlpha" operator="out" result="shadowBlurOuter1"/>
            <feColorMatrix in="shadowBlurOuter1" values="0 0 0 0 0.152941176 0 0 0 0 0.192156863 0 0 0 0 0.266666667 0 0 0 0.105113636 0"/>
        </filter>
        <path id="x2xhmfo6ab" d="M5 0h26c2.761 0 5 2.239 5 5v31H0V5c0-2.761 2.239-5 5-5z"/>
    </defs>
    <g fill="none" fill-rule="evenodd">
        <g>
            <g>
                <g transform="translate(-250 -232) translate(250 232) rotate(-90 18 18)">
                    <use fill="#000" filter="url(#lp8ecnffha)" xlink:href="#x2xhmfo6ab"/>
                    <path fill="#FFF" stroke="#0060FF" stroke-linejoin="square" d="M31 .5c1.243 0 2.368.504 3.182 1.318.814.814 1.318 1.94 1.318 3.182h0v30.5H.5V5c0-1.243.504-2.368 1.318-3.182C2.632 1.004 3.758.5 5 .5h0z"/>
                </g>
                <path stroke="#0060FF" stroke-linecap="round" stroke-linejoin="round" stroke-width="1.6" d="M13.5 13.5L19.5 19.394 13.5 24.75" transform="translate(-250 -232) translate(250 232) matrix(-1 0 0 1 33 0)"/>
                <path fill="#FFF" d="M35 1H36V35H35z" transform="translate(-250 -232) translate(250 232)"/>
            </g>
        </g>
    </g>
</svg>
