<?xml version="1.0" encoding="UTF-8"?>
<svg width="33px" height="33px" viewBox="0 0 33 33" version="1.1" xmlns="http://www.w3.org/2000/svg" xmlns:xlink="http://www.w3.org/1999/xlink">
    <title>6FC9B2BE-B2FD-4B93-9F20-EF79BB27CA51</title>
    <g id="센트릭스_이관" stroke="none" stroke-width="1" fill="none" fill-rule="evenodd">
        <g id="CTI_센트릭스_상담_element" transform="translate(-671.000000, -1501.000000)" fill="#0060FF" fill-rule="nonzero">
            <g id="btn_cal_pre" transform="translate(671.000000, 1501.000000)">
                <circle id="Oval" cx="18.9" cy="13.5" r="1"></circle>
                <circle id="Oval" cx="18.9" cy="16.74" r="1"></circle>
                <circle id="Oval" cx="18.9" cy="19.98" r="1"></circle>
                <circle id="Oval" cx="22.14" cy="13.5" r="1"></circle>
                <circle id="Oval" cx="22.14" cy="16.74" r="1"></circle>
                <circle id="Oval" cx="22.14" cy="19.98" r="1"></circle>
                <circle id="Oval" cx="15.66" cy="16.74" r="1"></circle>
                <circle id="Oval" cx="15.66" cy="13.5" r="1"></circle>
                <circle id="Oval" cx="15.66" cy="19.98" r="1"></circle>
                <circle id="Oval" cx="15.66" cy="23.22" r="1"></circle>
                <circle id="Oval" cx="12.42" cy="16.74" r="1"></circle>
                <circle id="Oval" cx="12.42" cy="19.98" r="1"></circle>
                <circle id="Oval" cx="12.42" cy="23.22" r="1"></circle>
                <circle id="Oval" cx="9.18" cy="16.74" r="1"></circle>
                <circle id="Oval" cx="9.18" cy="19.98" r="1"></circle>
                <circle id="Oval" cx="9.18" cy="23.22" r="1"></circle>
                <path d="M27,5.4744 L19.9488,5.4744 L19.9488,4.944 C19.9488,4.6008 19.668,4.32 19.3248,4.32 C18.9816,4.32 18.7008,4.6008 18.7008,4.944 L18.7008,5.4744 L12.3672,5.4744 L12.3672,4.944 C12.3672,4.6008 12.0864,4.32 11.7432,4.32 C11.4,4.32 11.1192,4.6008 11.1192,4.944 L11.1192,5.4744 L4.4136,5.4744 L4.4136,8.8128 L4.4136,9.7488 L4.33107663,25.9233797 C4.32499031,27.1162993 5.28710872,28.0882856 6.48002826,28.0943719 C6.48370165,28.0943906 6.48737508,28.0944 6.49104852,28.0944 L25.92,28.0944 C26.5164675,28.0944 27,27.6108675 27,27.0144 L27,5.4744 L27,5.4744 Z M5.3496,6.4104 L11.1817778,6.4104 L11.1817778,6.9408 C11.1817778,7.284 11.4640967,7.5648 11.8091532,7.5648 C12.1542096,7.5648 12.4365285,7.284 12.4365285,6.9408 L12.4365285,6.4104 L18.8357571,6.4104 L18.8357571,6.9408 C18.8357571,7.284 19.118076,7.5648 19.4631325,7.5648 C19.8081889,7.5648 20.0905078,7.284 20.0905078,6.9408 L20.0905078,6.4104 L25.8696,6.4104 L25.8696,8.8128 L5.3496,8.8128 L5.3496,6.4104 Z M5.3496,25.9290771 L5.3496,9.7488 L5.3496,9.7488 L25.9204484,9.7488 L25.9204484,25.9290771 C25.9204484,26.5255446 25.436916,27.0090771 24.8404484,27.0090771 L6.4296,27.0090771 C5.83313247,27.0090771 5.3496,26.5255446 5.3496,25.9290771 Z" id="Shape"></path>
            </g>
        </g>
    </g>
</svg>