<?xml version="1.0" encoding="UTF-8"?>
<svg width="36px" height="36px" viewBox="0 0 36 36" version="1.1" xmlns="http://www.w3.org/2000/svg" xmlns:xlink="http://www.w3.org/1999/xlink">
    <title>1F9CFC5A-8C47-41E9-BDA2-82658C815A48</title>
    <g id="센트릭스_이관" stroke="none" stroke-width="1" fill="none" fill-rule="evenodd">
        <g id="CTI_센트릭스_sidebar_element" transform="translate(-547.000000, -1406.000000)">
            <g id="BTN" transform="translate(139.500000, 1313.000000)">
                <g id="btn/recent/recall" transform="translate(407.500000, 93.000000)">
                    <polyline id="Stroke-1" stroke="#F7685B" stroke-linecap="round" stroke-linejoin="round" points="22.8700967 25.6421355 26.1858862 25.6421355 25.8083596 28.9579249"></polyline>
                    <path d="M28.5994097,21.3710769 C28.8583357,20.4580334 29,19.495753 29,18.5 C29,12.701051 24.299165,8 18.5,8 C12.701051,8 8,12.701051 8,18.5 C8,24.299165 12.701051,29 18.5,29 C21.2564066,29 23.763173,27.9364382 25.6365534,26.1993234" id="Stroke-3" stroke="#F7685B" stroke-width="1.2" stroke-linecap="round"></path>
                    <path d="M16.5925222,21.7868918 C16.5925222,21.7868918 18.1933939,23.1829579 19.979874,23.4389033 C19.979874,23.4389033 21.2327301,23.7181165 22.0911686,22.6943347 C22.0911686,22.6943347 22.6827951,22.263881 22.1375707,21.5774818 L20.7919104,20.251219 C20.7919104,20.251219 20.4670958,19.8789347 19.9450724,20.2046835 L19.1446365,20.9957876 C19.1446365,20.9957876 16.9405378,19.855667 16.0588982,17.8662728 L16.6737258,17.2496769 C16.6737258,17.2496769 17.2885534,16.7028843 16.6853263,16.0862885 L15.339666,14.7600257 C15.339666,14.7600257 14.8640447,14.422643 14.3884234,14.8414629 C14.3884234,14.8414629 13.2283714,15.8187091 13.599588,17.4590868 C13.599588,17.4590868 13.6343896,19.1809017 16.5925222,21.7868918 Z" id="Path-Copy-5" fill="#F7685B" fill-rule="nonzero"></path>
                </g>
            </g>
        </g>
    </g>
</svg>