<?xml version="1.0" encoding="UTF-8"?>
<svg width="28px" height="29px" viewBox="0 0 28 29" version="1.1" xmlns="http://www.w3.org/2000/svg" xmlns:xlink="http://www.w3.org/1999/xlink">
    <title>3BF1E411-92C4-4746-A1FA-C27C6FB2F196</title>
    <defs>
        <filter id="filter-1">
            <feColorMatrix in="SourceGraphic" type="matrix" values="0 0 0 0 0.611765 0 0 0 0 0.698039 0 0 0 0 0.803922 0 0 0 1.000000 0"></feColorMatrix>
        </filter>
    </defs>
    <g id="센트릭스_이관" stroke="none" stroke-width="1" fill="none" fill-rule="evenodd">
        <g id="CTI_센트릭스_상담_element" transform="translate(-1521.000000, -661.000000)">
            <g id="etc_신규팝업" transform="translate(1250.000000, 232.000000)">
                <g id="etc_통화팝업/신규양식" transform="translate(20.000000, 120.000000)">
                    <g id="dropdown/cti/popup" transform="translate(145.000000, 308.000000)">
                        <g id="Group" transform="translate(106.000000, 1.500000)" filter="url(#filter-1)">
                            <g transform="translate(5.000000, 6.000000)">
                                <path d="M7.36666667,0.794444444 C4.38222222,0.794444444 1.94555556,3.23111111 1.94555556,6.21555556 C1.94555556,9.2 4.38222222,11.6366667 7.36666667,11.6366667 C10.3511111,11.6366667 12.7877778,9.2 12.7877778,6.21555556 C12.7877778,3.23111111 10.3511111,0.794444444 7.36666667,0.794444444 Z" id="Path"></path>
                                <path d="M11.7655556,11.3666667 C12.5822222,10.2833333 13.0822222,8.93333333 13.0822222,7.46666667 C13.0822222,3.9 10.1655556,1 6.59888889,1 C3.03222222,1 0.132222222,3.9 0.132222222,7.46666667 C0.132222222,11.0333333 3.03222222,13.9333333 6.59888889,13.9333333 C7.93222222,13.9333333 9.18222222,13.5166667 10.2155556,12.8166667 C10.2322222,12.8333333 10.2322222,12.8333333 10.2488889,12.85 L13.0822222,15.6833333 C13.2822222,15.8833333 13.5655556,16 13.8322222,16 C14.0988889,16 14.3822222,15.9 14.5822222,15.6833333 C14.9988889,15.2666667 14.9988889,14.6 14.5822222,14.1833333 L11.7655556,11.3666667 Z M6.59888889,11.8166667 C4.19888889,11.8166667 2.24888889,9.86666667 2.24888889,7.46666667 C2.24888889,5.06666667 4.19888889,3.11666667 6.59888889,3.11666667 C8.99888889,3.11666667 10.9488889,5.06666667 10.9488889,7.46666667 C10.9488889,9.86666667 8.99888889,11.8166667 6.59888889,11.8166667 Z" id="Shape" fill="#000000" fill-rule="nonzero"></path>
                            </g>
                        </g>
                    </g>
                </g>
            </g>
        </g>
    </g>
</svg>