<?xml version="1.0" encoding="UTF-8"?>
<svg width="36px" height="36px" viewBox="0 0 36 36" version="1.1" xmlns="http://www.w3.org/2000/svg" xmlns:xlink="http://www.w3.org/1999/xlink">
    <title>A60809D3-4880-4002-8793-01D7FE39D0C8</title>
    <g id="센트릭스_이관" stroke="none" stroke-width="1" fill="none" fill-rule="evenodd">
        <g id="CTI_센트릭스_sidebar_element" transform="translate(-341.000000, -1665.000000)">
            <g id="BTN" transform="translate(139.500000, 1313.000000)">
                <g id="btn/recent/listcall_calling" transform="translate(201.500000, 352.000000)">
                    <rect id="Rectangle" fill="#15CE6C" x="0" y="0" width="36" height="36"></rect>
                    <path d="M12.7658213,24.8952603 C12.7658213,24.8952603 14.8705388,26.7307133 17.2192816,27.067213 C17.2192816,27.067213 18.8664518,27.4343036 19.9950685,26.0883047 C19.9950685,26.0883047 20.7728989,25.5223734 20.0560748,24.6199423 L18.2868919,22.876262 C18.2868919,22.876262 17.8598478,22.3868079 17.1735268,22.8150802 L16.1211681,23.8551702 C16.1211681,23.8551702 13.2233686,22.356217 12.0642488,19.7406965 L12.8725823,18.9300381 C12.8725823,18.9300381 13.6809159,18.2111523 12.8878339,17.4004939 L11.118651,15.6568136 C11.118651,15.6568136 10.4933364,15.2132458 9.86802178,15.7638816 C9.86802178,15.7638816 8.34286415,17.0486987 8.83091459,19.205356 C8.83091459,19.205356 8.87666932,21.4690814 12.7658213,24.8952603 Z" id="Path-Copy-6" fill="#FFFFFF" fill-rule="nonzero" transform="translate(14.547081, 21.300441) rotate(-360.000000) translate(-14.547081, -21.300441) "></path>
                    <rect id="Rectangle" fill="#FFFFFF" transform="translate(23.261237, 12.127500) rotate(-360.000000) translate(-23.261237, -12.127500) " x="19.5487369" y="11.7225" width="7.425" height="1"></rect>
                    <rect id="Rectangle-Copy-23" fill="#FFFFFF" transform="translate(23.261237, 14.557500) rotate(-360.000000) translate(-23.261237, -14.557500) " x="19.5487369" y="14.1525" width="7.425" height="1"></rect>
                    <rect id="Rectangle-Copy-24" fill="#FFFFFF" transform="translate(23.261237, 16.987500) rotate(-360.000000) translate(-23.261237, -16.987500) " x="19.5487369" y="16.5825" width="7.425" height="1"></rect>
                    <path d="M17.9287369,14.5575 L17.9287369,14.5575 C17.9287369,14.3338247 17.7474122,14.1525 17.5237369,14.1525 L17.5237369,14.1525 C17.3000616,14.1525 17.1187369,14.3338247 17.1187369,14.5575 L17.1187369,14.5575 C17.1187369,14.7811753 17.3000616,14.9625 17.5237369,14.9625 L17.5237369,14.9625 C17.7474122,14.9625 17.9287369,14.7811753 17.9287369,14.5575 L17.9287369,14.5575 Z" id="Path" fill="#FFFFFF" fill-rule="nonzero" transform="translate(17.523737, 14.557500) rotate(-360.000000) translate(-17.523737, -14.557500) "></path>
                    <path d="M17.9286403,12.1231263 L17.9286403,12.1231263 C17.9286403,11.9018665 17.7473589,11.7225 17.5237369,11.7225 L17.5237369,11.7225 C17.300115,11.7225 17.1188336,11.9018665 17.1188336,12.1231263 L17.1188336,12.1231263 C17.116455,12.2308864 17.158062,12.335049 17.2342555,12.4120837 C17.3104489,12.4891183 17.4148004,12.5325257 17.5237369,12.5325 L17.5237369,12.5325 C17.6326734,12.5325257 17.7370249,12.4891183 17.8132184,12.4120837 C17.8894118,12.335049 17.9310188,12.2308864 17.9286403,12.1231263 L17.9286403,12.1231263 Z" id="Path" fill="#FFFFFF" fill-rule="nonzero" transform="translate(17.523737, 12.127500) rotate(-360.000000) translate(-17.523737, -12.127500) "></path>
                    <path d="M17.5237388,16.5825 C17.4160196,16.5825 17.3127378,16.6253177 17.2367349,16.7014866 C17.160732,16.7776554 17.1182704,16.8808983 17.1187408,16.9883824 C17.1187408,17.2115704 17.3000646,17.3925 17.5237388,17.3925 C17.7474131,17.3925 17.9287369,17.2115704 17.9287369,16.9883824 C17.9287369,16.7634296 17.7474131,16.5825 17.5237388,16.5825 Z" id="Path" fill="#FFFFFF" fill-rule="nonzero" transform="translate(17.523733, 16.987500) rotate(-360.000000) translate(-17.523733, -16.987500) "></path>
                </g>
            </g>
        </g>
    </g>
</svg>