<?xml version="1.0" encoding="UTF-8"?>
<svg width="27px" height="23px" viewBox="0 0 27 23" version="1.1" xmlns="http://www.w3.org/2000/svg" xmlns:xlink="http://www.w3.org/1999/xlink">
    <title>3CBA4A67-AAD6-4968-B9B5-14E1D0B73FAB</title>
    <defs>
        <filter id="filter-1">
            <feColorMatrix in="SourceGraphic" type="matrix" values="0 0 0 0 0.177933 0 0 0 0 0.177933 0 0 0 0 0.177933 0 0 0 1.000000 0"></feColorMatrix>
        </filter>
    </defs>
    <g id="센트릭스_이관" stroke="none" stroke-width="1" fill="none" fill-rule="evenodd">
        <g id="CTI_센트릭스_상담_element" transform="translate(-506.000000, -1409.000000)">
            <g id="btn_calllist" transform="translate(504.000000, 1402.000000)" filter="url(#filter-1)">
                <g transform="translate(3.000000, 7.000000)">
                    <path d="M6.36702679,18.6124439 C6.36702679,18.6124439 9.49558756,21.340756 12.98688,21.8409465 C12.98688,21.8409465 15.4353189,22.3866089 17.1129529,20.3858468 C17.1129529,20.3858468 18.2691602,19.5446172 17.2036358,18.2031971 L14.5738311,15.6113007 C14.5738311,15.6113007 13.9390507,14.8837508 12.9188678,15.5203569 L11.3545874,17.0664004 C11.3545874,17.0664004 7.04714869,14.8382789 5.32417319,10.9504342 L6.5257219,9.74542974 C6.5257219,9.74542974 7.7272706,8.67684085 6.54839263,7.47183636 L3.91858792,4.87993991 C3.91858792,4.87993991 2.98908798,4.22059783 2.05958804,5.03909144 C2.05958804,5.03909144 -0.207484984,6.94890988 0.517978384,10.1546766 C0.517978384,10.1546766 0.585990575,13.5195948 6.36702679,18.6124439 Z" id="Path-Copy-6" stroke="#273142" stroke-width="1.08" fill-rule="nonzero" transform="translate(9.014783, 13.268918) rotate(2.000000) translate(-9.014783, -13.268918) "></path>
                    <rect id="Rectangle" stroke="#979797" stroke-width="1.08" fill="#D8D8D8" x="16.08" y="0.74" width="8.82" height="1"></rect>
                    <rect id="Rectangle-Copy-23" stroke="#979797" stroke-width="1.08" fill="#D8D8D8" x="16.08" y="3.98" width="8.82" height="1"></rect>
                    <rect id="Rectangle-Copy-24" stroke="#979797" stroke-width="1.08" fill="#D8D8D8" x="16.08" y="7.22" width="8.82" height="1"></rect>
                    <path d="M13.38,3.98 L13.38,3.98 C13.38,3.68176624 13.1382338,3.44 12.84,3.44 L12.84,3.44 C12.5417662,3.44 12.3,3.68176624 12.3,3.98 L12.3,3.98 C12.3,4.27823376 12.5417662,4.52 12.84,4.52 L12.84,4.52 C13.1382338,4.52 13.38,4.27823376 13.38,3.98 L13.38,3.98 Z" id="Path" fill="#000000" fill-rule="nonzero"></path>
                    <path d="M13.3798711,0.734168459 L13.3798711,0.734168459 C13.3798711,0.439155365 13.1381626,0.2 12.84,0.2 L12.84,0.2 C12.5418374,0.2 12.3001289,0.439155365 12.3001289,0.734168459 L12.3001289,0.734168459 C12.2969575,0.877848591 12.3524335,1.01673205 12.4540247,1.11944491 C12.555616,1.22215776 12.6947513,1.28003425 12.84,1.28 L12.84,1.28 C12.9852487,1.28003425 13.124384,1.22215776 13.2259753,1.11944491 C13.3275665,1.01673205 13.3830425,0.877848591 13.3798711,0.734168459 L13.3798711,0.734168459 Z" id="Path" fill="#000000" fill-rule="nonzero"></path>
                    <path d="M13.38,7.21882353 L13.38,7.21882353 C13.38,6.92123951 13.1382349,6.68 12.8400026,6.68 L12.8400026,6.68 C12.6963769,6.68 12.5586678,6.73709026 12.4573306,6.83864874 C12.3559934,6.94020722 12.299378,7.07786434 12.3,7.22117647 L12.3,7.22117647 C12.3,7.51876049 12.5417702,7.76 12.8400026,7.76 L12.8400026,7.76 C13.1382349,7.76 13.38,7.51876049 13.38,7.22117647 L13.38,7.21882353 Z" id="Path" fill="#000000" fill-rule="nonzero"></path>
                </g>
            </g>
        </g>
    </g>
</svg>