<?xml version="1.0" encoding="UTF-8"?>
<svg width="33px" height="33px" viewBox="0 0 33 33" version="1.1" xmlns="http://www.w3.org/2000/svg" xmlns:xlink="http://www.w3.org/1999/xlink">
    <title>93289016-4D5C-4267-9DC1-54FA262644FF</title>
    <g id="센트릭스_이관" stroke="none" stroke-width="1" fill="none" fill-rule="evenodd">
        <g id="CTI_센트릭스_상담_element" transform="translate(-588.000000, -1501.000000)">
            <g id="btn_res_pre" transform="translate(588.000000, 1501.000000)">
                <path d="M19.4937521,4.32 C19.8369521,4.32 20.1177521,4.6008 20.1177521,4.944 L20.1177521,4.944 L20.1177521,5.4744 L27.1689521,5.4744 L27.1682295,17.9182432 C26.8337351,17.6331142 26.4728208,17.3780612 26.0896706,17.157268 L26.0894005,9.7488 L5.51855208,9.7488 L5.51855208,25.9290771 C5.51855208,26.5255446 6.00208455,27.0090771 6.59855208,27.0090771 L6.59855208,27.0090771 L16.2689314,27.009835 C16.4928176,27.3954601 16.7514751,27.7583941 17.040612,28.0943452 L6.64898034,28.0943719 C5.45606081,28.0882856 4.49394239,27.1162993 4.50002872,25.9233797 L4.50002872,25.9233797 L4.58255208,9.7488 L4.58255208,5.4744 L11.2881521,5.4744 L11.2881521,4.944 C11.2881521,4.6008 11.5689521,4.32 11.9121521,4.32 C12.2553521,4.32 12.5361521,4.6008 12.5361521,4.944 L12.5361521,4.944 L12.5361521,5.4744 L18.8697521,5.4744 L18.8697521,4.944 C18.8697521,4.6008 19.1505521,4.32 19.4937521,4.32 Z M11.3507299,6.4104 L5.51855208,6.4104 L5.51855208,8.8128 L26.0385521,8.8128 L26.0385521,6.4104 L20.2594599,6.4104 L20.2594599,6.9408 C20.2594599,7.284 19.977141,7.5648 19.6320845,7.5648 C19.2870281,7.5648 19.0047092,7.284 19.0047092,6.9408 L19.0047092,6.9408 L19.0047092,6.4104 L12.6054806,6.4104 L12.6054806,6.9408 C12.6054806,7.284 12.3231617,7.5648 11.9781052,7.5648 C11.6330488,7.5648 11.3507299,7.284 11.3507299,6.9408 L11.3507299,6.9408 L11.3507299,6.4104 Z" id="Combined-Shape" fill="#0060FF" fill-rule="nonzero"></path>
                <circle id="Oval" stroke="#0060FF" stroke-width="0.9" cx="22.5" cy="23.4" r="5.85"></circle>
                <polyline id="Path-8" stroke="#0060FF" stroke-width="0.9" stroke-linecap="round" points="22.5 19.8065695 22.5333586 23.8600421 24.9623376 25.5274105"></polyline>
            </g>
        </g>
    </g>
</svg>