<svg xmlns="http://www.w3.org/2000/svg" width="30" height="30" viewBox="0 0 30 30">
    <g fill="none" fill-rule="evenodd">
        <g fill="#35C759" fill-rule="nonzero">
            <path d="M13.676 17.076c5.34-.338 7.026 1.28 7.026 1.28 1.556.983 1.744 2.507 1.758 3.06v.114c0 .062-.003.096-.003.096-.055.858-.835.99-.835.99l-2.564.02c-1.004-.011-1.099-.832-1.106-1.066v-.062l-.001-1.182c-2.755-1.063-5.965-.042-5.965-.042l-.009 1.528c-.164.711-.697.765-.828.768h-.029l-2.564.018c-1.182-.135-1.027-1.116-1.027-1.116-.159-1.806 1.311-2.74 1.311-2.74 1.96-1.47 4.836-1.666 4.836-1.666zm4.622-2.95c.2.191.209.512.02.715-.19.204-.505.213-.705.02-1.44-1.381-3.786-1.381-5.226 0-.2.193-.516.184-.705-.02-.189-.203-.18-.524.02-.716 1.825-1.75 4.771-1.75 6.596 0zm1.773-1.702c.2.192.209.512.02.716-.19.203-.505.212-.705.02-2.42-2.321-6.353-2.321-8.772 0-.2.192-.516.183-.705-.02-.189-.204-.18-.524.02-.716 2.804-2.69 7.338-2.69 10.142 0zm1.773-1.702c.2.192.209.513.02.716-.19.204-.505.213-.705.02-3.398-3.26-8.92-3.26-12.318 0-.2.193-.516.184-.705-.02-.189-.203-.18-.524.02-.716 3.783-3.63 9.905-3.63 13.688 0z" transform="translate(-304.000000, -113.000000) translate(304.000000, 113.000000)"/>
        </g>
    </g>
</svg>
