<svg xmlns="http://www.w3.org/2000/svg" width="28" height="28" viewBox="0 0 28 28">
    <g fill="none" fill-rule="evenodd">
        <g fill-rule="nonzero">
            <g>
                <g>
                    <g>
                        <g>
                            <g>
                                <path fill="#FFF" d="M14.826 0H2.116C.948 0 0 .949 0 2.115v11.62c0 1.167.95 2.116 2.115 2.116h12.71c1.167 0 2.116-.949 2.116-2.115V2.116C16.941.948 15.992 0 14.826 0z" transform="translate(-1267 -461) translate(1100 320) translate(20 120) translate(82 20) translate(65 1) translate(6 6)"/>
                                <path fill="#9CB2CD" d="M16.342 13.736c0 .836-.68 1.516-1.516 1.516H2.116c-.837 0-1.517-.68-1.517-1.516v-9.96h15.743v9.96zM16.342 3.177H.599V2.115C.6 1.28 1.28.6 2.116.6h12.71c.836 0 1.516.68 1.516 1.516v1.062z" transform="translate(-1267 -461) translate(1100 320) translate(20 120) translate(82 20) translate(65 1) translate(6 6)"/>
                                <path fill="#FFF" d="M4.076 7.335h.618c.33 0 .599-.268.599-.599v-.617c0-.331-.268-.6-.6-.6h-.617c-.33 0-.599.269-.599.6v.617c0 .33.269.6.6.6zM8.162 7.335h.617c.331 0 .6-.268.6-.599v-.617c0-.331-.269-.6-.6-.6h-.617c-.331 0-.6.269-.6.6v.617c0 .33.269.6.6.6zM12.247 7.335h.618c.33 0 .599-.268.599-.599v-.617c0-.331-.269-.6-.6-.6h-.617c-.33 0-.599.269-.599.6v.617c0 .33.269.6.6.6zM4.076 10.422h.618c.33 0 .599-.268.599-.599v-.617c0-.331-.268-.6-.6-.6h-.617c-.33 0-.599.269-.599.6v.617c0 .331.269.6.6.6zM8.162 10.422h.617c.331 0 .6-.268.6-.599v-.617c0-.331-.269-.6-.6-.6h-.617c-.331 0-.6.269-.6.6v.617c0 .331.269.6.6.6zM12.247 10.422h.618c.33 0 .599-.268.599-.599v-.617c0-.331-.269-.6-.6-.6h-.617c-.33 0-.599.269-.599.6v.617c0 .331.269.6.6.6zM4.076 13.51h.618c.33 0 .599-.27.599-.6v-.618c0-.33-.268-.599-.6-.599h-.617c-.33 0-.599.268-.599.6v.617c0 .33.269.6.6.6zM8.162 13.51h.617c.331 0 .6-.27.6-.6v-.618c0-.33-.269-.599-.6-.599h-.617c-.331 0-.6.268-.6.6v.617c0 .33.269.6.6.6z" transform="translate(-1267 -461) translate(1100 320) translate(20 120) translate(82 20) translate(65 1) translate(6 6)"/>
                            </g>
                        </g>
                    </g>
                </g>
            </g>
        </g>
    </g>
</svg>
