<svg xmlns="http://www.w3.org/2000/svg" xmlns:xlink="http://www.w3.org/1999/xlink" width="29" height="29" viewBox="0 0 29 29">
    <defs>
        <path id="fogy7ennxb" d="M0 0.149L13.115 0.149 13.115 5.28 0 5.28z"/>
        <path id="dwcekxd0yd" d="M0.016 0.148L8.497 0.148 8.497 8.941 0.016 8.941z"/>
        <filter id="sdwxldtxia">
            <feColorMatrix in="SourceGraphic" values="0 0 0 0 1.000000 0 0 0 0 1.000000 0 0 0 0 1.000000 0 0 0 1.000000 0"/>
        </filter>
    </defs>
    <g fill="none" fill-rule="evenodd">
        <g>
            <g>
                <g>
                    <g transform="translate(-1214 -389) translate(1044 232) translate(6 130) translate(164 27)">
                        <rect width="29" height="29" fill="#F7685B" rx="14.5"/>
                        <g filter="url(#sdwxldtxia)">
                            <g>
                                <g transform="translate(7 6) translate(.5 9.757)">
                                    <mask id="40a2ud8tdc" fill="#fff">
                                        <use xlink:href="#fogy7ennxb"/>
                                    </mask>
                                    <path fill="#000" d="M12.26 1.865C11.55 1.386 10.526.99 9.387.644 9.322.627 9.256.66 9.24.726L8.15 3.845c-.032.115-.18.115-.23.016l-.875-1.567c-.033-.067-.016-.132.033-.182C8.168 1.09 7.705.247 6.583.15H6.55c-1.105.082-1.567.94-.495 1.963.05.05.05.115.033.182L5.214 3.86c-.05.099-.198.083-.231-.016L3.893.726C3.878.66 3.796.627 3.746.644 2.607.99 1.6 1.386.875 1.864.164 2.328-.1 3.367.032 4.406v.034c.132.461.346.758.643.825.017 0 .017.016.033.016h11.666c.016 0 .016-.016.033-.016.313-.067.511-.364.66-.81v-.032c.165-1.056-.1-2.095-.809-2.557" mask="url(#40a2ud8tdc)"/>
                                </g>
                                <g transform="translate(7 6) translate(2.81 .516)">
                                    <mask id="ba23s7kvde" fill="#fff">
                                        <use xlink:href="#dwcekxd0yd"/>
                                    </mask>
                                    <path fill="#000" d="M1.567 4.422c.776-.116 1.32-.61 1.634-1.452.016-.066.115-.083.148-.017.809 1.106 1.667 1.568 3.73 1.485.049 0 .082.033.098.083.083.726-.099 1.65-.511 2.425-.083.149-.165.297-.264.43l-.347.395c-.33.347-.726.611-1.204.776-.198.066-.413.099-.627.066-.71-.083-1.353-.479-1.848-1.073-.594-.726-.974-1.798-.891-3.036 0-.033.033-.066.082-.082zM1.138 6.27c.132.313.297.594.479.874l.016.017c.05.082.132.181.215.297.016.016.033.05.05.066v.016c.016.017.032.033.049.066l.016.017c.314.38.776.808 1.353 1.072.825.38 1.617.347 2.525-.297.214-.148.429-.363.627-.61C7.326 6.765 7.81 5.56 7.92 4.174 8.085 2.095 6.484.247 4.389.165c-.017 0-.033-.017-.033-.017-.974 0-1.766.297-2.426.825C.973 1.75.495 2.97.61 4.191c.116 1.221.512 2.095.528 2.079z" mask="url(#ba23s7kvde)"/>
                                </g>
                                <path fill="#FFF" d="M4.245 10.4c1.786-.678 3.667-.678 5.643 0s1.32 2.062-1.968 4.152H4.84L4.246 10.4z" opacity=".3" transform="translate(7 6)"/>
                                <path fill="#000" d="M4.377 4.938c.776-.115 1.32-.61 1.634-1.452.016-.066.115-.082.148-.016.809 1.105 1.667 1.567 3.73 1.485.049 0 .082.033.098.082.083.726-.099 1.65-.511 2.426-.083.148-.165.297-.264.429l-.347.396c-.33.346-.726.61-1.204.775-.198.066-.413.1-.627.066-.71-.082-1.353-.478-1.848-1.072-.594-.726-.974-1.799-.891-3.036 0-.033.033-.066.082-.083z" opacity=".3" transform="translate(7 6)"/>
                            </g>
                        </g>
                    </g>
                </g>
            </g>
        </g>
    </g>
</svg>
