<svg width="10" height="12" viewBox="0 0 10 12" fill="none" xmlns="http://www.w3.org/2000/svg">
<path fill-rule="evenodd" clip-rule="evenodd" d="M4.5 0C3.94772 0 3.5 0.447715 3.5 1H1C0.723858 1 0.5 1.22386 0.5 1.5C0.5 1.77614 0.723858 2 1 2H9C9.27614 2 9.5 1.77614 9.5 1.5C9.5 1.22386 9.27614 1 9 1H6.5C6.5 0.447715 6.05229 0 5.5 0H4.5ZM9.5 3H0.5V11C0.5 11.5523 1.17157 12 2 12H8C8.82843 12 9.5 11.5523 9.5 11V3ZM2.5 5.5C2.5 5.22386 2.72386 5 3 5C3.27614 5 3.5 5.22386 3.5 5.5V9.5C3.5 9.77614 3.27614 10 3 10C2.72386 10 2.5 9.77614 2.5 9.5V5.5ZM4.5 5.5C4.5 5.22386 4.72386 5 5 5C5.27614 5 5.5 5.22386 5.5 5.5V9.5C5.5 9.77614 5.27614 10 5 10C4.72386 10 4.5 9.77614 4.5 9.5V5.5ZM7 5C6.72386 5 6.5 5.22386 6.5 5.5V9.5C6.5 9.77614 6.72386 10 7 10C7.27614 10 7.5 9.77614 7.5 9.5V5.5C7.5 5.22386 7.27614 5 7 5Z" fill="currentColor"/>
</svg>
