<svg width="14" height="14" viewBox="0 0 14 14" fill="none" xmlns="http://www.w3.org/2000/svg">
<g opacity="0.8">
<path d="M11.5901 7.7733C11.6133 7.58044 11.6287 7.37986 11.6287 7.17157C11.6287 6.96328 11.6133 6.76271 11.5824 6.56985L12.8861 5.55154C13.0019 5.45896 13.0327 5.28924 12.9633 5.1581L11.729 3.02119C11.6518 2.88233 11.4898 2.83604 11.351 2.88233L9.81578 3.49949C9.49177 3.25262 9.15234 3.05205 8.77433 2.89776L8.54289 1.26229C8.51975 1.108 8.3886 1 8.23432 1H5.76569C5.6114 1 5.48797 1.108 5.46482 1.26229L5.23339 2.89776C4.85538 3.05205 4.50823 3.26034 4.19193 3.49949L2.65676 2.88233C2.51789 2.82833 2.35589 2.88233 2.27875 3.02119L1.04443 5.1581C0.967287 5.29696 0.998145 5.45896 1.12158 5.55154L2.42532 6.56985C2.39446 6.76271 2.37132 6.971 2.37132 7.17157C2.37132 7.37215 2.38675 7.58044 2.41761 7.7733L1.11386 8.79161C0.998145 8.88419 0.967287 9.0539 1.03672 9.18505L2.27103 11.322C2.34818 11.4608 2.51018 11.5071 2.64904 11.4608L4.18422 10.8437C4.50823 11.0905 4.84766 11.2911 5.22567 11.4454L5.45711 13.0809C5.48797 13.2351 5.6114 13.3431 5.76569 13.3431H8.23432C8.3886 13.3431 8.51975 13.2351 8.53518 13.0809L8.76661 11.4454C9.14462 11.2911 9.49177 11.0828 9.80807 10.8437L11.3432 11.4608C11.4821 11.5148 11.6441 11.4608 11.7213 11.322L12.9556 9.18505C13.0327 9.04619 13.0019 8.88419 12.8784 8.79161L11.5901 7.7733ZM7 9.48591C5.72711 9.48591 4.68566 8.44446 4.68566 7.17157C4.68566 5.89869 5.72711 4.85723 7 4.85723C8.27289 4.85723 9.31434 5.89869 9.31434 7.17157C9.31434 8.44446 8.27289 9.48591 7 9.48591Z" fill="white"/>
</g>
</svg>
