<svg width="12" height="12" viewBox="0 0 12 12" fill="none" xmlns="http://www.w3.org/2000/svg">
<path d="M4 6.33357V8H5.66643L10.5813 3.08511L8.91486 1.41868L4 6.33357ZM11.87 1.79641C12.0433 1.6231 12.0433 1.34314 11.87 1.16983L10.8302 0.129981C10.6569 -0.0433272 10.3769 -0.0433272 10.2036 0.129981L9.39037 0.943199L11.0568 2.60963L11.87 1.79641Z" fill="currentColor"/>
<path d="M1 11V1H7V0H1C0.447715 0 0 0.447715 0 1V11C0 11.5523 0.447715 12 1 12H11C11.5523 12 12 11.5523 12 11V5H11V11H1Z" fill="currentColor"/>
</svg>
