<svg width="13" height="14" viewBox="0 0 13 14" fill="none" xmlns="http://www.w3.org/2000/svg">
<path fill-rule="evenodd" clip-rule="evenodd" d="M6.5 12.6875C9.64112 12.6875 12.1875 10.1411 12.1875 7C12.1875 3.85888 9.64112 1.3125 6.5 1.3125C3.35888 1.3125 0.8125 3.85888 0.8125 7C0.8125 10.1411 3.35888 12.6875 6.5 12.6875ZM6.5 13.5C10.0899 13.5 13 10.5899 13 7C13 3.41015 10.0899 0.5 6.5 0.5C2.91015 0.5 0 3.41015 0 7C0 10.5899 2.91015 13.5 6.5 13.5Z" fill="currentColor"/>
<path d="M5.6875 10.25C5.6875 9.80127 6.05127 9.4375 6.5 9.4375C6.94873 9.4375 7.3125 9.80127 7.3125 10.25C7.3125 10.6987 6.94873 11.0625 6.5 11.0625C6.05127 11.0625 5.6875 10.6987 5.6875 10.25Z" fill="currentColor"/>
<path d="M6.05356 7.6554C5.94009 7.92702 5.88336 8.29148 5.88336 8.74878H7.05411C7.06098 8.25366 7.17789 7.87717 7.40482 7.61929L8.03918 6.99524C8.56181 6.45199 8.82312 5.90014 8.82312 5.33969C8.82312 4.71048 8.62886 4.22052 8.24033 3.86981C7.85523 3.5191 7.31714 3.34375 6.62604 3.34375C5.95557 3.34375 5.41575 3.52082 5.00659 3.87497C4.60087 4.22912 4.39457 4.71048 4.3877 5.31906H5.64096C5.64096 5.03368 5.73036 4.80847 5.90915 4.64343C6.09138 4.47496 6.33034 4.39072 6.62604 4.39072C6.93549 4.39072 7.16929 4.47667 7.32745 4.64859C7.48905 4.81707 7.56985 5.06291 7.56985 5.38611C7.56985 5.63023 7.50109 5.85716 7.36356 6.06689C7.27416 6.20443 7.06098 6.43651 6.72403 6.76315C6.39051 7.08635 6.16702 7.38377 6.05356 7.6554Z" fill="currentColor"/>
</svg>
