<svg width="12" height="12" viewBox="0 0 12 12" fill="none" xmlns="http://www.w3.org/2000/svg">
<path d="M4.62334 3.45667C4.75751 3.16501 4.83334 2.84417 4.83334 2.50001C4.83334 1.21084 3.78917 0.166672 2.50001 0.166672C1.21084 0.166672 0.166672 1.21084 0.166672 2.50001C0.166672 3.78917 1.21084 4.83334 2.50001 4.83334C2.84417 4.83334 3.16501 4.75751 3.45667 4.62334L4.83334 6.00001L3.45667 7.37667C3.16501 7.24251 2.84417 7.16667 2.50001 7.16667C1.21084 7.16667 0.166672 8.21084 0.166672 9.50001C0.166672 10.7892 1.21084 11.8333 2.50001 11.8333C3.78917 11.8333 4.83334 10.7892 4.83334 9.50001C4.83334 9.15584 4.75751 8.83501 4.62334 8.54334L6.00001 7.16667L10.0833 11.25H11.8333V10.6667L4.62334 3.45667ZM2.50001 3.66667C1.85834 3.66667 1.33334 3.14751 1.33334 2.50001C1.33334 1.85251 1.85834 1.33334 2.50001 1.33334C3.14167 1.33334 3.66667 1.85251 3.66667 2.50001C3.66667 3.14751 3.14167 3.66667 2.50001 3.66667ZM2.50001 10.6667C1.85834 10.6667 1.33334 10.1475 1.33334 9.50001C1.33334 8.85251 1.85834 8.33334 2.50001 8.33334C3.14167 8.33334 3.66667 8.85251 3.66667 9.50001C3.66667 10.1475 3.14167 10.6667 2.50001 10.6667ZM6.00001 6.29167C5.83667 6.29167 5.70834 6.16334 5.70834 6.00001C5.70834 5.83667 5.83667 5.70834 6.00001 5.70834C6.16334 5.70834 6.29167 5.83667 6.29167 6.00001C6.29167 6.16334 6.16334 6.29167 6.00001 6.29167ZM10.0833 0.750005L6.58334 4.25001L7.75001 5.41667L11.8333 1.33334V0.750005H10.0833Z" fill="black"/>
</svg>
