<svg width="14" height="10" viewBox="0 0 14 10" fill="none" xmlns="http://www.w3.org/2000/svg">
<path d="M11.0833 2.66667L8.74999 5H10.5C10.5 6.93083 8.93083 8.5 6.99999 8.5C6.41083 8.5 5.85083 8.35417 5.36666 8.09167L4.51499 8.94333C5.23249 9.39833 6.08416 9.66667 6.99999 9.66667C9.57833 9.66667 11.6667 7.57833 11.6667 5H13.4167L11.0833 2.66667ZM3.49999 5C3.49999 3.06917 5.06916 1.5 6.99999 1.5C7.58916 1.5 8.14916 1.64583 8.63333 1.90833L9.48499 1.05667C8.7675 0.601667 7.91583 0.333334 6.99999 0.333334C4.42166 0.333334 2.33333 2.42167 2.33333 5H0.583328L2.91666 7.33333L5.24999 5H3.49999Z" fill="black"/>
</svg>
