<svg width="14" height="14" viewBox="0 0 14 14" fill="none" xmlns="http://www.w3.org/2000/svg">
<path d="M13.4167 3.20833V11.6667C13.4167 12.95 12.3667 14 11.0833 14H6.825C6.195 14 5.6 13.7492 5.1625 13.3058L0.583336 8.65083C0.583336 8.65083 1.31834 7.93333 1.34167 7.92167C1.47 7.81083 1.6275 7.7525 1.8025 7.7525C1.93084 7.7525 2.0475 7.7875 2.1525 7.84583C2.17584 7.85167 4.66667 9.28083 4.66667 9.28083V2.33333C4.66667 1.84917 5.0575 1.45833 5.54167 1.45833C6.02584 1.45833 6.41667 1.84917 6.41667 2.33333V6.41667H7V0.875C7 0.390833 7.39084 0 7.875 0C8.35917 0 8.75 0.390833 8.75 0.875V6.41667H9.33334V1.45833C9.33334 0.974167 9.72417 0.583333 10.2083 0.583333C10.6925 0.583333 11.0833 0.974167 11.0833 1.45833V6.41667H11.6667V3.20833C11.6667 2.72417 12.0575 2.33333 12.5417 2.33333C13.0258 2.33333 13.4167 2.72417 13.4167 3.20833Z" fill="black"/>
</svg>
