<svg width="12" height="12" viewBox="0 0 12 12" fill="none" xmlns="http://www.w3.org/2000/svg">
<path d="M0.75 1.91667V10.0833C0.75 10.725 1.26917 11.25 1.91667 11.25H10.0833C10.725 11.25 11.25 10.725 11.25 10.0833V1.91667C11.25 1.275 10.725 0.75 10.0833 0.75H1.91667C1.26917 0.75 0.75 1.275 0.75 1.91667ZM7.75 4.25C7.75 5.21833 6.96833 6 6 6C5.03167 6 4.25 5.21833 4.25 4.25C4.25 3.28167 5.03167 2.5 6 2.5C6.96833 2.5 7.75 3.28167 7.75 4.25ZM2.5 8.91667C2.5 7.75 4.83333 7.10833 6 7.10833C7.16667 7.10833 9.5 7.75 9.5 8.91667V9.5H2.5V8.91667Z" fill="black"/>
</svg>
