<svg width="13" height="12" viewBox="0 0 13 12" fill="none" xmlns="http://www.w3.org/2000/svg">
<path fill-rule="evenodd" clip-rule="evenodd" d="M0.333252 6C0.333252 2.68629 3.01954 0 6.33325 0C9.64696 0 12.3333 2.68629 12.3333 6C12.3333 9.31371 9.64696 12 6.33325 12C3.01954 12 0.333252 9.31371 0.333252 6ZM4.15141 4.90911C4.45266 4.90911 4.69687 4.6649 4.69687 4.36365C4.69687 4.0624 4.45266 3.8182 4.15141 3.8182C3.85017 3.8182 3.60596 4.0624 3.60596 4.36365C3.60596 4.6649 3.85017 4.90911 4.15141 4.90911ZM9.06055 4.36365C9.06055 4.6649 8.81635 4.90911 8.5151 4.90911C8.21385 4.90911 7.96965 4.6649 7.96965 4.36365C7.96965 4.0624 8.21385 3.8182 8.5151 3.8182C8.81635 3.8182 9.06055 4.0624 9.06055 4.36365ZM2.98687 7.58185C3.69691 8.76177 4.95686 9.50111 6.33324 9.54549C7.70961 9.50111 8.96956 8.76177 9.6796 7.58185C9.75755 7.45811 9.76356 7.30218 9.69537 7.1728C9.62718 7.04343 9.49514 6.96026 9.349 6.95462C9.20287 6.94899 9.06482 7.02175 8.98687 7.14549C8.46007 8.12026 7.44125 8.72775 6.33324 8.72775C5.22522 8.72775 4.2064 8.12026 3.6796 7.14549C3.5591 6.9542 3.30635 6.89681 3.11505 7.01731C2.92376 7.13781 2.86637 7.39056 2.98687 7.58185Z" fill="currentColor"/>
</svg>
