<svg width="12" height="13" viewBox="0 0 12 13" fill="none" xmlns="http://www.w3.org/2000/svg">
<path d="M10.0833 1.75H7.645C7.4 1.07334 6.75833 0.583336 6 0.583336C5.24167 0.583336 4.6 1.07334 4.355 1.75H1.91667C1.275 1.75 0.75 2.275 0.75 2.91667V11.0833C0.75 11.725 1.275 12.25 1.91667 12.25H10.0833C10.725 12.25 11.25 11.725 11.25 11.0833V2.91667C11.25 2.275 10.725 1.75 10.0833 1.75ZM6.58333 10.5H5.41667V9.33334H6.58333V10.5ZM6.58333 8.16667H5.41667V4.66667H6.58333V8.16667ZM6 2.91667C5.67917 2.91667 5.41667 2.65417 5.41667 2.33334C5.41667 2.0125 5.67917 1.75 6 1.75C6.32083 1.75 6.58333 2.0125 6.58333 2.33334C6.58333 2.65417 6.32083 2.91667 6 2.91667Z" fill="black"/>
</svg>
