<svg width="15" height="12" viewBox="0 0 15 12" fill="none" xmlns="http://www.w3.org/2000/svg">
<path fill-rule="evenodd" clip-rule="evenodd" d="M2.30242 0H13.0307C14.0153 0 14.8162 0.800911 14.8161 1.78533V10.2145C14.8161 10.2166 14.8158 10.2182 14.8158 10.2202L14.8154 10.2245C14.8099 11.2045 14.0118 12 13.0306 12H2.30242C1.32308 12 0.526305 11.207 0.518043 10.2296L0.517566 10.2218C0.517566 10.2206 0.517451 10.2194 0.517334 10.2182C0.517213 10.217 0.51709 10.2157 0.51709 10.2144V1.78533C0.51709 0.800911 1.31816 0 2.30242 0ZM10.7318 1.68567C9.74721 1.68567 8.9463 2.48658 8.9463 3.47116C8.9463 4.45557 9.74721 5.25664 10.7318 5.25664C11.7162 5.25664 12.5173 4.45557 12.5173 3.47116C12.5173 2.48658 11.7162 1.68567 10.7318 1.68567ZM13.0305 11.494H2.30219C1.62823 11.494 1.07533 10.97 1.02734 10.3076L4.13534 6.91748C4.36222 6.66947 4.66377 6.53331 4.98455 6.53331C5.30533 6.53331 5.60672 6.66947 5.83376 6.91748L9.01294 10.3855C9.06267 10.4395 9.13083 10.4675 9.1993 10.4675C9.26031 10.4675 9.32164 10.4452 9.3701 10.4009C9.47305 10.3065 9.47989 10.1465 9.38567 10.0434L8.62734 9.21614L10.0835 7.67152C10.315 7.42621 10.623 7.291 10.9509 7.291C11.2789 7.291 11.5868 7.42621 11.8184 7.67152L14.3057 10.3096C14.2564 10.9708 13.704 11.494 13.0305 11.494Z" fill="currentColor"/>
</svg>
