<svg width="16" height="16" viewBox="0 0 16 16" fill="none" xmlns="http://www.w3.org/2000/svg">
<path d="M14.5455 2.18182H7.27273L6.54545 0H1.45455C0.654545 0 0 0.654545 0 1.45455V12.3636C0 13.1636 0.654545 13.8182 1.45455 13.8182H7.27273L8 16H14.5455C15.3455 16 16 15.3455 16 14.5455V3.63636C16 2.83636 15.3455 2.18182 14.5455 2.18182ZM4.36364 10.9091C2.35636 10.9091 0.727273 9.28 0.727273 7.27273C0.727273 5.26545 2.35636 3.63636 4.36364 3.63636C5.34545 3.63636 6.16727 4 6.8 4.58182L5.84 5.50545C5.56364 5.24364 5.08364 4.93818 4.36364 4.93818C3.09818 4.93818 2.07273 5.98545 2.07273 7.27273C2.07273 8.56 3.09818 9.60727 4.36364 9.60727C5.82545 9.60727 6.42909 8.56 6.48727 7.85455H4.36364V6.61091H7.76727C7.81818 6.83636 7.85455 7.05455 7.85455 7.35273C7.85455 9.43273 6.46545 10.9091 4.36364 10.9091ZM8.85091 6.96727H11.5418C11.2291 7.87636 10.7345 8.73455 10.0509 9.49091C9.82545 9.23636 9.61455 8.96727 9.42546 8.69091L8.85091 6.96727ZM14.9091 14.1818C14.9091 14.5818 14.5818 14.9091 14.1818 14.9091H9.45455L10.9091 13.0909L10.1527 10.8364L12.4073 13.0909L13.0764 12.4218L10.6764 10.0582L10.6909 10.0436C11.5127 9.13455 12.0945 8.08727 12.4364 6.97455H13.8182V6.02909H10.5236V5.09091H9.58545V6.02909H8.53818L7.60727 3.27273H14.1818C14.5818 3.27273 14.9091 3.6 14.9091 4V14.1818Z" fill="currentColor"/>
</svg>
