<svg xmlns="http://www.w3.org/2000/svg" width="24" height="24" viewBox="0 0 24 24">
    <g fill="#282828">
        <path d="M6.002 1.998c0 1.101.896 1.998 1.998 1.998 1.102 0 1.998-.897 1.998-1.998C9.998.896 9.102 0 8 0 6.898 0 6.002.896 6.002 1.998zm3.43 0c0 .79-.642 1.432-1.432 1.432-.79 0-1.432-.643-1.432-1.432 0-.79.642-1.432 1.432-1.432.79 0 1.432.642 1.432 1.432zM3.996 1.998C3.996.896 3.1 0 1.998 0 .897 0 0 .896 0 1.998c0 1.101.896 1.998 1.998 1.998 1.101 0 1.998-.897 1.998-1.998zM1.998 3.43c-.79 0-1.432-.643-1.432-1.432 0-.79.642-1.432 1.432-1.432.79 0 1.432.642 1.432 1.432 0 .79-.643 1.432-1.432 1.432zM14.002 0c-1.101 0-1.998.896-1.998 1.998 0 1.101.897 1.998 1.998 1.998 1.102 0 1.998-.897 1.998-1.998C16 .896 15.104 0 14.002 0zm0 3.43c-.79 0-1.432-.643-1.432-1.432 0-.79.642-1.432 1.432-1.432.79 0 1.432.642 1.432 1.432 0 .79-.642 1.432-1.432 1.432z" transform="rotate(90 5 9)"/>
    </g>
</svg>
