<svg width="15" height="11" viewBox="0 0 15 11" fill="none" xmlns="http://www.w3.org/2000/svg">
<path d="M8 1C4.81818 1 2.10091 2.97909 1 5.77273C2.10091 8.56636 4.81818 10.5455 8 10.5455C11.1818 10.5455 13.8991 8.56636 15 5.77273C13.8991 2.97909 11.1818 1 8 1ZM8 8.95455C6.24364 8.95455 4.81818 7.52909 4.81818 5.77273C4.81818 4.01636 6.24364 2.59091 8 2.59091C9.75636 2.59091 11.1818 4.01636 11.1818 5.77273C11.1818 7.52909 9.75636 8.95455 8 8.95455ZM8 3.86364C6.94364 3.86364 6.09091 4.71636 6.09091 5.77273C6.09091 6.82909 6.94364 7.68182 8 7.68182C9.05636 7.68182 9.90909 6.82909 9.90909 5.77273C9.90909 4.71636 9.05636 3.86364 8 3.86364Z" fill="currentColor"/>
</svg>
