<svg width="12" height="13" viewBox="0 0 12 13" fill="none" xmlns="http://www.w3.org/2000/svg">
<path d="M10.0833 1.74999H7.645C7.4 1.07333 6.75833 0.583328 6 0.583328C5.24167 0.583328 4.6 1.07333 4.355 1.74999H1.91667C1.275 1.74999 0.75 2.27499 0.75 2.91666V11.0833C0.75 11.725 1.275 12.25 1.91667 12.25H10.0833C10.725 12.25 11.25 11.725 11.25 11.0833V2.91666C11.25 2.27499 10.725 1.74999 10.0833 1.74999ZM6 1.74999C6.32083 1.74999 6.58333 2.0125 6.58333 2.33333C6.58333 2.65416 6.32083 2.91666 6 2.91666C5.67917 2.91666 5.41667 2.65416 5.41667 2.33333C5.41667 2.0125 5.67917 1.74999 6 1.74999ZM7.16667 9.91666H3.08333V8.75H7.16667V9.91666ZM8.91667 7.58333H3.08333V6.41666H8.91667V7.58333ZM8.91667 5.25H3.08333V4.08333H8.91667V5.25Z" fill="black"/>
</svg>
