<svg width="11" height="11" viewBox="0 0 11 11" fill="none" xmlns="http://www.w3.org/2000/svg">
<path fill-rule="evenodd" clip-rule="evenodd" d="M0.25 5.17754C0.25 2.59421 2.34421 0.5 4.92754 0.5C6.9229 0.5 8.62556 1.74923 9.29784 3.50696C9.40431 3.78533 9.48493 4.0764 9.53682 4.37715L10.1358 3.77821C10.2763 3.63769 10.5041 3.63769 10.6446 3.77821C10.7851 3.91872 10.7851 4.14654 10.6446 4.28706L9.4997 5.43197C9.35919 5.57248 9.13137 5.57248 8.99085 5.43197L7.84594 4.28706C7.70543 4.14654 7.70543 3.91872 7.84594 3.77821C7.98646 3.63769 8.21427 3.63769 8.35479 3.77821L8.75955 4.18297C8.72256 4.03999 8.67778 3.9002 8.6257 3.76403C8.05643 2.27564 6.61488 1.21962 4.92754 1.21962C2.74164 1.21962 0.969622 2.99164 0.969622 5.17754C0.969622 7.36344 2.74164 9.13547 4.92754 9.13547C5.90743 9.13547 6.80334 8.77984 7.49462 8.19017C7.64581 8.06121 7.87292 8.07922 8.00188 8.23041C8.13084 8.3816 8.11283 8.6087 7.96164 8.73767C7.14503 9.43424 6.08497 9.85509 4.92754 9.85509C2.34421 9.85509 0.25 7.76088 0.25 5.17754Z" fill="#293142" stroke="currentColor" stroke-width="0.4"/>
</svg>
