<svg width="13" height="11" viewBox="0 0 13 11" fill="none" xmlns="http://www.w3.org/2000/svg">
<path d="M9.79167 4.41666C9.89084 4.41666 9.99001 4.42249 10.0833 4.43416V2.00749C10.0833 1.40666 9.59334 0.916656 8.99251 0.916656H1.25751C0.656672 0.916656 0.166672 1.40666 0.166672 2.00749V7.99249C0.166672 8.59332 0.656672 9.08332 1.25751 9.08332H6.93334C6.71167 8.64582 6.58334 8.14999 6.58334 7.62499C6.58334 5.85166 8.01834 4.41666 9.79167 4.41666ZM5.06667 5.58332L1.33334 3.36082V2.08332H1.46751L5.07251 4.22999L8.76501 2.08332H8.91667V3.34332L5.06667 5.58332Z" fill="black"/>
<path d="M10.0833 5.58331L9.26083 6.40581L10.1825 7.33331H7.75V8.49998H10.1825L9.26083 9.42748L10.0833 10.25L12.4167 7.91665L10.0833 5.58331Z" fill="black"/>
</svg>
