<svg width="20" height="20" viewBox="0 0 40 40" fill="none" xmlns="http://www.w3.org/2000/svg">
<g clip-path="url(#clip0_66_24530)">
<path d="M23.6433 3.64987C23.6433 5.66188 19.9993 10.1307 19.9993 10.1307C19.9993 10.1307 16.3567 5.65893 16.3567 3.64987C16.347 3.16527 16.434 2.68359 16.6127 2.23304C16.7915 1.78249 17.0583 1.37211 17.3975 1.02595C17.7368 0.679787 18.1417 0.404787 18.5886 0.217051C19.0355 0.0293152 19.5153 -0.0673828 20 -0.0673828C20.4847 -0.0673828 20.9645 0.0293152 21.4114 0.217051C21.8583 0.404787 22.2632 0.679787 22.6025 1.02595C22.9417 1.37211 23.2085 1.78249 23.3873 2.23304C23.566 2.68359 23.653 3.16527 23.6433 3.64987V3.64987Z" fill="#2C62F6"/>
<path d="M34.1422 11.0144C32.7194 12.4372 26.9809 13.0234 26.9809 13.0234C26.9809 13.0234 27.5701 7.27906 28.9899 5.86211C29.6736 5.17849 30.6008 4.79443 31.5675 4.79443C32.5343 4.79443 33.4615 5.17849 34.1452 5.86211C34.8288 6.54573 35.2128 7.47293 35.2128 8.43972C35.2128 9.4065 34.8288 10.3337 34.1452 11.0173L34.1422 11.0144Z" fill="#2C62F6" fill-opacity="0.1"/>
<path d="M36.356 23.6432C34.344 23.6432 29.8752 20.0007 29.8752 20.0007C29.8752 20.0007 34.3469 16.3567 36.356 16.3567C36.8406 16.3469 37.3223 16.434 37.7728 16.6127C38.2234 16.7914 38.6338 17.0582 38.9799 17.3975C39.3261 17.7368 39.6011 18.1417 39.7888 18.5886C39.9766 19.0354 40.0733 19.5153 40.0733 20C40.0733 20.4847 39.9766 20.9645 39.7888 21.4113C39.6011 21.8582 39.3261 22.2631 38.9799 22.6024C38.6338 22.9417 38.2234 23.2085 37.7728 23.3872C37.3223 23.5659 36.8406 23.653 36.356 23.6432Z" fill="#2C62F6" fill-opacity="0.2"/>
<path d="M28.9899 34.1393C27.5671 32.7165 26.9809 26.9795 26.9809 26.9795C26.9809 26.9795 32.7253 27.5687 34.1422 28.9871C34.4807 29.3256 34.7492 29.7274 34.9324 30.1697C35.1156 30.612 35.2099 31.086 35.2099 31.5647C35.2099 32.0434 35.1156 32.5174 34.9324 32.9597C34.7492 33.4019 34.4807 33.8038 34.1422 34.1423C33.8037 34.4808 33.4019 34.7493 32.9596 34.9325C32.5173 35.1157 32.0433 35.21 31.5646 35.21C31.0859 35.21 30.6119 35.1157 30.1696 34.9325C29.7274 34.7493 29.3255 34.4808 28.987 34.1423L28.9899 34.1393Z" fill="#2C62F6" fill-opacity="0.4"/>
<path d="M16.3567 36.3573C16.3567 34.3453 19.9993 29.8765 19.9993 29.8765C19.9993 29.8765 23.6433 34.3482 23.6433 36.3573C23.6241 37.3109 23.2318 38.2189 22.5507 38.8865C21.8695 39.5541 20.9538 39.928 20 39.928C19.0462 39.928 18.1305 39.5541 17.4493 38.8865C16.7682 38.2189 16.3759 37.3109 16.3567 36.3573V36.3573Z" fill="#2C62F6" fill-opacity="0.5"/>
<path d="M5.85779 28.9841C7.27621 27.5672 13.0206 26.9824 13.0206 26.9824C13.0206 26.9824 12.4314 32.7194 11.0115 34.1423C10.3279 34.8259 9.40071 35.2099 8.43392 35.2099C7.46713 35.2099 6.53994 34.8259 5.85631 34.1423C5.17269 33.4586 4.78864 32.5315 4.78864 31.5647C4.78864 30.5979 5.17269 29.6707 5.85631 28.9871L5.85779 28.9841Z" fill="#2C62F6" fill-opacity="0.65"/>
<path d="M3.64253 16.3569C5.65453 16.3569 10.1234 20.0009 10.1234 20.0009C10.1234 20.0009 5.65158 23.6434 3.64253 23.6434C2.68896 23.6243 1.78091 23.232 1.11331 22.5508C0.445717 21.8697 0.0717812 20.9539 0.0717812 20.0002C0.0717812 19.0464 0.445717 18.1307 1.11331 17.4495C1.78091 16.7684 2.68896 16.3761 3.64253 16.3569V16.3569Z" fill="#2C62F6" fill-opacity="0.75"/>
<path d="M11.01 5.85921C12.4314 7.28057 13.0206 13.0191 13.0206 13.0191C13.0206 13.0191 7.27621 12.4299 5.85926 11.01C5.52077 10.6715 5.25226 10.2696 5.06906 9.82738C4.88587 9.38512 4.79159 8.9111 4.79159 8.43239C4.79159 7.95369 4.88587 7.47967 5.06906 7.0374C5.25226 6.59514 5.52077 6.19328 5.85926 5.85479C6.54289 5.17116 7.47008 4.78711 8.43687 4.78711C8.91557 4.78711 9.38959 4.8814 9.83186 5.06459C10.2741 5.24778 10.676 5.51629 11.0145 5.85479L11.01 5.85921Z" fill="#2C62F6" fill-opacity="0.9"/>
</g>
<defs>
<clipPath id="clip0_66_24530">
<rect width="40" height="40" fill="white"/>
</clipPath>
</defs>
</svg>
