<svg width="14" height="14" viewBox="0 0 14 14" fill="none" xmlns="http://www.w3.org/2000/svg">
<path d="M7.26675 0.691511C7.18278 0.421286 6.81718 0.421287 6.73321 0.691512L5.38361 5.03484C5.34605 5.15568 5.23835 5.2375 5.11684 5.2375H0.749412C0.477686 5.2375 0.36471 5.60109 0.584539 5.7681L4.11786 8.45242C4.21617 8.52711 4.25731 8.6595 4.21976 8.78035L2.87015 13.1237C2.78618 13.3939 3.08196 13.6186 3.30179 13.4516L6.83511 10.7673C6.93342 10.6926 7.06654 10.6926 7.16486 10.7673L10.6982 13.4516C10.918 13.6186 11.2138 13.3939 11.1298 13.1237L9.78021 8.78035C9.74266 8.6595 9.7838 8.52711 9.88211 8.45242L13.4154 5.7681C13.6353 5.60109 13.5223 5.2375 13.2506 5.2375H8.88313C8.76161 5.2375 8.65391 5.15568 8.61636 5.03484L7.26675 0.691511Z" />
<path fill-rule="evenodd" clip-rule="evenodd" d="M7.71138 0.540451C7.48747 -0.180155 6.51253 -0.180145 6.28861 0.540452L4.98099 4.74866H0.749428C0.0248222 4.74866 -0.276441 5.71823 0.309769 6.16358L3.73317 8.7644L2.42555 12.9726C2.20164 13.6932 2.99038 14.2924 3.57659 13.8471L7 11.2463L10.4234 13.8471C11.0096 14.2924 11.7984 13.6932 11.5744 12.9726L10.2668 8.7644L13.6902 6.16358C14.2764 5.71822 13.9752 4.74866 13.2506 4.74866H9.01901L7.71138 0.540451ZM7 1.41492L8.17176 5.1859C8.2719 5.50816 8.55909 5.72635 8.88315 5.72635H12.675L9.60733 8.05694C9.34517 8.25611 9.23547 8.60914 9.33561 8.93141L10.5074 12.7024L7.43966 10.3718C7.1775 10.1726 6.8225 10.1726 6.56034 10.3718L3.49263 12.7024L4.66439 8.93141C4.76453 8.60914 4.65483 8.25611 4.39266 8.05694L1.32495 5.72635H5.11685C5.4409 5.72635 5.7281 5.50816 5.82824 5.1859L7 1.41492Z" fill="currentColor" />
</svg>
