<svg width="18" height="18" viewBox="0 0 16 16" fill="none" xmlns="http://www.w3.org/2000/svg">
<path fill-rule="evenodd" clip-rule="evenodd" d="M3.67334 9.48097L2.2483 9.24346C2.10503 9.21965 2 9.09573 2 8.95049V7.04951C2 6.90427 2.10504 6.78034 2.2483 6.75654L3.67335 6.51903C3.73491 6.33693 3.808 6.15893 3.89218 5.98611L3.05353 4.81215C2.96919 4.69397 2.98264 4.53214 3.08532 4.42949L4.42938 3.08532C4.53209 2.98275 4.69386 2.96936 4.81204 3.05364L5.98601 3.89217C6.15889 3.80804 6.33693 3.73491 6.51903 3.67323L6.75642 2.24818C6.78034 2.10495 6.90429 2 7.0495 2H8.9505C9.09571 2 9.21966 2.10495 9.24359 2.24818L9.48097 3.67323C9.66308 3.73491 9.84111 3.80804 10.014 3.89217L11.188 3.05364C11.3061 2.9691 11.468 2.98251 11.5706 3.08532L12.9147 4.42949C13.0174 4.53214 13.0308 4.69397 12.9465 4.81215L12.1078 5.98611C12.192 6.15893 12.2651 6.33693 12.3267 6.51903L13.7517 6.75654C13.895 6.78035 14 6.90427 14 7.04951V8.95049C14 9.09573 13.895 9.21966 13.7517 9.24346L12.3267 9.48097C12.2651 9.66307 12.192 9.84107 12.1078 10.0139L12.9465 11.1878C13.0308 11.306 13.0174 11.4679 12.9147 11.5705L11.5706 12.9147C11.468 13.0174 11.3061 13.0308 11.188 12.9464L10.014 12.1078C9.84111 12.192 9.66308 12.2651 9.48097 12.3268L9.24358 13.7518C9.21966 13.8951 9.09571 14 8.9505 14H7.0495C6.90429 14 6.78034 13.8951 6.75641 13.7518L6.51903 12.3268C6.33692 12.2651 6.15889 12.192 5.986 12.1078L4.81203 12.9464C4.69388 13.0307 4.53205 13.0173 4.42938 12.9147L3.08532 11.5705C2.98263 11.4679 2.96919 11.306 3.05353 11.1878L3.89217 10.0139C3.808 9.84107 3.73491 9.66307 3.67334 9.48097ZM10.5713 7.9999C10.5713 9.42006 9.42006 10.5713 7.9999 10.5713C6.58039 10.5697 5.43005 9.4194 5.42847 7.9999C5.42847 6.57973 6.57973 5.42847 7.9999 5.42847C9.42006 5.42847 10.5713 6.57973 10.5713 7.9999Z" fill="#A1B1CA"/>
</svg>
