<svg width="14" height="14" viewBox="0 0 14 14" fill="none" xmlns="http://www.w3.org/2000/svg">
<path d="M6.73325 0.691511C6.81722 0.421286 7.18282 0.421287 7.26679 0.691512L8.61639 5.03484C8.65395 5.15568 8.76165 5.2375 8.88316 5.2375H13.2506C13.5223 5.2375 13.6353 5.60109 13.4155 5.7681L9.88214 8.45242C9.78383 8.52711 9.74269 8.6595 9.78024 8.78035L11.1299 13.1237C11.2138 13.3939 10.918 13.6186 10.6982 13.4516L7.16489 10.7673C7.06658 10.6926 6.93346 10.6926 6.83514 10.7673L3.30182 13.4516C3.08199 13.6186 2.78621 13.3939 2.87018 13.1237L4.21979 8.78035C4.25734 8.6595 4.2162 8.52711 4.11789 8.45242L0.584573 5.7681C0.364743 5.60109 0.477721 5.2375 0.749446 5.2375H5.11687C5.23839 5.2375 5.34609 5.15568 5.38364 5.03484L6.73325 0.691511Z" fill="currentColor"/>
<path fill-rule="evenodd" clip-rule="evenodd" d="M6.28862 0.540451C6.51253 -0.180155 7.48747 -0.180145 7.71139 0.540452L9.01901 4.74866H13.2506C13.9752 4.74866 14.2764 5.71823 13.6902 6.16358L10.2668 8.7644L11.5745 12.9726C11.7984 13.6932 11.0096 14.2924 10.4234 13.8471L7 11.2463L3.5766 13.8471C2.99038 14.2924 2.20164 13.6932 2.42555 12.9726L3.73317 8.7644L0.309769 6.16358C-0.276449 5.71822 0.0248346 4.74866 0.74943 4.74866H4.98099L6.28862 0.540451ZM7 1.41492L5.82824 5.1859C5.7281 5.50816 5.44091 5.72635 5.11685 5.72635H1.32495L4.39267 8.05694C4.65483 8.25611 4.76453 8.60914 4.66439 8.93141L3.49263 12.7024L6.56034 10.3718C6.8225 10.1726 7.1775 10.1726 7.43966 10.3718L10.5074 12.7024L9.33561 8.93141C9.23547 8.60914 9.34517 8.25611 9.60734 8.05694L12.675 5.72635H8.88315C8.5591 5.72635 8.2719 5.50816 8.17176 5.1859L7 1.41492Z" fill="currentColor"/>
</svg>
