<svg width="12" height="13" viewBox="0 0 12 13" fill="none" xmlns="http://www.w3.org/2000/svg">
<path d="M1 11.5V1.5625H6V0.5H1C0.447715 0.5 0 0.947715 0 1.5V11.5C0 12.0523 0.447715 12.5 1 12.5H11C11.5523 12.5 12 12.0523 12 11.5V6.5H11V11.5H1Z" fill="currentColor"/>
<path d="M7 1.21429C7 0.819797 7.3198 0.5 7.71429 0.5H12L12 1.92857L7.71429 1.92857C7.3198 1.92857 7 1.60878 7 1.21429Z" fill="currentColor"/>
<path d="M10.5714 0.500001L12 0.5L12 4.78571C12 5.1802 11.6802 5.5 11.2857 5.5C10.8912 5.5 10.5714 5.1802 10.5714 4.78571L10.5714 0.500001Z" fill="currentColor"/>
<path d="M7.50505 3.8876L10.5355 0.857144L11.5457 1.8673L8.5152 4.89775C8.23625 5.1767 7.78399 5.1767 7.50505 4.89775C7.2261 4.61881 7.2261 4.16655 7.50505 3.8876Z" fill="currentColor"/>
</svg>
