<svg width="14" height="14" viewBox="0 0 14 14" fill="none" xmlns="http://www.w3.org/2000/svg">
<path d="M9.87401 1.13729L13.3076 4.44662C13.4253 4.5598 13.4742 4.72071 13.4381 4.8771C13.4029 5.03316 13.2888 5.15989 13.1329 5.21567C12.6057 5.40495 12.0145 5.45138 11.4501 5.34981L8.50534 8.57144C8.76328 9.27277 8.79206 10.0167 8.58664 10.7335C8.42103 11.312 8.16141 11.6828 8.1109 11.7511C8.02692 11.864 7.89778 11.9346 7.75526 11.9459C7.74188 11.9469 7.72816 11.9475 7.71478 11.9475C7.58698 11.9475 7.46386 11.8988 7.37219 11.8105L5.0159 9.53944L1.51376 12.9149C1.45521 12.9716 1.37792 13 1.30098 13C1.22403 13 1.14708 12.9716 1.0882 12.9149C0.970434 12.8014 0.970768 12.6176 1.0882 12.5044L4.59001 9.12896L2.23372 6.85792C2.13235 6.76054 2.08116 6.62543 2.09321 6.48807C2.10458 6.35135 2.17819 6.22688 2.29428 6.14659C2.35617 6.10371 3.78239 5.14441 5.59402 5.76513L8.93658 2.9269C8.83153 2.38325 8.87938 1.8138 9.07543 1.30529C9.1333 1.15503 9.26512 1.04475 9.42738 1.01089C9.58931 0.97671 9.75659 1.02411 9.87401 1.13729Z" fill="currentColor" stroke="currentColor"/>
</svg>
