<svg width="17" height="14" viewBox="0 0 17 14" fill="none" xmlns="http://www.w3.org/2000/svg">
<path d="M5.48372 5.80123C5.24202 5.5606 4.84433 5.55495 4.59625 5.7901L3.81234 6.53125C3.79577 6.55545 3.75373 6.59238 3.7055 6.63248C3.85384 4.31576 5.62478 2.41458 8.02093 2.06017C9.87159 1.78615 11.7246 2.51705 12.8569 3.96754C12.981 4.12601 13.184 4.20605 13.3871 4.17584C13.4781 4.16241 13.5655 4.12654 13.6395 4.07213C13.8028 3.95164 13.8852 3.75482 13.8547 3.55783C13.8407 3.46896 13.8035 3.38434 13.7475 3.31243C12.3678 1.54481 10.1091 0.6542 7.85275 0.988113C4.9073 1.42414 2.73121 3.77567 2.58178 6.63213C2.56576 6.61534 2.55211 6.59962 2.54538 6.58725L1.70905 5.75424C1.46716 5.51396 1.06947 5.50848 0.821571 5.74293C0.573129 5.97791 0.568215 6.36376 0.810105 6.6051L2.67296 8.46052C2.79964 8.58685 2.96927 8.64833 3.13763 8.64426C3.29034 8.64055 3.44195 8.58331 3.56026 8.4713L5.47207 6.66305C5.72052 6.42842 5.72561 6.04239 5.48372 5.80123Z" fill="#293142"/>
<path d="M16.6683 7.42422L14.8058 5.56862C14.6791 5.44265 14.5093 5.38099 14.341 5.38488C14.1883 5.38841 14.0363 5.44618 13.9183 5.55784L12.0062 7.3661C11.7579 7.60125 11.7526 7.98728 11.9947 8.22826C12.2366 8.46854 12.6341 8.47472 12.882 8.23939L13.6664 7.49807C13.6817 7.47563 13.7192 7.44207 13.7631 7.40549C13.5978 9.70508 11.8327 11.5874 9.44967 11.9402C7.59883 12.2138 5.7458 11.4831 4.61388 10.0328C4.48976 9.87416 4.28682 9.7943 4.08388 9.82433C3.99287 9.83758 3.90533 9.87345 3.83125 9.92804C3.6678 10.0484 3.58535 10.2455 3.6163 10.4425C3.63031 10.531 3.66744 10.6158 3.72332 10.6877C5.10312 12.4554 7.36167 13.346 9.61821 13.0119C12.5564 12.5769 14.7288 10.2353 14.8872 7.388C14.9079 7.40832 14.9252 7.42776 14.9332 7.44242L15.7696 8.27544C16.0116 8.51571 16.4091 8.52119 16.6567 8.28674C16.9055 8.05159 16.9104 7.66573 16.6683 7.42422Z" fill="#293142"/>
</svg>
