<svg width="14" height="15" viewBox="0 0 14 15" fill="none" xmlns="http://www.w3.org/2000/svg">
<path d="M10.6515 3.18193L9.92786 4.11157C11.4877 5.32531 12.2658 7.29033 11.9587 9.24033C11.7337 10.6712 10.9649 11.9288 9.79394 12.7818C8.62262 13.6342 7.18981 13.9807 5.75893 13.7546C2.80513 13.2895 0.779803 10.5081 1.24412 7.55407C1.46908 6.12304 2.23816 4.86533 3.40925 4.01264C4.4317 3.26832 5.65349 2.91084 6.89944 2.98175L5.88108 4.05011L6.63655 4.77104L8.24408 3.08339L8.24447 3.08401L8.96463 2.32777L8.20971 1.60761L8.20932 1.60784L6.52229 0L5.80158 0.756236L6.90083 1.80323C5.40655 1.73255 3.94293 2.16722 2.71603 3.06055C1.29064 4.09841 0.354735 5.62915 0.080697 7.37123C-0.484564 10.9666 1.98038 14.3525 5.57577 14.9183C5.92327 14.9731 6.27062 15 6.61572 15C8.00062 15 9.34627 14.5647 10.4872 13.7339C11.9127 12.6958 12.8485 11.1651 13.1225 9.42341C13.4963 7.05043 12.5494 4.65872 10.6515 3.18193Z" fill="currentColor"/>
<path d="M3.75 9.27671V8.65983H4.509L4.33966 8.06715H3.75V7.45028H4.16427L3.92841 6.61266H4.91722L5.10168 7.45028H6.10259L6.26588 6.61266H7.24865L7.41799 7.45028H8.45821L8.64569 6.61266H9.59217L9.35631 7.45028H9.76756V8.06715H9.18092L9.0146 8.65983H9.76756V9.27671H8.84224L8.33725 11.0699H7.44823L7.08838 9.27671H6.41708L6.05723 11.0699H5.1924L4.68438 9.27671H3.75ZM7.66595 8.65983H8.18606L8.31911 8.06715H7.54499L7.66595 8.65983ZM5.36778 8.65983H5.86975L5.98466 8.06715H5.23776L5.36778 8.65983ZM6.54106 8.65983H6.9644L6.84647 8.06715H6.65899L6.54106 8.65983ZM7.91391 9.87544L8.04696 9.27671H7.78993L7.91391 9.87544ZM5.63389 9.87544L5.7488 9.27671H5.50084L5.63389 9.87544Z" fill="currentColor"/>
</svg>
