<svg width="15" height="17" viewBox="0 0 15 17" fill="none" xmlns="http://www.w3.org/2000/svg">
<path fill-rule="evenodd" clip-rule="evenodd" d="M6.5 12.501C9.53757 12.501 12 10.0386 12 7.00104C12 3.96347 9.53757 1.50104 6.5 1.50104C3.46243 1.50104 1 3.96347 1 7.00104C1 10.0386 3.46243 12.501 6.5 12.501ZM6.5 13.501C10.0899 13.501 13 10.5909 13 7.00104C13 3.41119 10.0899 0.501038 6.5 0.501038C2.91015 0.501038 0 3.41119 0 7.00104C0 10.5909 2.91015 13.501 6.5 13.501Z" fill="currentColor"/>
<path fill-rule="evenodd" clip-rule="evenodd" d="M10.1464 11.6475C10.3417 11.4522 10.6583 11.4522 10.8536 11.6475L14.8536 15.6475C15.0488 15.8427 15.0488 16.1593 14.8536 16.3546C14.6583 16.5499 14.3417 16.5499 14.1464 16.3546L10.1464 12.3546C9.95118 12.1593 9.95118 11.8427 10.1464 11.6475Z" fill="currentColor"/>
</svg>
