<svg width="17" height="16" viewBox="0 0 17 16" fill="none" xmlns="http://www.w3.org/2000/svg">
    <path
        d="M16.15 7.837C16.15 3.1705 12.529 0 8.5 0C4.5135 0 0.85 3.1025 0.85 7.888C0.34 8.177 0 8.721 0 9.35V11.05C0 11.985 0.765 12.75 1.7 12.75H2.55V7.565C2.55 4.2755 5.2105 1.615 8.5 1.615C11.7895 1.615 14.45 4.2755 14.45 7.565V13.6H7.65V15.3H14.45C15.385 15.3 16.15 14.535 16.15 13.6V12.563C16.6515 12.2995 17 11.781 17 11.169V9.214C17 8.619 16.6515 8.1005 16.15 7.837Z"
        fill="currentColor" />
    <path
        d="M5.94998 9.34996C6.41942 9.34996 6.79998 8.96941 6.79998 8.49996C6.79998 8.03052 6.41942 7.64996 5.94998 7.64996C5.48053 7.64996 5.09998 8.03052 5.09998 8.49996C5.09998 8.96941 5.48053 9.34996 5.94998 9.34996Z"
        fill="currentColor" />
    <path
        d="M11.05 9.34996C11.5195 9.34996 11.9 8.96941 11.9 8.49996C11.9 8.03052 11.5195 7.64996 11.05 7.64996C10.5806 7.64996 10.2 8.03052 10.2 8.49996C10.2 8.96941 10.5806 9.34996 11.05 9.34996Z"
        fill="currentColor" />
    <path
        d="M13.6001 6.82549C13.1921 4.40299 11.0841 2.54999 8.54257 2.54999C5.96707 2.54999 3.19607 4.68349 3.41707 8.03249C5.51657 7.17399 7.09757 5.30399 7.54807 3.02599C8.66157 5.26149 10.9481 6.79999 13.6001 6.82549Z"
        fill="currentColor" />
</svg>