<svg width="16" height="16" viewBox="0 0 16 16" fill="none" xmlns="http://www.w3.org/2000/svg">
<path d="M12.5 3C13.3287 3 14 3.61531 14 4.375V12.625C14 13.3847 13.3287 14 12.5 14H3.5C2.67125 14 2 13.3847 2 12.625V4.375C2 3.61531 2.67125 3 3.5 3H12.5Z" fill="#A1B1CA"/>
<path d="M10.4706 7.49969C11.2503 7.49969 11.8824 6.88109 11.8824 6.11801C11.8824 5.35493 11.2503 4.73633 10.4706 4.73633C9.69089 4.73633 9.05882 5.35493 9.05882 6.11801C9.05882 6.88109 9.69089 7.49969 10.4706 7.49969Z" fill="white"/>
<path d="M6.72759 8.73304L3.51224 12.3109C3.48613 12.3399 3.50462 12.3896 3.54154 12.3896H9.97226C10.0092 12.3896 10.0277 12.3399 10.0016 12.3109L6.7862 8.73304C6.77002 8.71503 6.74378 8.71503 6.72759 8.73304Z" fill="white"/>
<path d="M10.043 9.65533L7.6565 12.3109C7.63039 12.3399 7.64888 12.3896 7.6858 12.3896H12.4588C12.4957 12.3896 12.5142 12.3399 12.4881 12.3109L10.1016 9.65533C10.0854 9.63732 10.0592 9.63732 10.043 9.65533Z" fill="white"/>
<path fill-rule="evenodd" clip-rule="evenodd" d="M6.75672 9.5273L4.73412 11.7779H7.39218L8.08575 11.0062L6.75672 9.5273ZM8.82885 10.1793L7.12248 8.28054C6.91555 8.05029 6.5979 8.05028 6.39097 8.28054L3.17561 11.8584C2.99309 12.0615 2.95702 12.3702 3.04802 12.6146C3.13577 12.8504 3.32832 13.0013 3.54137 13.0013H12.4586C12.6717 13.0013 12.8642 12.8504 12.952 12.6146C13.043 12.3702 13.0069 12.0615 12.8244 11.8584L10.4379 9.20284C10.231 8.97258 9.9133 8.97258 9.70637 9.20284L8.82885 10.1793ZM10.2655 11.7779L9.57195 11.0062L10.0721 10.4496L11.2659 11.7779H10.2655Z" fill="white"/>
</svg>
