<svg width="13" height="15" viewBox="0 0 13 15" fill="none" xmlns="http://www.w3.org/2000/svg">
<path d="M9.5944 8.00008C7.7544 8.00008 6.26107 9.49341 6.26107 11.3334C6.26107 13.1734 7.7544 14.6667 9.5944 14.6667C11.4344 14.6667 12.9277 13.1734 12.9277 11.3334C12.9277 9.49341 11.4344 8.00008 9.5944 8.00008ZM10.6944 12.9001L9.26107 11.4667V9.33342H9.92773V11.1934L11.1611 12.4267L10.6944 12.9001ZM10.2611 2.00008H8.14107C7.86107 1.22675 7.12773 0.666748 6.26107 0.666748C5.3944 0.666748 4.66107 1.22675 4.38107 2.00008H2.26107C1.52773 2.00008 0.927734 2.60008 0.927734 3.33341V13.3334C0.927734 14.0667 1.52773 14.6667 2.26107 14.6667H6.3344C5.94107 14.2867 5.62107 13.8334 5.38773 13.3334H2.26107V3.33341H3.5944V5.33342H8.92773V3.33341H10.2611V6.72008C10.7344 6.78675 11.1811 6.92675 11.5944 7.12008V3.33341C11.5944 2.60008 10.9944 2.00008 10.2611 2.00008ZM6.26107 3.33341C5.8944 3.33341 5.5944 3.03341 5.5944 2.66675C5.5944 2.30008 5.8944 2.00008 6.26107 2.00008C6.62773 2.00008 6.92773 2.30008 6.92773 2.66675C6.92773 3.03341 6.62773 3.33341 6.26107 3.33341Z" fill="#293142"/>
</svg>
