<svg width="12" height="14" viewBox="0 0 12 14" fill="none" xmlns="http://www.w3.org/2000/svg">
<path d="M10.6667 1.33333H7.88C7.6 0.56 6.86667 0 6 0C5.13333 0 4.4 0.56 4.12 1.33333H1.33333C0.6 1.33333 0 1.93333 0 2.66667V12C0 12.7333 0.6 13.3333 1.33333 13.3333H10.6667C11.4 13.3333 12 12.7333 12 12V2.66667C12 1.93333 11.4 1.33333 10.6667 1.33333ZM6 1.33333C6.36667 1.33333 6.66667 1.63333 6.66667 2C6.66667 2.36667 6.36667 2.66667 6 2.66667C5.63333 2.66667 5.33333 2.36667 5.33333 2C5.33333 1.63333 5.63333 1.33333 6 1.33333ZM7.33333 10.6667H2.66667V9.33333H7.33333V10.6667ZM9.33333 8H2.66667V6.66667H9.33333V8ZM9.33333 5.33333H2.66667V4H9.33333V5.33333Z" fill="#D7E3F1"/>
</svg>
