<svg width="12" height="13" viewBox="0 0 12 13" fill="none" xmlns="http://www.w3.org/2000/svg">
<path d="M10.5901 6.7733C10.6133 6.58044 10.6287 6.37986 10.6287 6.17157C10.6287 5.96328 10.6133 5.76271 10.5824 5.56985L11.8861 4.55154C12.0019 4.45896 12.0327 4.28924 11.9633 4.1581L10.729 2.02119C10.6518 1.88233 10.4898 1.83604 10.351 1.88233L8.81578 2.49949C8.49177 2.25262 8.15234 2.05205 7.77433 1.89776L7.54289 0.262292C7.51975 0.108002 7.3886 0 7.23432 0H4.76569C4.6114 0 4.48797 0.108002 4.46482 0.262292L4.23339 1.89776C3.85538 2.05205 3.50823 2.26034 3.19193 2.49949L1.65676 1.88233C1.51789 1.82833 1.35589 1.88233 1.27875 2.02119L0.0444317 4.1581C-0.0327129 4.29696 -0.00185495 4.45896 0.121577 4.55154L1.42532 5.56985C1.39446 5.76271 1.37132 5.971 1.37132 6.17157C1.37132 6.37215 1.38675 6.58044 1.41761 6.7733L0.113862 7.79161C-0.00185514 7.88419 -0.0327129 8.0539 0.0367173 8.18505L1.27103 10.322C1.34818 10.4608 1.51018 10.5071 1.64904 10.4608L3.18422 9.84366C3.50823 10.0905 3.84766 10.2911 4.22567 10.4454L4.45711 12.0809C4.48797 12.2351 4.6114 12.3431 4.76569 12.3431H7.23432C7.3886 12.3431 7.51975 12.2351 7.53518 12.0809L7.76661 10.4454C8.14462 10.2911 8.49177 10.0828 8.80807 9.84366L10.3432 10.4608C10.4821 10.5148 10.6441 10.4608 10.7213 10.322L11.9556 8.18505C12.0327 8.04619 12.0019 7.88419 11.8784 7.79161L10.5901 6.7733ZM6 8.48591C4.72711 8.48591 3.68566 7.44446 3.68566 6.17157C3.68566 4.89869 4.72711 3.85723 6 3.85723C7.27289 3.85723 8.31434 4.89869 8.31434 6.17157C8.31434 7.44446 7.27289 8.48591 6 8.48591Z" fill="#DEE2EC"/>
</svg>
