<svg width="12" height="14" viewBox="0 0 12 14" fill="none" xmlns="http://www.w3.org/2000/svg">
<path d="M9.02 6.70667L8.31333 6L5.06 9.25333L3.64667 7.84L2.94 8.54667L5.06 10.6667L9.02 6.70667ZM10.6667 1.33333H10V0H8.66667V1.33333H3.33333V0H2V1.33333H1.33333C0.593333 1.33333 0.00666666 1.93333 0.00666666 2.66667L0 12C0 12.7333 0.593333 13.3333 1.33333 13.3333H10.6667C11.4 13.3333 12 12.7333 12 12V2.66667C12 1.93333 11.4 1.33333 10.6667 1.33333ZM10.6667 12H1.33333V4.66667H10.6667V12Z" fill="#D7E3F1"/>
</svg>
