<svg width="14" height="14" viewBox="0 0 14 14" fill="none" xmlns="http://www.w3.org/2000/svg">
<path d="M10.8889 6.22222C11.1533 6.22222 11.41 6.25333 11.6667 6.29222V2.54333L5.83333 0L0 2.54333V6.36222C0 9.89333 2.48889 13.1989 5.83333 14C6.26111 13.8989 6.67333 13.7511 7.07778 13.5722C6.54111 12.81 6.22222 11.8844 6.22222 10.8889C6.22222 8.31444 8.31444 6.22222 10.8889 6.22222Z" fill="white"/>
<path d="M10.8889 7.77777C9.16999 7.77777 7.77777 9.16999 7.77777 10.8889C7.77777 12.6078 9.16999 14 10.8889 14C12.6078 14 14 12.6078 14 10.8889C14 9.16999 12.6078 7.77777 10.8889 7.77777ZM10.8889 8.8511C11.3711 8.8511 11.76 9.24777 11.76 9.72222C11.76 10.1967 11.3633 10.5933 10.8889 10.5933C10.4144 10.5933 10.0178 10.1967 10.0178 9.72222C10.0178 9.24777 10.4067 8.8511 10.8889 8.8511ZM10.8889 13.0278C10.1655 13.0278 9.53555 12.67 9.14666 12.1178C9.18555 11.5578 10.3211 11.2778 10.8889 11.2778C11.4567 11.2778 12.5922 11.5578 12.6311 12.1178C12.2422 12.67 11.6122 13.0278 10.8889 13.0278Z" fill="white"/>
</svg>
