<svg width="23" height="23" viewBox="0 0 23 23" fill="none" xmlns="http://www.w3.org/2000/svg">
<g clip-path="url(#clip0_1068_7833)">
<rect x="7" y="6.31372" width="9" height="9" fill="white"/>
<path fill-rule="evenodd" clip-rule="evenodd" d="M5.65687 16.9706C8.78106 20.0948 13.8464 20.0948 16.9706 16.9706C20.0948 13.8464 20.0948 8.78105 16.9706 5.65685C13.8464 2.53266 8.78106 2.53266 5.65687 5.65685C2.53267 8.78105 2.53267 13.8464 5.65687 16.9706ZM10.3709 11.3137L8.01389 13.6707L8.9567 14.6135L11.3137 12.2565L13.6707 14.6135L14.6136 13.6707L12.2565 11.3137L14.6136 8.95669L13.6707 8.01388L11.3137 10.3709L8.9567 8.01388L8.01389 8.95669L10.3709 11.3137Z" fill="#293142"/>
</g>
<defs>
<clipPath id="clip0_1068_7833">
<rect width="16" height="16" fill="white" transform="translate(11.3137) rotate(45)"/>
</clipPath>
</defs>
</svg>
