<svg width="16" height="16" viewBox="0 0 16 16" fill="none" xmlns="http://www.w3.org/2000/svg">
<path d="M1 3C1 1.89543 1.89543 1 3 1H13C14.1046 1 15 1.89543 15 3V4H1V3Z" fill="#293142"/>
<path fill-rule="evenodd" clip-rule="evenodd" d="M1 4.5H15V13C15 14.1046 14.1046 15 13 15H3C1.89543 15 1 14.1046 1 13V4.5ZM3 6H4.75V7.75H3V6ZM8.75 6H7V7.75H8.75V6ZM11 6H12.75V7.75H11V6ZM4.75 9H3V10.75H4.75V9ZM7 9H8.75V10.75H7V9ZM12.75 9H11V10.75H12.75V9ZM3 12H4.75V13.75H3V12ZM8.75 12H7V13.75H8.75V12Z" fill="#293142"/>
</svg>
