<svg width="16" height="16" viewBox="0 0 16 16" fill="none" xmlns="http://www.w3.org/2000/svg">
<path d="M1.28251 1.9896L1.98962 1.28249L14.7175 14.0104L14.0104 14.7175L1.28251 1.9896Z" fill="#293142"/>
<path d="M1.98962 14.7175L1.28251 14.0104L14.0104 1.28249L14.7175 1.9896L1.98962 14.7175Z" fill="#293142"/>
<path fill-rule="evenodd" clip-rule="evenodd" d="M14.0104 0.92894L15.0711 1.9896L9.06068 8.00001L15.0711 14.0104L14.0104 15.0711L8.00002 9.06067L1.98962 15.0711L0.928955 14.0104L6.93936 8.00001L0.928955 1.9896L1.98962 0.92894L8.00002 6.93935L14.0104 0.92894ZM7.64647 7.2929L1.98962 1.63605L1.63606 1.9896L7.29292 7.64645L7.64647 7.2929ZM7.64647 8.00001L8.00002 7.64645L8.35358 8.00001L8.00002 8.35356L7.64647 8.00001ZM7.29292 8.35356L1.63606 14.0104L1.98962 14.364L7.64647 8.70711L7.29292 8.35356ZM8.35358 8.70711L14.0104 14.364L14.364 14.0104L8.70713 8.35356L8.35358 8.70711ZM8.70713 7.64645L8.35358 7.2929L14.0104 1.63605L14.364 1.9896L8.70713 7.64645Z" fill="#293142"/>
</svg>
