<svg width="16" height="16" viewBox="0 0 16 16" fill="none" xmlns="http://www.w3.org/2000/svg">
<g clip-path="url(#clip0_1068_7806)">
<path d="M7.59994 3.2C6.71628 3.2 5.99994 2.48366 5.99994 1.6C5.99994 0.716344 6.71628 -3.86258e-08 7.59994 0C8.4836 3.86258e-08 9.19994 0.716345 9.19994 1.6C9.19994 2.48366 8.4836 3.2 7.59994 3.2Z" fill="#293142"/>
<path d="M7.59994 9.6C6.71628 9.6 5.99994 8.88365 5.99994 8C5.99994 7.11634 6.71628 6.4 7.59994 6.4C8.48359 6.4 9.19994 7.11634 9.19994 8C9.19994 8.88366 8.48359 9.6 7.59994 9.6Z" fill="#293142"/>
<path d="M7.59994 16C6.71628 16 5.99994 15.2837 5.99994 14.4C5.99994 13.5163 6.71628 12.8 7.59994 12.8C8.48359 12.8 9.19994 13.5163 9.19994 14.4C9.19994 15.2837 8.48359 16 7.59994 16Z" fill="#293142"/>
</g>
<defs>
<clipPath id="clip0_1068_7806">
<rect width="16" height="16" fill="white"/>
</clipPath>
</defs>
</svg>
