<svg width="16" height="16" viewBox="0 0 16 16" fill="none" xmlns="http://www.w3.org/2000/svg">
<path fill-rule="evenodd" clip-rule="evenodd" d="M7.5 2C6.94772 2 6.5 2.44772 6.5 3H4C3.72386 3 3.5 3.22386 3.5 3.5C3.5 3.77614 3.72386 4 4 4H12C12.2761 4 12.5 3.77614 12.5 3.5C12.5 3.22386 12.2761 3 12 3H9.5C9.5 2.44772 9.05229 2 8.5 2H7.5ZM12.5 5H3.5V13C3.5 13.5523 4.17157 14 5 14H11C11.8284 14 12.5 13.5523 12.5 13V5ZM5.5 7.5C5.5 7.22386 5.72386 7 6 7C6.27614 7 6.5 7.22386 6.5 7.5V11.5C6.5 11.7761 6.27614 12 6 12C5.72386 12 5.5 11.7761 5.5 11.5V7.5ZM7.5 7.5C7.5 7.22386 7.72386 7 8 7C8.27614 7 8.5 7.22386 8.5 7.5V11.5C8.5 11.7761 8.27614 12 8 12C7.72386 12 7.5 11.7761 7.5 11.5V7.5ZM10 7C9.72386 7 9.5 7.22386 9.5 7.5V11.5C9.5 11.7761 9.72386 12 10 12C10.2761 12 10.5 11.7761 10.5 11.5V7.5C10.5 7.22386 10.2761 7 10 7Z" fill="#293142"/>
</svg>
