<svg width="16" height="16" viewBox="0 0 16 16" fill="none" xmlns="http://www.w3.org/2000/svg">
<path d="M8.85714 2.73469C8.85714 2.32893 9.18608 2 9.59184 2L14 2V3.46939L9.59184 3.46939C9.18608 3.46939 8.85714 3.14045 8.85714 2.73469Z" fill="#293142"/>
<path d="M12.5306 2L14 2L14 6.40816C14 6.81392 13.6711 7.14286 13.2653 7.14286C12.8595 7.14286 12.5306 6.81392 12.5306 6.40816L12.5306 2Z" fill="#293142"/>
<path d="M9.37662 5.48439L12.4937 2.36735L13.5327 3.40636L10.4156 6.5234C10.1287 6.81032 9.66354 6.81032 9.37662 6.5234C9.0897 6.23649 9.0897 5.77131 9.37662 5.48439Z" fill="#293142"/>
<path fill-rule="evenodd" clip-rule="evenodd" d="M3 10V13H6V10H3ZM2.5 9C2.22386 9 2 9.22386 2 9.5V13.5C2 13.7761 2.22386 14 2.5 14H6.5C6.77614 14 7 13.7761 7 13.5V9.5C7 9.22386 6.77614 9 6.5 9H2.5Z" fill="#293142"/>
<path d="M8 2H4.5C4.22386 2 4 2.22386 4 2.5V11.5C4 11.7761 4.22386 12 4.5 12H13.5C13.7761 12 14 11.7761 14 11.5V8H13V11H5V3H8V2Z" fill="#293142"/>
</svg>
