<svg width="16" height="16" viewBox="0 0 16 16" fill="none" xmlns="http://www.w3.org/2000/svg">
<path d="M6 8.33357V10H7.66643L12.5813 5.08511L10.9149 3.41868L6 8.33357ZM13.87 3.79641C14.0433 3.6231 14.0433 3.34314 13.87 3.16983L12.8302 2.12998C12.6569 1.95667 12.3769 1.95667 12.2036 2.12998L11.3904 2.9432L13.0568 4.60963L13.87 3.79641Z" fill="#293142"/>
<path d="M3 13V3H9V2H3C2.44772 2 2 2.44772 2 3V13C2 13.5523 2.44772 14 3 14H13C13.5523 14 14 13.5523 14 13V7H13V13H3Z" fill="#293142"/>
</svg>
