<svg width="16" height="16" viewBox="0 0 16 16" fill="none" xmlns="http://www.w3.org/2000/svg">
<path fill-rule="evenodd" clip-rule="evenodd" d="M8 15C11.866 15 15 11.866 15 8C15 4.13401 11.866 1 8 1C4.13401 1 1 4.13401 1 8C1 11.866 4.13401 15 8 15ZM8 16C12.4183 16 16 12.4183 16 8C16 3.58172 12.4183 0 8 0C3.58172 0 0 3.58172 0 8C0 12.4183 3.58172 16 8 16Z" fill="#2C62F6"/>
<path d="M7 12C7 11.4477 7.44772 11 8 11C8.55228 11 9 11.4477 9 12C9 12.5523 8.55228 13 8 13C7.44772 13 7 12.5523 7 12Z" fill="#2C62F6"/>
<path d="M7.45029 8.80664C7.31064 9.14095 7.24081 9.58952 7.24081 10.1523H8.68173C8.6902 9.54297 8.83408 9.07959 9.11337 8.76221L9.89413 7.99414C10.5374 7.32552 10.859 6.64632 10.859 5.95654C10.859 5.18213 10.6199 4.5791 10.1417 4.14746C9.66773 3.71582 9.00546 3.5 8.15488 3.5C7.32968 3.5 6.66529 3.71794 6.16171 4.15381C5.66236 4.58968 5.40846 5.18213 5.39999 5.93115H6.94247C6.94247 5.57992 7.0525 5.30273 7.27255 5.09961C7.49684 4.89225 7.79094 4.78857 8.15488 4.78857C8.53574 4.78857 8.8235 4.89437 9.01816 5.10596C9.21705 5.31331 9.3165 5.61589 9.3165 6.01367C9.3165 6.31413 9.23186 6.59342 9.06259 6.85156C8.95257 7.02083 8.6902 7.30648 8.27548 7.7085C7.865 8.10628 7.58994 8.47233 7.45029 8.80664Z" fill="#2C62F6"/>
</svg>
