<svg width="24" height="24" viewBox="0 0 24 24" fill="none" xmlns="http://www.w3.org/2000/svg">
<path d="M19 17C19 18.1046 18.1046 19 17 19C15.8954 19 15 18.1046 15 17C15 15.8954 15.8954 15 17 15C18.1046 15 19 15.8954 19 17Z" fill="#2C62F6"/>
<path fill-rule="evenodd" clip-rule="evenodd" d="M16.952 14.0004V5L9.24018 5V8C9.24018 8.82843 8.53634 9.5 7.66812 9.5H5.04804L5.04804 17H14C14 17.3506 14.0602 17.6872 14.1707 18H5.04804C4.46922 18 4 17.5523 4 17V8.41421C4 8.149 4.11042 7.89464 4.30696 7.70711L7.88518 4.29289C8.08172 4.10536 8.34829 4 8.62625 4H16.952C17.5308 4 18 4.44772 18 5V14.1707C17.6872 14.0602 17.3506 14 17 14C16.984 14 16.9679 14.0001 16.952 14.0004ZM5.04804 8.5H7.66812C7.95753 8.5 8.19214 8.27614 8.19214 8V5.41421L5.04804 8.41421V8.5Z" fill="black"/>
</svg>
