<svg width="24" height="24" viewBox="0 0 24 24" fill="none" xmlns="http://www.w3.org/2000/svg">
<path fill-rule="evenodd" clip-rule="evenodd" d="M17.952 6L17.952 18L6.04804 18L6.04804 9.41421L9.62625 6L17.952 6ZM19 6L19 18C19 18.5523 18.5308 19 17.952 19L6.04804 19C5.46922 19 5 18.5523 5 18L5 9.41421C5 9.149 5.11042 8.89464 5.30696 8.70711L8.88518 5.29289C9.08172 5.10536 9.3483 5 9.62625 5L17.952 5C18.5308 5 19 5.44772 19 6Z" fill="black"/>
<path fill-rule="evenodd" clip-rule="evenodd" d="M9.19214 9C9.19214 9.27614 8.95753 9.5 8.66812 9.5L5.52402 9.5L5.52402 10.5L8.66812 10.5C9.53634 10.5 10.2402 9.82843 10.2402 9L10.2402 6L9.19214 6L9.19214 9Z" fill="black"/>
</svg>
