<svg width="16" height="16" viewBox="0 0 16 16" fill="none" xmlns="http://www.w3.org/2000/svg">
<g clip-path="url(#clip0_1068_7807)">
<path d="M12.8 7.4C12.8 6.51635 13.5163 5.8 14.4 5.8C15.2837 5.8 16 6.51635 16 7.4C16 8.28366 15.2837 9 14.4 9C13.5163 9 12.8 8.28366 12.8 7.4Z" fill="#293142"/>
<path d="M6.4 7.4C6.4 6.51635 7.11634 5.8 8 5.8C8.88366 5.8 9.6 6.51635 9.6 7.4C9.6 8.28366 8.88366 9 8 9C7.11634 9 6.4 8.28366 6.4 7.4Z" fill="#293142"/>
<path d="M0 7.4C7.72516e-08 6.51635 0.716344 5.8 1.6 5.8C2.48366 5.8 3.2 6.51635 3.2 7.4C3.2 8.28366 2.48366 9 1.6 9C0.716344 9 -7.72516e-08 8.28366 0 7.4Z" fill="#293142"/>
</g>
<defs>
<clipPath id="clip0_1068_7807">
<rect width="16" height="16" fill="white"/>
</clipPath>
</defs>
</svg>
