<svg width="16" height="16" viewBox="0 0 16 16" fill="none" xmlns="http://www.w3.org/2000/svg">
<path fill-rule="evenodd" clip-rule="evenodd" d="M3.0085 4.869C3.00289 4.91187 3 4.9556 3 5V11C3 11.5523 3.44772 12 4 12H12C12.5523 12 13 11.5523 13 11V5C13 4.88901 12.9819 4.78224 12.9485 4.68248L8.13439 8.41687C7.96979 8.54456 7.7468 8.54456 7.5822 8.41687L3.0085 4.869ZM12.205 4.02104C12.1389 4.00725 12.0703 4 12 4H4C3.85572 4 3.71859 4.03055 3.5947 4.08554L7.85829 7.39287L12.205 4.02104Z" fill="#293142"/>
</svg>
