<svg width="16" height="16" viewBox="0 0 16 16" fill="none" xmlns="http://www.w3.org/2000/svg">
<path fill-rule="evenodd" clip-rule="evenodd" d="M8 15C11.866 15 15 11.866 15 8C15 4.13401 11.866 1 8 1C4.13401 1 1 4.13401 1 8C1 11.866 4.13401 15 8 15ZM8 16C12.4183 16 16 12.4183 16 8C16 3.58172 12.4183 0 8 0C3.58172 0 0 3.58172 0 8C0 12.4183 3.58172 16 8 16Z" fill="#2C62F6"/>
<path d="M7 4C7 3.44772 7.44772 3 8 3C8.55228 3 9 3.44772 9 4V9C9 9.55228 8.55228 10 8 10C7.44772 10 7 9.55228 7 9V4Z" fill="#2C62F6"/>
<path d="M7 12C7 11.4477 7.44772 11 8 11C8.55228 11 9 11.4477 9 12C9 12.5523 8.55228 13 8 13C7.44772 13 7 12.5523 7 12Z" fill="#2C62F6"/>
</svg>
