<svg width="16" height="16" viewBox="0 0 16 16" fill="none" xmlns="http://www.w3.org/2000/svg">
<path d="M10.874 2.13729L14.3076 5.44662C14.4253 5.5598 14.4742 5.72071 14.4381 5.8771C14.4029 6.03316 14.2888 6.15989 14.1329 6.21567C13.6057 6.40495 13.0145 6.45138 12.4501 6.34981L9.50534 9.57144C9.76328 10.2728 9.79206 11.0167 9.58664 11.7335C9.42103 12.312 9.16141 12.6828 9.1109 12.7511C9.02692 12.864 8.89778 12.9346 8.75526 12.9459C8.74188 12.9469 8.72816 12.9475 8.71478 12.9475C8.58698 12.9475 8.46386 12.8988 8.37219 12.8105L6.0159 10.5394L2.51376 13.9149C2.45521 13.9716 2.37792 14 2.30098 14C2.22403 14 2.14708 13.9716 2.0882 13.9149C1.97043 13.8014 1.97077 13.6176 2.0882 13.5044L5.59001 10.129L3.23372 7.85792C3.13235 7.76054 3.08116 7.62543 3.09321 7.48807C3.10458 7.35135 3.17819 7.22688 3.29428 7.14659C3.35617 7.10371 4.78239 6.14441 6.59402 6.76513L9.93658 3.9269C9.83153 3.38325 9.87938 2.8138 10.0754 2.30529C10.1333 2.15503 10.2651 2.04475 10.4274 2.01089C10.5893 1.97671 10.7566 2.02411 10.874 2.13729Z" fill="#293142" stroke="#293142"/>
</svg>
