<svg width="16" height="16" viewBox="0 0 16 16" fill="none" xmlns="http://www.w3.org/2000/svg">
<path d="M3 13V3.0625H8V2H3C2.44772 2 2 2.44772 2 3V13C2 13.5523 2.44772 14 3 14H13C13.5523 14 14 13.5523 14 13V8H13V13H3Z" fill="#293142"/>
<path d="M9 2.71429C9 2.3198 9.3198 2 9.71429 2H14L14 3.42857L9.71429 3.42857C9.3198 3.42857 9 3.10878 9 2.71429Z" fill="#293142"/>
<path d="M12.5714 2L14 2L14 6.28571C14 6.6802 13.6802 7 13.2857 7C12.8912 7 12.5714 6.6802 12.5714 6.28571L12.5714 2Z" fill="#293142"/>
<path d="M9.50505 5.3876L12.5355 2.35714L13.5457 3.3673L10.5152 6.39775C10.2363 6.6767 9.78399 6.6767 9.50505 6.39775C9.2261 6.11881 9.2261 5.66655 9.50505 5.3876Z" fill="#293142"/>
</svg>
