<svg width="16" height="16" viewBox="0 0 16 16" fill="none" xmlns="http://www.w3.org/2000/svg">
<path d="M3 13V3.0625H8V2H3C2.44772 2 2 2.44772 2 3V13C2 13.5523 2.44772 14 3 14H13C13.5523 14 14 13.5523 14 13V8H13V13H3Z" fill="#293142"/>
<path d="M14 6.28571C14 6.6802 13.6802 7 13.2857 7L9 7L9 5.57143L13.2857 5.57143C13.6802 5.57143 14 5.89122 14 6.28571Z" fill="#293142"/>
<path d="M10.4286 7L9 7L9 2.71428C9 2.3198 9.3198 2 9.71429 2C10.1088 2 10.4286 2.3198 10.4286 2.71429L10.4286 7Z" fill="#293142"/>
<path d="M13.495 3.6124L10.4645 6.64286L9.45434 5.6327L12.4848 2.60225C12.7637 2.3233 13.216 2.3233 13.495 2.60225C13.7739 2.88119 13.7739 3.33345 13.495 3.6124Z" fill="#293142"/>
</svg>
