<svg width="16" height="16" viewBox="0 0 16 16" fill="none" xmlns="http://www.w3.org/2000/svg">
<path fill-rule="evenodd" clip-rule="evenodd" d="M1 8.23672C1 4.79228 3.79228 2 7.23672 2C9.89719 2 12.1674 3.66564 13.0638 6.00928C13.2057 6.38044 13.3132 6.76853 13.3824 7.16954L14.181 6.37094C14.3684 6.18359 14.6721 6.18359 14.8595 6.37094C15.0468 6.5583 15.0468 6.86206 14.8595 7.04941L13.3329 8.57596C13.1456 8.76331 12.8418 8.76331 12.6545 8.57596L11.1279 7.04941C10.9406 6.86206 10.9406 6.5583 11.1279 6.37094C11.3153 6.18359 11.619 6.18359 11.8064 6.37094L12.3461 6.91062C12.2967 6.71999 12.237 6.53359 12.1676 6.35204C11.4086 4.36751 9.4865 2.9595 7.23672 2.9595C4.32219 2.9595 1.9595 5.32219 1.9595 8.23672C1.9595 11.1513 4.32219 13.514 7.23672 13.514C8.54324 13.514 9.73778 13.0398 10.6595 12.2536C10.8611 12.0816 11.1639 12.1056 11.3358 12.3072C11.5078 12.5088 11.4838 12.8116 11.2822 12.9836C10.1934 13.9123 8.77996 14.4734 7.23672 14.4734C3.79228 14.4734 1 11.6812 1 8.23672Z" fill="#293142"/>
</svg>
