<svg width="16" height="16" viewBox="0 0 16 16" fill="none" xmlns="http://www.w3.org/2000/svg">
<path d="M14 6.40816C14 6.81392 13.6711 7.14286 13.2653 7.14286H8.85714L8.85714 5.67347L13.2653 5.67347C13.6711 5.67347 14 6.0024 14 6.40816Z" fill="#293142"/>
<path d="M10.3265 7.14286L8.85714 7.14286L8.85715 2.73469C8.85715 2.32893 9.18608 2 9.59184 2C9.9976 2 10.3265 2.32893 10.3265 2.73469L10.3265 7.14286Z" fill="#293142"/>
<path d="M13.4805 3.65847L10.3635 6.77551L9.32447 5.7365L12.4415 2.61945C12.7284 2.33254 13.1936 2.33254 13.4805 2.61945C13.7674 2.90637 13.7674 3.37155 13.4805 3.65847Z" fill="#293142"/>
<path d="M2 9.59184C2 9.18608 2.32893 8.85714 2.73469 8.85714H7.14286L7.14286 10.3265L2.73469 10.3265C2.32893 10.3265 2 9.9976 2 9.59184Z" fill="#293142"/>
<path d="M5.67347 8.85714L7.14286 8.85714L7.14286 13.2653C7.14286 13.6711 6.81392 14 6.40816 14C6.0024 14 5.67347 13.6711 5.67347 13.2653L5.67347 8.85714Z" fill="#293142"/>
<path d="M2.51948 12.3415L5.63652 9.22449L6.67553 10.2635L3.55849 13.3805C3.27158 13.6675 2.80639 13.6675 2.51948 13.3805C2.23256 13.0936 2.23256 12.6284 2.51948 12.3415Z" fill="#293142"/>
<path d="M13 9V13H9V14H14V9H13Z" fill="#293142"/>
<path d="M3 7V3H7V2H2V7H3Z" fill="#293142"/>
</svg>
