<svg width="12" height="12" viewBox="0 0 12 12" fill="none" xmlns="http://www.w3.org/2000/svg">
<g clip-path="url(#clip0_1068_7835)">
<path fill-rule="evenodd" clip-rule="evenodd" d="M1.67334 7.48097L0.248297 7.24346C0.105032 7.21965 0 7.09573 0 6.95049V5.04951C0 4.90427 0.105035 4.78034 0.248302 4.75654L1.67335 4.51903C1.73491 4.33693 1.808 4.15893 1.89218 3.98611L1.05353 2.81215C0.969192 2.69397 0.982637 2.53214 1.08532 2.42949L2.42938 1.08532C2.53209 0.982751 2.69386 0.96936 2.81204 1.05364L3.98601 1.89217C4.15889 1.80804 4.33693 1.73491 4.51903 1.67323L4.75642 0.248181C4.78034 0.10495 4.90429 0 5.0495 0H6.9505C7.09571 0 7.21966 0.104948 7.24359 0.248181L7.48097 1.67323C7.66308 1.73491 7.84111 1.80804 8.014 1.89217L9.18796 1.05364C9.30607 0.969103 9.46802 0.982509 9.57062 1.08532L10.9147 2.42949C11.0174 2.53214 11.0308 2.69397 10.9465 2.81215L10.1078 3.98611C10.192 4.15893 10.2651 4.33693 10.3267 4.51903L11.7517 4.75654C11.895 4.78035 12 4.90427 12 5.04951V6.95049C12 7.09573 11.895 7.21966 11.7517 7.24346L10.3267 7.48097C10.2651 7.66307 10.192 7.84107 10.1078 8.01389L10.9465 9.18785C11.0308 9.30603 11.0174 9.46786 10.9147 9.57051L9.57062 10.9147C9.46799 11.0174 9.30609 11.0308 9.18796 10.9464L8.014 10.1078C7.84111 10.192 7.66308 10.2651 7.48097 10.3268L7.24358 11.7518C7.21966 11.8951 7.09571 12 6.9505 12H5.0495C4.90429 12 4.78034 11.8951 4.75641 11.7518L4.51903 10.3268C4.33692 10.2651 4.15889 10.192 3.986 10.1078L2.81203 10.9464C2.69388 11.0307 2.53205 11.0173 2.42938 10.9147L1.08532 9.57051C0.982632 9.46786 0.969187 9.30603 1.05353 9.18785L1.89217 8.01389C1.808 7.84107 1.73491 7.66307 1.67334 7.48097ZM8.57132 6.00014C8.57132 7.4203 7.42006 8.57157 5.9999 8.57157C4.58039 8.56999 3.43005 7.41964 3.42847 6.00014C3.42847 4.57998 4.57973 3.42871 5.9999 3.42871C7.42006 3.42871 8.57132 4.57998 8.57132 6.00014Z" fill="#A1B1CA"/>
</g>
<defs>
<clipPath id="clip0_1068_7835">
<rect width="12" height="12" fill="white"/>
</clipPath>
</defs>
</svg>
