<svg width="16" height="16" viewBox="0 0 16 16" fill="none" xmlns="http://www.w3.org/2000/svg">
<path fill-rule="evenodd" clip-rule="evenodd" d="M5.11556 8.98731L4.16553 8.82898C4.07002 8.8131 4 8.73048 4 8.63366V7.36634C4 7.26952 4.07002 7.1869 4.16553 7.17102L5.11557 7.01269C5.15661 6.89129 5.20534 6.77262 5.26145 6.65741L4.70235 5.87477C4.64613 5.79598 4.65509 5.68809 4.72355 5.61966L5.61959 4.72355C5.68806 4.65517 5.79591 4.64624 5.87469 4.70243L6.65734 5.26145C6.7726 5.20536 6.89128 5.15661 7.01269 5.11549L7.17095 4.16545C7.1869 4.06997 7.26953 4 7.36634 4H8.63366C8.73047 4 8.81311 4.06997 8.82906 4.16545L8.98731 5.11549C9.10872 5.15661 9.22741 5.20536 9.34267 5.26145L10.1253 4.70243C10.204 4.64607 10.312 4.65501 10.3804 4.72355L11.2765 5.61966C11.3449 5.68809 11.3539 5.79598 11.2976 5.87477L10.7386 6.65741C10.7947 6.77262 10.8434 6.89129 10.8844 7.01269L11.8345 7.17102C11.93 7.1869 12 7.26952 12 7.36634V8.63366C12 8.73048 11.93 8.8131 11.8345 8.82898L10.8844 8.98731C10.8434 9.10871 10.7947 9.22738 10.7385 9.34259L11.2976 10.1252C11.3539 10.204 11.3449 10.3119 11.2765 10.3803L10.3804 11.2765C10.312 11.345 10.2041 11.3539 10.1253 11.2976L9.34266 10.7386C9.2274 10.7946 9.10872 10.8434 8.98731 10.8845L8.82905 11.8345C8.81311 11.93 8.73047 12 8.63366 12H7.36634C7.26952 12 7.18689 11.93 7.17094 11.8345L7.01268 10.8845C6.89128 10.8434 6.77259 10.7946 6.65733 10.7386L5.87469 11.2976C5.79592 11.3538 5.68803 11.3449 5.61958 11.2765L4.72355 10.3803C4.65509 10.3119 4.64612 10.204 4.70235 10.1252L5.26145 9.34259C5.20533 9.22738 5.15661 9.10871 5.11556 8.98731ZM9.71427 7.99998C9.71427 8.94676 8.94676 9.71427 7.99998 9.71427C7.05365 9.71322 6.28675 8.94632 6.2857 7.99998C6.2857 7.05321 7.05321 6.2857 7.99998 6.2857C8.94676 6.2857 9.71427 7.05321 9.71427 7.99998Z" fill="#293142"/>
</svg>
