<svg width="16" height="16" viewBox="0 0 16 16" fill="none" xmlns="http://www.w3.org/2000/svg">
<path fill-rule="evenodd" clip-rule="evenodd" d="M6.5 12C9.53757 12 12 9.53757 12 6.5C12 3.46243 9.53757 1 6.5 1C3.46243 1 1 3.46243 1 6.5C1 9.53757 3.46243 12 6.5 12ZM6.5 13C10.0899 13 13 10.0899 13 6.5C13 2.91015 10.0899 0 6.5 0C2.91015 0 0 2.91015 0 6.5C0 10.0899 2.91015 13 6.5 13Z" fill="#293142"/>
<path fill-rule="evenodd" clip-rule="evenodd" d="M10.1464 11.1464C10.3417 10.9512 10.6583 10.9512 10.8536 11.1464L14.8536 15.1464C15.0488 15.3417 15.0488 15.6583 14.8536 15.8536C14.6583 16.0488 14.3417 16.0488 14.1464 15.8536L10.1464 11.8536C9.95118 11.6583 9.95118 11.3417 10.1464 11.1464Z" fill="#293142"/>
</svg>
