<svg width="24" height="24" viewBox="0 0 24 24" fill="none" xmlns="http://www.w3.org/2000/svg">
<path fill-rule="evenodd" clip-rule="evenodd" d="M17.0001 8.50006C17.2929 8.79295 17.2929 9.26782 17.0001 9.56072L10.5001 16.0607L7.50006 13.0607C7.20716 12.7678 7.20716 12.293 7.50006 12.0001C7.79295 11.7072 8.26782 11.7072 8.56072 12.0001L10.5001 13.9394L15.9394 8.50006C16.2323 8.20716 16.7072 8.20716 17.0001 8.50006Z" fill="black"/>
<path d="M8 5H6C5.44772 5 5 5.44772 5 6V18C5 18.5523 5.44772 19 6 19H18C18.5523 19 19 18.5523 19 18V6C19 5.44772 18.5523 5 18 5H16V6H18V18H6V6H8V5Z" fill="black"/>
<path fill-rule="evenodd" clip-rule="evenodd" d="M15 5H9V7H15V5ZM9 4C8.44772 4 8 4.44772 8 5V7C8 7.55228 8.44772 8 9 8H15C15.5523 8 16 7.55228 16 7V5C16 4.44772 15.5523 4 15 4H9Z" fill="black"/>
</svg>
