<svg width="16" height="16" viewBox="0 0 16 16" fill="none" xmlns="http://www.w3.org/2000/svg">
<path fill-rule="evenodd" clip-rule="evenodd" d="M13.2953 4.81002C13.5223 5.03708 13.6265 5.35935 13.5754 5.67636L13.1644 8.2247C13.1309 8.43223 13.0329 8.62393 12.8843 8.77257L7.29286 14.364C6.90234 14.7545 6.26917 14.7545 5.87865 14.364L1.63601 10.1213C1.24549 9.7308 1.24549 9.09763 1.63601 8.70711L7.2274 3.11572C7.37604 2.96708 7.56774 2.86906 7.77527 2.83559L10.3236 2.42456C10.6406 2.37343 10.9629 2.47764 11.1899 2.7047L13.2953 4.81002ZM12.1771 8.06547L6.58576 13.6569L2.34312 9.41421L7.9345 3.82283L10.4828 3.4118L12.5882 5.51713L12.1771 8.06547ZM9.41418 6.58579C9.80471 6.97631 10.4379 6.97631 10.8284 6.58579C11.2189 6.19526 11.2189 5.5621 10.8284 5.17157C10.4379 4.78105 9.80471 4.78105 9.41418 5.17157C9.02366 5.5621 9.02366 6.19526 9.41418 6.58579Z" fill="#293142"/>
</svg>
