<svg width="24" height="24" viewBox="0 0 24 24" fill="none" xmlns="http://www.w3.org/2000/svg">
<g clip-path="url(#clip0_1068_7812)">
<circle cx="18" cy="18" r="2" fill="#2C62F6"/>
<path fill-rule="evenodd" clip-rule="evenodd" d="M9 5H15V7H9V5ZM8 5C8 4.44772 8.44772 4 9 4H15C15.5523 4 16 4.44772 16 5H18C18.5523 5 19 5.44772 19 6V15.1707C18.6872 15.0602 18.3506 15 18 15V6H16V7C16 7.55228 15.5523 8 15 8H9C8.44772 8 8 7.55228 8 7V6H6V18H15C15 18.3506 15.0602 18.6872 15.1707 19H6C5.44772 19 5 18.5523 5 18V6C5 5.44772 5.44772 5 6 5H8ZM17.0001 8.50006C17.2929 8.79295 17.2929 9.26782 17.0001 9.56072L10.5001 16.0607L7.50006 13.0607C7.20716 12.7678 7.20716 12.293 7.50006 12.0001C7.79295 11.7072 8.26782 11.7072 8.56072 12.0001L10.5001 13.9394L15.9394 8.50006C16.2323 8.20716 16.7072 8.20716 17.0001 8.50006Z" fill="black"/>
</g>
<defs>
<clipPath id="clip0_1068_7812">
<rect width="24" height="24" fill="white"/>
</clipPath>
</defs>
</svg>
