<svg width="40" height="41" viewBox="0 0 40 41" fill="none" xmlns="http://www.w3.org/2000/svg">
<g clip-path="url(#clip0_23_97)">
<path d="M23.6432 4.14989C23.6432 6.16189 19.9992 10.6307 19.9992 10.6307C19.9992 10.6307 16.3567 6.15895 16.3567 4.14989C16.3469 3.66528 16.434 3.18361 16.6127 2.73305C16.7914 2.2825 17.0582 1.87213 17.3975 1.52597C17.7368 1.1798 18.1417 0.904802 18.5886 0.717066C19.0354 0.52933 19.5152 0.432632 20 0.432632C20.4847 0.432632 20.9645 0.52933 21.4113 0.717066C21.8582 0.904802 22.2631 1.1798 22.6024 1.52597C22.9417 1.87213 23.2085 2.2825 23.3872 2.73305C23.5659 3.18361 23.653 3.66528 23.6432 4.14989Z" fill="#2C62F6"/>
<path d="M34.1423 11.5145C32.7194 12.9373 26.981 13.5235 26.981 13.5235C26.981 13.5235 27.5701 7.77916 28.99 6.36221C29.6736 5.67859 30.6008 5.29453 31.5676 5.29453C32.5344 5.29453 33.4616 5.67859 34.1452 6.36221C34.8288 7.04583 35.2129 7.97303 35.2129 8.93981C35.2129 9.9066 34.8288 10.8338 34.1452 11.5174L34.1423 11.5145Z" fill="#2C62F6" fill-opacity="0.1"/>
<path d="M36.3561 24.1433C34.3441 24.1433 29.8752 20.5007 29.8752 20.5007C29.8752 20.5007 34.347 16.8567 36.3561 16.8567C36.8407 16.847 37.3224 16.934 37.7729 17.1127C38.2235 17.2915 38.6338 17.5583 38.98 17.8975C39.3262 18.2368 39.6012 18.6417 39.7889 19.0886C39.9766 19.5355 40.0733 20.0153 40.0733 20.5C40.0733 20.9847 39.9766 21.4645 39.7889 21.9114C39.6012 22.3583 39.3262 22.7632 38.98 23.1025C38.6338 23.4417 38.2235 23.7085 37.7729 23.8873C37.3224 24.066 36.8407 24.153 36.3561 24.1433Z" fill="#2C62F6" fill-opacity="0.2"/>
<path d="M28.99 34.6393C27.5672 33.2164 26.981 27.4794 26.981 27.4794C26.981 27.4794 32.7253 28.0686 34.1423 29.487C34.4808 29.8255 34.7493 30.2273 34.9325 30.6696C35.1157 31.1119 35.21 31.5859 35.21 32.0646C35.21 32.5433 35.1157 33.0173 34.9325 33.4596C34.7493 33.9019 34.4808 34.3037 34.1423 34.6422C33.8038 34.9807 33.4019 35.2492 32.9597 35.4324C32.5174 35.6156 32.0434 35.7099 31.5647 35.7099C31.086 35.7099 30.6119 35.6156 30.1697 35.4324C29.7274 35.2492 29.3256 34.9807 28.9871 34.6422L28.99 34.6393Z" fill="#2C62F6" fill-opacity="0.4"/>
<path d="M16.3567 36.8575C16.3567 34.8455 19.9992 30.3766 19.9992 30.3766C19.9992 30.3766 23.6432 34.8484 23.6432 36.8575C23.624 37.811 23.2318 38.7191 22.5506 39.3867C21.8695 40.0543 20.9537 40.4282 20 40.4282C19.0462 40.4282 18.1304 40.0543 17.4493 39.3867C16.7681 38.7191 16.3759 37.811 16.3567 36.8575Z" fill="#2C62F6" fill-opacity="0.5"/>
<path d="M5.85772 29.4841C7.27614 28.0671 13.0205 27.4824 13.0205 27.4824C13.0205 27.4824 12.4313 33.2194 11.0115 34.6422C10.3278 35.3258 9.40064 35.7099 8.43385 35.7099C7.46706 35.7099 6.53987 35.3258 5.85625 34.6422C5.17263 33.9586 4.78857 33.0314 4.78857 32.0646C4.78857 31.0978 5.17263 30.1706 5.85625 29.487L5.85772 29.4841Z" fill="#2C62F6" fill-opacity="0.65"/>
<path d="M3.64252 16.8568C5.65453 16.8568 10.1234 20.5007 10.1234 20.5007C10.1234 20.5007 5.65158 24.1433 3.64252 24.1433C2.68895 24.1241 1.78091 23.7318 1.11331 23.0507C0.445713 22.3695 0.0717773 21.4538 0.0717773 20.5C0.0717773 19.5462 0.445713 18.6305 1.11331 17.9493C1.78091 17.2682 2.68895 16.8759 3.64252 16.8568Z" fill="#2C62F6" fill-opacity="0.75"/>
<path d="M11.01 6.35926C12.4313 7.78062 13.0205 13.5191 13.0205 13.5191C13.0205 13.5191 7.27613 12.9299 5.85918 11.51C5.52068 11.1716 5.25217 10.7697 5.06898 10.3274C4.88579 9.88517 4.7915 9.41115 4.7915 8.93245C4.7915 8.45374 4.88579 7.97972 5.06898 7.53746C5.25217 7.09519 5.52068 6.69334 5.85918 6.35484C6.5428 5.67122 7.46999 5.28716 8.43678 5.28716C8.91549 5.28716 9.38951 5.38145 9.83178 5.56464C10.274 5.74784 10.6759 6.01635 11.0144 6.35484L11.01 6.35926Z" fill="#2C62F6" fill-opacity="0.9"/>
</g>
<defs>
<clipPath id="clip0_23_97">
<rect width="40" height="40" fill="white" transform="translate(0 0.5)"/>
</clipPath>
</defs>
</svg>
