<svg width="24" height="24" viewBox="0 0 24 24" fill="none" xmlns="http://www.w3.org/2000/svg">
<circle cx="12" cy="12" r="11.5" fill="white" stroke="#2C62F6"/>
<path d="M11.2303 14.3851C11.2303 13.8351 11.3203 13.3851 11.5003 13.0351C11.6903 12.6751 12.0303 12.2951 12.5203 11.8951C12.8803 11.6051 13.1653 11.3601 13.3753 11.1601C13.5853 10.9501 13.7303 10.7451 13.8103 10.5451C13.9003 10.3451 13.9453 10.1051 13.9453 9.82514C13.9453 9.39514 13.8003 9.06514 13.5103 8.83514C13.2303 8.60514 12.8203 8.49014 12.2803 8.49014C11.8103 8.49014 11.3803 8.55514 10.9903 8.68514C10.6003 8.80514 10.2203 8.95514 9.85027 9.13514L9.28027 7.93514C9.71027 7.70514 10.1803 7.51514 10.6903 7.36514C11.2003 7.21514 11.7653 7.14014 12.3853 7.14014C13.3653 7.14014 14.1203 7.38014 14.6503 7.86014C15.1903 8.34014 15.4603 8.98014 15.4603 9.78014C15.4603 10.2101 15.3903 10.5851 15.2503 10.9051C15.1103 11.2151 14.9053 11.5001 14.6353 11.7601C14.3753 12.0201 14.0653 12.3001 13.7053 12.6001C13.3753 12.8601 13.1253 13.0851 12.9553 13.2751C12.7953 13.4651 12.6853 13.6551 12.6253 13.8451C12.5653 14.0351 12.5353 14.2601 12.5353 14.5201V14.8201H11.2303V14.3851ZM10.9153 17.1151C10.9153 16.7251 11.0103 16.4501 11.2003 16.2901C11.4003 16.1301 11.6503 16.0501 11.9503 16.0501C12.2203 16.0501 12.4553 16.1301 12.6553 16.2901C12.8653 16.4501 12.9703 16.7251 12.9703 17.1151C12.9703 17.5051 12.8653 17.7851 12.6553 17.9551C12.4553 18.1251 12.2203 18.2101 11.9503 18.2101C11.6503 18.2101 11.4003 18.1251 11.2003 17.9551C11.0103 17.7851 10.9153 17.5051 10.9153 17.1151Z" fill="#2C62F6"/>
</svg>
