<svg width="1600" height="320" viewBox="0 0 1600 320" fill="none" xmlns="http://www.w3.org/2000/svg">
<rect width="300.8" height="320" rx="16" fill="#E6EEF8"/>
<g filter="url(#filter0_d_67_8188)">
<rect x="70" y="80" width="160" height="160" rx="4" fill="white"/>
</g>
<path d="M84 70H64C61.7909 70 60 71.7909 60 74V94" stroke="#293142" stroke-width="2" stroke-linecap="square"/>
<path d="M67.04 58H69.095V47.185H66.44L62.315 53.8V55.315H70.415V53.62H64.46L66.17 50.905C66.485 50.29 66.785 49.735 67.07 49.15H67.13C67.1 49.795 67.04 50.83 67.04 51.475V58ZM72.0327 61.225H74.2377V58.675L74.1627 57.31C74.7927 57.895 75.5127 58.21 76.2327 58.21C78.0777 58.21 79.8027 56.56 79.8027 53.68C79.8027 51.085 78.5727 49.405 76.5027 49.405C75.6027 49.405 74.7327 49.87 74.0427 50.485H73.9977L73.8177 49.615H72.0327V61.225ZM75.7527 56.395C75.3027 56.395 74.7627 56.245 74.2377 55.78V52.075C74.8077 51.49 75.3177 51.205 75.8727 51.205C77.0427 51.205 77.5377 52.09 77.5377 53.71C77.5377 55.525 76.7577 56.395 75.7527 56.395ZM80.2426 58H82.5376L83.3026 56.455C83.5426 55.96 83.7676 55.465 84.0076 55H84.0826C84.3676 55.465 84.6376 55.975 84.9076 56.455L85.8376 58H88.2076L85.5676 53.875L88.0276 49.615H85.7476L85.0576 51.085C84.8476 51.58 84.6376 52.045 84.4426 52.525H84.3676C84.1126 52.045 83.8576 51.58 83.6326 51.085L82.7776 49.615H80.4226L82.8826 53.635L80.2426 58Z" fill="#293142"/>
<rect x="324.8" width="300.8" height="320" rx="16" fill="#E6EEF8"/>
<g filter="url(#filter1_d_67_8188)">
<rect x="394.8" y="80" width="160" height="160" rx="8" fill="white"/>
</g>
<path d="M408.8 70H392.8C388.382 70 384.8 73.5817 384.8 78V94" stroke="#293142" stroke-width="2" stroke-linecap="square"/>
<path d="M391.46 58.21C393.695 58.21 395.195 56.935 395.195 55.255C395.195 53.8 394.34 52.99 393.335 52.42V52.345C394.04 51.85 394.76 50.98 394.76 49.93C394.76 48.16 393.5 46.99 391.535 46.99C389.6 46.99 388.175 48.115 388.175 49.915C388.175 51.04 388.82 51.835 389.645 52.45V52.51C388.64 53.05 387.755 53.905 387.755 55.255C387.755 56.995 389.33 58.21 391.46 58.21ZM392.165 51.82C391.01 51.355 390.125 50.905 390.125 49.915C390.125 49.015 390.725 48.535 391.49 48.535C392.405 48.535 392.96 49.165 392.96 50.065C392.96 50.695 392.675 51.265 392.165 51.82ZM391.505 56.65C390.47 56.65 389.645 56.005 389.645 55C389.645 54.235 390.08 53.575 390.68 53.11C392.09 53.71 393.14 54.085 393.14 55.165C393.14 56.125 392.465 56.65 391.505 56.65ZM397.083 61.225H399.288V58.675L399.213 57.31C399.843 57.895 400.563 58.21 401.283 58.21C403.128 58.21 404.853 56.56 404.853 53.68C404.853 51.085 403.623 49.405 401.553 49.405C400.653 49.405 399.783 49.87 399.093 50.485H399.048L398.868 49.615H397.083V61.225ZM400.803 56.395C400.353 56.395 399.813 56.245 399.288 55.78V52.075C399.858 51.49 400.368 51.205 400.923 51.205C402.093 51.205 402.588 52.09 402.588 53.71C402.588 55.525 401.808 56.395 400.803 56.395ZM405.293 58H407.588L408.353 56.455C408.593 55.96 408.818 55.465 409.058 55H409.133C409.418 55.465 409.688 55.975 409.958 56.455L410.888 58H413.258L410.618 53.875L413.078 49.615H410.798L410.108 51.085C409.898 51.58 409.688 52.045 409.493 52.525H409.418C409.163 52.045 408.908 51.58 408.683 51.085L407.828 49.615H405.473L407.933 53.635L405.293 58Z" fill="#293142"/>
<rect x="649.6" width="300.8" height="320" rx="16" fill="#E6EEF8"/>
<g filter="url(#filter2_d_67_8188)">
<rect x="719.6" y="80" width="160" height="160" rx="12" fill="white"/>
</g>
<path d="M733.6 70H721.6C714.973 70 709.6 75.3726 709.6 82V94" stroke="#293142" stroke-width="2" stroke-linecap="square"/>
<path d="M710.315 58H717.005V56.215H714.92V47.185H713.285C712.565 47.62 711.815 47.905 710.69 48.13V49.495H712.715V56.215H710.315V58ZM718.578 58H726.018V56.14H723.588C723.063 56.14 722.328 56.215 721.773 56.275C723.753 54.205 725.508 52.24 725.508 50.365C725.508 48.31 724.098 46.99 722.013 46.99C720.498 46.99 719.493 47.575 718.473 48.67L719.688 49.87C720.258 49.27 720.903 48.715 721.728 48.715C722.793 48.715 723.378 49.375 723.378 50.47C723.378 52.09 721.473 53.965 718.578 56.74V58ZM727.98 61.225H730.185V58.675L730.11 57.31C730.74 57.895 731.46 58.21 732.18 58.21C734.025 58.21 735.75 56.56 735.75 53.68C735.75 51.085 734.52 49.405 732.45 49.405C731.55 49.405 730.68 49.87 729.99 50.485H729.945L729.765 49.615H727.98V61.225ZM731.7 56.395C731.25 56.395 730.71 56.245 730.185 55.78V52.075C730.755 51.49 731.265 51.205 731.82 51.205C732.99 51.205 733.485 52.09 733.485 53.71C733.485 55.525 732.705 56.395 731.7 56.395ZM736.19 58H738.485L739.25 56.455C739.49 55.96 739.715 55.465 739.955 55H740.03C740.315 55.465 740.585 55.975 740.855 56.455L741.785 58H744.155L741.515 53.875L743.975 49.615H741.695L741.005 51.085C740.795 51.58 740.585 52.045 740.39 52.525H740.315C740.06 52.045 739.805 51.58 739.58 51.085L738.725 49.615H736.37L738.83 53.635L736.19 58Z" fill="#293142"/>
<rect x="974.4" width="300.8" height="320" rx="16" fill="#E6EEF8"/>
<g filter="url(#filter3_d_67_8188)">
<rect x="1044.4" y="80" width="160" height="160" rx="16" fill="white"/>
</g>
<path d="M1058.4 70H1050.4C1041.56 70 1034.4 77.1634 1034.4 86V94" stroke="#293142" stroke-width="2" stroke-linecap="square"/>
<path d="M1034.36 58H1041.05V56.215H1038.97V47.185H1037.33C1036.61 47.62 1035.86 47.905 1034.74 48.13V49.495H1036.76V56.215H1034.36V58ZM1046.72 58.21C1048.61 58.21 1050.2 56.83 1050.2 54.625C1050.2 52.36 1048.87 51.295 1047.01 51.295C1046.26 51.295 1045.25 51.79 1044.65 52.63L1044.74 54.13C1045.31 53.185 1046 52.855 1046.6 52.855C1047.56 52.855 1048.19 53.41 1048.19 54.625C1048.19 55.9 1047.52 56.545 1046.66 56.545C1045.58 56.545 1044.74 55.57 1044.74 52.885C1044.74 49.795 1045.82 48.775 1047.16 48.775C1047.8 48.775 1048.48 49.12 1048.87 49.57L1050.04 48.235C1049.38 47.56 1048.39 46.99 1047.02 46.99C1044.79 46.99 1042.72 48.76 1042.72 52.885C1042.72 56.605 1044.61 58.21 1046.72 58.21ZM1052.03 61.225H1054.24V58.675L1054.16 57.31C1054.79 57.895 1055.51 58.21 1056.23 58.21C1058.08 58.21 1059.8 56.56 1059.8 53.68C1059.8 51.085 1058.57 49.405 1056.5 49.405C1055.6 49.405 1054.73 49.87 1054.04 50.485H1054L1053.82 49.615H1052.03V61.225ZM1055.75 56.395C1055.3 56.395 1054.76 56.245 1054.24 55.78V52.075C1054.81 51.49 1055.32 51.205 1055.87 51.205C1057.04 51.205 1057.54 52.09 1057.54 53.71C1057.54 55.525 1056.76 56.395 1055.75 56.395ZM1060.24 58H1062.54L1063.3 56.455C1063.54 55.96 1063.77 55.465 1064.01 55H1064.08C1064.37 55.465 1064.64 55.975 1064.91 56.455L1065.84 58H1068.21L1065.57 53.875L1068.03 49.615H1065.75L1065.06 51.085C1064.85 51.58 1064.64 52.045 1064.44 52.525H1064.37C1064.11 52.045 1063.86 51.58 1063.63 51.085L1062.78 49.615H1060.42L1062.88 53.635L1060.24 58Z" fill="#293142"/>
<rect x="1299.2" width="300.8" height="320" rx="16" fill="#E6EEF8"/>
<g filter="url(#filter4_d_67_8188)">
<rect x="1369.2" y="80" width="160" height="160" rx="24" fill="white"/>
</g>
<path d="M1383.2 70V70C1369.95 70 1359.2 80.7452 1359.2 94V94" stroke="#293142" stroke-width="2" stroke-linecap="square"/>
<path d="M1358.58 58H1366.02V56.14H1363.59C1363.06 56.14 1362.33 56.215 1361.77 56.275C1363.75 54.205 1365.51 52.24 1365.51 50.365C1365.51 48.31 1364.1 46.99 1362.01 46.99C1360.5 46.99 1359.49 47.575 1358.47 48.67L1359.69 49.87C1360.26 49.27 1360.9 48.715 1361.73 48.715C1362.79 48.715 1363.38 49.375 1363.38 50.47C1363.38 52.09 1361.47 53.965 1358.58 56.74V58ZM1371.84 58H1373.89V47.185H1371.24L1367.11 53.8V55.315H1375.21V53.62H1369.26L1370.97 50.905C1371.28 50.29 1371.58 49.735 1371.87 49.15H1371.93C1371.9 49.795 1371.84 50.83 1371.84 51.475V58ZM1376.83 61.225H1379.04V58.675L1378.96 57.31C1379.59 57.895 1380.31 58.21 1381.03 58.21C1382.88 58.21 1384.6 56.56 1384.6 53.68C1384.6 51.085 1383.37 49.405 1381.3 49.405C1380.4 49.405 1379.53 49.87 1378.84 50.485H1378.8L1378.62 49.615H1376.83V61.225ZM1380.55 56.395C1380.1 56.395 1379.56 56.245 1379.04 55.78V52.075C1379.61 51.49 1380.12 51.205 1380.67 51.205C1381.84 51.205 1382.34 52.09 1382.34 53.71C1382.34 55.525 1381.56 56.395 1380.55 56.395ZM1385.04 58H1387.34L1388.1 56.455C1388.34 55.96 1388.57 55.465 1388.81 55H1388.88C1389.17 55.465 1389.44 55.975 1389.71 56.455L1390.64 58H1393.01L1390.37 53.875L1392.83 49.615H1390.55L1389.86 51.085C1389.65 51.58 1389.44 52.045 1389.24 52.525H1389.17C1388.91 52.045 1388.66 51.58 1388.43 51.085L1387.58 49.615H1385.22L1387.68 53.635L1385.04 58Z" fill="#293142"/>
<defs>
<filter id="filter0_d_67_8188" x="60" y="74" width="180" height="180" filterUnits="userSpaceOnUse" color-interpolation-filters="sRGB">
<feFlood flood-opacity="0" result="BackgroundImageFix"/>
<feColorMatrix in="SourceAlpha" type="matrix" values="0 0 0 0 0 0 0 0 0 0 0 0 0 0 0 0 0 0 127 0" result="hardAlpha"/>
<feOffset dy="4"/>
<feGaussianBlur stdDeviation="5"/>
<feComposite in2="hardAlpha" operator="out"/>
<feColorMatrix type="matrix" values="0 0 0 0 0 0 0 0 0 0 0 0 0 0 0 0 0 0 0.05 0"/>
<feBlend mode="normal" in2="BackgroundImageFix" result="effect1_dropShadow_67_8188"/>
<feBlend mode="normal" in="SourceGraphic" in2="effect1_dropShadow_67_8188" result="shape"/>
</filter>
<filter id="filter1_d_67_8188" x="384.8" y="74" width="180" height="180" filterUnits="userSpaceOnUse" color-interpolation-filters="sRGB">
<feFlood flood-opacity="0" result="BackgroundImageFix"/>
<feColorMatrix in="SourceAlpha" type="matrix" values="0 0 0 0 0 0 0 0 0 0 0 0 0 0 0 0 0 0 127 0" result="hardAlpha"/>
<feOffset dy="4"/>
<feGaussianBlur stdDeviation="5"/>
<feComposite in2="hardAlpha" operator="out"/>
<feColorMatrix type="matrix" values="0 0 0 0 0 0 0 0 0 0 0 0 0 0 0 0 0 0 0.05 0"/>
<feBlend mode="normal" in2="BackgroundImageFix" result="effect1_dropShadow_67_8188"/>
<feBlend mode="normal" in="SourceGraphic" in2="effect1_dropShadow_67_8188" result="shape"/>
</filter>
<filter id="filter2_d_67_8188" x="709.6" y="74" width="180" height="180" filterUnits="userSpaceOnUse" color-interpolation-filters="sRGB">
<feFlood flood-opacity="0" result="BackgroundImageFix"/>
<feColorMatrix in="SourceAlpha" type="matrix" values="0 0 0 0 0 0 0 0 0 0 0 0 0 0 0 0 0 0 127 0" result="hardAlpha"/>
<feOffset dy="4"/>
<feGaussianBlur stdDeviation="5"/>
<feComposite in2="hardAlpha" operator="out"/>
<feColorMatrix type="matrix" values="0 0 0 0 0 0 0 0 0 0 0 0 0 0 0 0 0 0 0.05 0"/>
<feBlend mode="normal" in2="BackgroundImageFix" result="effect1_dropShadow_67_8188"/>
<feBlend mode="normal" in="SourceGraphic" in2="effect1_dropShadow_67_8188" result="shape"/>
</filter>
<filter id="filter3_d_67_8188" x="1034.4" y="74" width="180" height="180" filterUnits="userSpaceOnUse" color-interpolation-filters="sRGB">
<feFlood flood-opacity="0" result="BackgroundImageFix"/>
<feColorMatrix in="SourceAlpha" type="matrix" values="0 0 0 0 0 0 0 0 0 0 0 0 0 0 0 0 0 0 127 0" result="hardAlpha"/>
<feOffset dy="4"/>
<feGaussianBlur stdDeviation="5"/>
<feComposite in2="hardAlpha" operator="out"/>
<feColorMatrix type="matrix" values="0 0 0 0 0 0 0 0 0 0 0 0 0 0 0 0 0 0 0.05 0"/>
<feBlend mode="normal" in2="BackgroundImageFix" result="effect1_dropShadow_67_8188"/>
<feBlend mode="normal" in="SourceGraphic" in2="effect1_dropShadow_67_8188" result="shape"/>
</filter>
<filter id="filter4_d_67_8188" x="1359.2" y="74" width="180" height="180" filterUnits="userSpaceOnUse" color-interpolation-filters="sRGB">
<feFlood flood-opacity="0" result="BackgroundImageFix"/>
<feColorMatrix in="SourceAlpha" type="matrix" values="0 0 0 0 0 0 0 0 0 0 0 0 0 0 0 0 0 0 127 0" result="hardAlpha"/>
<feOffset dy="4"/>
<feGaussianBlur stdDeviation="5"/>
<feComposite in2="hardAlpha" operator="out"/>
<feColorMatrix type="matrix" values="0 0 0 0 0 0 0 0 0 0 0 0 0 0 0 0 0 0 0.05 0"/>
<feBlend mode="normal" in2="BackgroundImageFix" result="effect1_dropShadow_67_8188"/>
<feBlend mode="normal" in="SourceGraphic" in2="effect1_dropShadow_67_8188" result="shape"/>
</filter>
</defs>
</svg>
