<svg width="144" height="80" viewBox="0 0 144 80" fill="none" xmlns="http://www.w3.org/2000/svg">
<rect width="142.244" height="80" transform="translate(0.877808)" fill="#EDEFF1"/>
<g clip-path="url(#clip0_1667_5426)">
<path d="M73.8216 21.8249C73.8216 22.8309 71.9996 25.0654 71.9996 25.0654C71.9996 25.0654 70.1783 22.8295 70.1783 21.8249C70.1735 21.5826 70.217 21.3418 70.3063 21.1165C70.3957 20.8912 70.5291 20.6861 70.6987 20.513C70.8684 20.3399 71.0708 20.2024 71.2943 20.1085C71.5177 20.0147 71.7576 19.9663 72 19.9663C72.2423 19.9663 72.4822 20.0147 72.7057 20.1085C72.9291 20.2024 73.1316 20.3399 73.3012 20.513C73.4708 20.6861 73.6042 20.8912 73.6936 21.1165C73.783 21.3418 73.8265 21.5826 73.8216 21.8249V21.8249Z" fill="#A1B1CA"/>
<path d="M79.0711 25.5072C78.3597 26.2187 75.4905 26.5118 75.4905 26.5118C75.4905 26.5118 75.7851 23.6396 76.495 22.9311C76.8368 22.5893 77.3004 22.3973 77.7838 22.3973C78.2672 22.3973 78.7308 22.5893 79.0726 22.9311C79.4144 23.2729 79.6065 23.7365 79.6065 24.2199C79.6065 24.7033 79.4144 25.1669 79.0726 25.5087L79.0711 25.5072Z" fill="#A1B1CA" fill-opacity="0.1"/>
<path d="M80.178 31.8216C79.172 31.8216 76.9376 30.0003 76.9376 30.0003C76.9376 30.0003 79.1735 28.1783 80.178 28.1783C80.4203 28.1735 80.6612 28.217 80.8865 28.3063C81.1117 28.3957 81.3169 28.5291 81.49 28.6987C81.6631 28.8684 81.8006 29.0708 81.8945 29.2943C81.9883 29.5177 82.0367 29.7576 82.0367 30C82.0367 30.2423 81.9883 30.4822 81.8945 30.7057C81.8006 30.9291 81.6631 31.1316 81.49 31.3012C81.3169 31.4708 81.1117 31.6042 80.8865 31.6936C80.6612 31.783 80.4203 31.8265 80.178 31.8216Z" fill="#A1B1CA" fill-opacity="0.2"/>
<path d="M76.495 37.0696C75.7836 36.3582 75.4905 33.4897 75.4905 33.4897C75.4905 33.4897 78.3627 33.7843 79.0711 34.4935C79.2404 34.6627 79.3746 34.8637 79.4662 35.0848C79.5578 35.3059 79.605 35.5429 79.605 35.7823C79.605 36.0216 79.5578 36.2586 79.4662 36.4798C79.3746 36.7009 79.2404 36.9018 79.0711 37.0711C78.9019 37.2403 78.701 37.3746 78.4798 37.4662C78.2587 37.5578 78.0217 37.6049 77.7823 37.6049C77.543 37.6049 77.306 37.5578 77.0848 37.4662C76.8637 37.3746 76.6628 37.2403 76.4935 37.0711L76.495 37.0696Z" fill="#A1B1CA" fill-opacity="0.4"/>
<path d="M70.1783 38.1787C70.1783 37.1727 71.9996 34.9383 71.9996 34.9383C71.9996 34.9383 73.8216 37.1742 73.8216 38.1787C73.812 38.6555 73.6159 39.1095 73.2753 39.4433C72.9347 39.7771 72.4769 39.9641 72 39.9641C71.5231 39.9641 71.0652 39.7771 70.7246 39.4433C70.3841 39.1095 70.1879 38.6555 70.1783 38.1787V38.1787Z" fill="#A1B1CA" fill-opacity="0.5"/>
<path d="M64.9289 34.4921C65.6381 33.7836 68.5103 33.4912 68.5103 33.4912C68.5103 33.4912 68.2157 36.3597 67.5057 37.0711C67.1639 37.4129 66.7003 37.605 66.2169 37.605C65.7335 37.605 65.2699 37.4129 64.9281 37.0711C64.5863 36.7293 64.3943 36.2657 64.3943 35.7823C64.3943 35.2989 64.5863 34.8353 64.9281 34.4935L64.9289 34.4921Z" fill="#A1B1CA" fill-opacity="0.65"/>
<path d="M63.8213 28.1783C64.8273 28.1783 67.0617 30.0003 67.0617 30.0003C67.0617 30.0003 64.8258 31.8216 63.8213 31.8216C63.3445 31.812 62.8905 31.6159 62.5567 31.2753C62.2229 30.9347 62.0359 30.4769 62.0359 30C62.0359 29.5231 62.2229 29.0652 62.5567 28.7246C62.8905 28.3841 63.3445 28.1879 63.8213 28.1783V28.1783Z" fill="#A1B1CA" fill-opacity="0.75"/>
<path d="M67.505 22.9296C68.2157 23.6403 68.5102 26.5095 68.5102 26.5095C68.5102 26.5095 65.6381 26.2149 64.9296 25.505C64.7603 25.3358 64.6261 25.1348 64.5345 24.9137C64.4429 24.6926 64.3958 24.4555 64.3958 24.2162C64.3958 23.9768 64.4429 23.7398 64.5345 23.5187C64.6261 23.2976 64.7603 23.0966 64.9296 22.9274C65.2714 22.5856 65.735 22.3936 66.2184 22.3936C66.4577 22.3936 66.6948 22.4407 66.9159 22.5323C67.137 22.6239 67.3379 22.7581 67.5072 22.9274L67.505 22.9296Z" fill="#A1B1CA" fill-opacity="0.9"/>
</g>
<path d="M43.9614 53.432V53.976H46.1694V53.432H43.9614ZM43.9614 55.096V55.648H46.1694V55.096H43.9614ZM42.6414 52.816C41.5694 52.816 40.7774 53.536 40.7774 54.536C40.7774 55.544 41.5694 56.256 42.6414 56.256C43.7054 56.256 44.5054 55.544 44.5054 54.536C44.5054 53.536 43.7054 52.816 42.6414 52.816ZM42.6414 53.384C43.3454 53.384 43.8734 53.856 43.8734 54.536C43.8734 55.216 43.3454 55.688 42.6414 55.688C41.9374 55.688 41.4174 55.216 41.4174 54.536C41.4174 53.856 41.9374 53.384 42.6414 53.384ZM45.9534 52.392V56.672H46.6174V52.392H45.9534ZM44.2414 56.84C42.7454 56.84 41.8254 57.352 41.8254 58.224C41.8254 59.104 42.7454 59.608 44.2414 59.608C45.7294 59.608 46.6494 59.104 46.6494 58.224C46.6494 57.352 45.7294 56.84 44.2414 56.84ZM44.2414 57.368C45.3294 57.368 45.9934 57.688 45.9934 58.224C45.9934 58.768 45.3294 59.088 44.2414 59.088C43.1454 59.088 42.4814 58.768 42.4814 58.224C42.4814 57.688 43.1454 57.368 44.2414 57.368ZM49.7848 52.768V53.504C49.7848 54.608 49.0808 55.584 47.9928 55.984L48.3448 56.52C49.5528 56.048 50.3368 54.896 50.3368 53.504V52.768H49.7848ZM49.9048 52.768V53.552C49.9048 54.808 50.6968 55.88 51.8568 56.312L52.2088 55.792C51.1688 55.432 50.4488 54.528 50.4488 53.552V52.768H49.9048ZM52.9768 52.392V56.776H53.6408V52.392H52.9768ZM53.4568 54.256V54.816H54.7128V54.256H53.4568ZM51.3368 56.976C49.8568 56.976 48.9608 57.464 48.9608 58.296C48.9608 59.128 49.8568 59.608 51.3368 59.608C52.8168 59.608 53.7128 59.128 53.7128 58.296C53.7128 57.464 52.8168 56.976 51.3368 56.976ZM51.3368 57.504C52.4088 57.504 53.0648 57.792 53.0648 58.296C53.0648 58.8 52.4088 59.088 51.3368 59.088C50.2648 59.088 49.6088 58.8 49.6088 58.296C49.6088 57.792 50.2648 57.504 51.3368 57.504ZM60.6293 53.72V54.256H62.7173V53.72H60.6293ZM60.6293 55.28V55.816H62.7333V55.28H60.6293ZM62.4613 52.4V57.752H63.1253V52.4H62.4613ZM58.4773 58.92V59.464H63.3013V58.92H58.4773ZM58.4773 57.232V59.2H59.1413V57.232H58.4773ZM57.5333 52.872V56.52H60.7973V52.872H60.1493V54.152H58.1893V52.872H57.5333ZM58.1893 54.672H60.1493V55.976H58.1893V54.672ZM69.4766 52.392V58.056H70.1406V52.392H69.4766ZM69.8606 54.912V55.464H71.1966V54.912H69.8606ZM65.5646 58.92V59.464H70.3966V58.92H65.5646ZM65.5646 57.68V59.088H66.2286V57.68H65.5646ZM66.4286 55.928V56.912H67.0926V55.928H66.4286ZM64.5806 57.224C65.8366 57.216 67.5726 57.184 69.1006 56.904L69.0446 56.432C67.5566 56.664 65.7726 56.688 64.4926 56.688L64.5806 57.224ZM64.6766 53.096V53.6H68.8286V53.096H64.6766ZM66.7566 53.896C65.7406 53.896 65.0686 54.32 65.0686 55.008C65.0686 55.704 65.7406 56.128 66.7566 56.128C67.7726 56.128 68.4366 55.704 68.4366 55.008C68.4366 54.32 67.7726 53.896 66.7566 53.896ZM66.7566 54.368C67.3966 54.368 67.8126 54.616 67.8126 55.008C67.8126 55.408 67.3966 55.648 66.7566 55.648C66.1086 55.648 65.6926 55.408 65.6926 55.008C65.6926 54.616 66.1086 54.368 66.7566 54.368ZM66.4286 52.36V53.32H67.0926V52.36H66.4286ZM74.828 56.008V57.272H75.492V56.008H74.828ZM71.892 55.776V56.312H78.428V55.776H71.892ZM75.156 57.072C73.604 57.072 72.676 57.528 72.676 58.344C72.676 59.152 73.604 59.608 75.156 59.608C76.708 59.608 77.636 59.152 77.636 58.344C77.636 57.528 76.708 57.072 75.156 57.072ZM75.156 57.584C76.292 57.584 76.964 57.856 76.964 58.344C76.964 58.824 76.292 59.096 75.156 59.096C74.028 59.096 73.348 58.824 73.348 58.344C73.348 57.856 74.028 57.584 75.156 57.584ZM74.732 52.984V53.2C74.732 54.024 73.556 54.672 72.26 54.808L72.5 55.336C73.996 55.152 75.324 54.368 75.324 53.2V52.984H74.732ZM75.012 52.984V53.2C75.012 54.368 76.332 55.152 77.828 55.336L78.068 54.808C76.772 54.672 75.596 54.024 75.596 53.2V52.984H75.012ZM72.492 52.72V53.256H77.844V52.72H72.492ZM86.3044 52.392V56.272H86.9764V52.392H86.3044ZM82.3124 56.632V59.528H86.9764V56.632H86.3204V57.512H82.9684V56.632H82.3124ZM82.9684 58.04H86.3204V58.992H82.9684V58.04ZM83.0964 52.736C82.0004 52.736 81.2084 53.416 81.2084 54.4C81.2084 55.392 82.0004 56.072 83.0964 56.072C84.1924 56.072 84.9764 55.392 84.9764 54.4C84.9764 53.416 84.1924 52.736 83.0964 52.736ZM83.0964 53.288C83.8164 53.288 84.3364 53.744 84.3364 54.4C84.3364 55.056 83.8164 55.512 83.0964 55.512C82.3764 55.512 81.8564 55.056 81.8564 54.4C81.8564 53.744 82.3764 53.288 83.0964 53.288ZM93.6638 52.392V59.624H94.3278V52.392H93.6638ZM88.8638 53.096V57.576H89.5198V53.096H88.8638ZM88.8638 57.184V57.76H89.4558C90.5998 57.76 91.7438 57.672 92.9998 57.416L92.9198 56.848C91.6958 57.104 90.5518 57.184 89.4558 57.184H88.8638ZM100.655 52.384V59.632H101.327V52.384H100.655ZM101.167 55.24V55.8H102.511V55.24H101.167ZM96.0712 57.272V57.832H96.6392C97.9992 57.832 98.9512 57.792 100.063 57.584L99.9912 57.024C98.9112 57.224 97.9752 57.272 96.6392 57.272H96.0712ZM96.0712 53.088V57.52H96.7272V53.632H99.4312V53.088H96.0712Z" fill="#4A4E70"/>
<defs>
<clipPath id="clip0_1667_5426">
<rect width="20" height="20" fill="white" transform="translate(62 20)"/>
</clipPath>
</defs>
</svg>
