<svg width="16" height="17" viewBox="0 0 16 17" fill="none" xmlns="http://www.w3.org/2000/svg">
<rect x="15.1577" y="14.8457" width="2.02103" height="15.1577" rx="1.01052" transform="rotate(90 15.1577 14.8457)" fill="#A1B1CA"/>
<path fill-rule="evenodd" clip-rule="evenodd" d="M7.51227 0.892645L11.9446 5.61377C12.1867 5.88863 12.1867 6.30901 11.9446 6.5677C11.7026 6.82639 11.2941 6.82639 11.0521 6.5677L7.07357 2.31545L3.09505 6.5677C2.83788 6.82639 2.44457 6.82639 2.20253 6.5677C1.96049 6.30901 1.96049 5.88863 2.20253 5.61377L6.61975 0.892645C6.87691 0.633953 7.27023 0.633953 7.51227 0.892645Z" fill="#293142" stroke="#293142" stroke-width="0.5"/>
<rect x="-0.5" y="-0.5" width="8.09464" height="1.02103" rx="0.510515" transform="matrix(-4.37114e-08 -1 -1 4.37114e-08 7.08398 9.80371)" fill="#293142" stroke="#293142"/>
</svg>
