<svg width="16" height="17" viewBox="0 0 16 17" fill="none" xmlns="http://www.w3.org/2000/svg">
<rect width="2.02103" height="15.1577" rx="1.01052" transform="matrix(4.37114e-08 -1 -1 -4.37114e-08 15.1577 2.14014)" fill="#A1B1CA"/>
<path d="M8.08431 15.7768C8.09851 15.7768 8.11267 15.7766 8.12678 15.7762C8.11156 15.7843 8.09655 15.7873 8.08242 15.7873C8.06904 15.7873 8.0523 15.7845 8.03385 15.7759C8.05061 15.7765 8.06743 15.7768 8.08431 15.7768ZM6.5738 14.232L3.58496 11.0376C3.50799 10.9459 3.52228 10.8198 3.57838 10.7598C3.60391 10.7325 3.63012 10.7242 3.65386 10.7242C3.67756 10.7242 3.71181 10.7329 3.74736 10.767L6.5738 13.7879V14.232ZM8.59483 7.19264L8.59483 13.393L8.08431 13.9386L7.5738 13.393L7.5738 7.19264C7.5738 6.91069 7.80236 6.68213 8.08431 6.68213C8.36626 6.68213 8.59483 6.91069 8.59483 7.19264ZM9.59483 14.2211V13.7879L12.4279 10.7598C12.4724 10.7123 12.5458 10.7123 12.5903 10.7598C12.6463 10.8197 12.6606 10.9457 12.5839 11.0373L9.59483 14.2211Z" fill="#293142" stroke="#293142"/>
<path fill-rule="evenodd" clip-rule="evenodd" d="M8.52301 16.0932L12.9554 11.3721C13.1974 11.0972 13.1974 10.6768 12.9554 10.4181C12.7133 10.1594 12.3049 10.1594 12.0628 10.4181L8.08431 14.6704L4.10579 10.4181C3.84862 10.1594 3.45531 10.1594 3.21327 10.4181C2.97123 10.6768 2.97123 11.0972 3.21327 11.3721L7.63049 16.0932C7.88766 16.3519 8.28097 16.3519 8.52301 16.0932Z" fill="#293142" stroke="#293142" stroke-width="0.5"/>
</svg>
