<svg width="21" height="20" viewBox="0 0 21 20" fill="none" xmlns="http://www.w3.org/2000/svg">
<mask id="path-1-inside-1" fill="white">
<path fill-rule="evenodd" clip-rule="evenodd" d="M19.6418 4.04188L15.8649 0.495998C15.6451 0.302366 15.3088 0.302366 15.1018 0.495998C14.8948 0.68963 14.8948 1.01638 15.1018 1.21001L18.5036 4.39283L15.1018 7.57565C14.8948 7.78139 14.8948 8.09604 15.1018 8.28967C15.3088 8.4833 15.6451 8.4833 15.8649 8.28967L19.6418 4.75589C19.8488 4.55016 19.8488 4.23551 19.6418 4.04188Z"/>
<path fill-rule="evenodd" clip-rule="evenodd" d="M14.9292 0.311523C15.2361 0.0243705 15.7196 0.0313749 16.0319 0.306401L16.0379 0.311724L19.8144 3.8574C19.8145 3.85743 19.8144 3.85737 19.8144 3.8574C20.1311 4.1538 20.1231 4.63368 19.8199 4.93506L19.8145 4.94045L16.032 8.47935C15.7197 8.75438 15.2361 8.7613 14.9292 8.47415C14.6124 8.17776 14.6205 7.6979 14.9237 7.39649L14.9291 7.3911L18.1338 4.39283L14.9292 1.39449C14.6155 1.10102 14.6155 0.604992 14.9292 0.311523ZM15.6954 0.683321C15.568 0.573457 15.3807 0.581042 15.2744 0.680472C15.1742 0.774267 15.1742 0.931745 15.2744 1.02554L18.8734 4.39283L15.2776 7.75714C15.1693 7.86697 15.178 8.01496 15.2744 8.1052C15.3807 8.20466 15.5681 8.21222 15.6955 8.10223L19.4661 4.5744C19.5743 4.46457 19.5657 4.31659 19.4692 4.22635L15.6954 0.683321Z"/>
<path d="M17.9781 5.40335C18.5362 5.40335 18.9886 4.95093 18.9886 4.39283C18.9886 3.83474 18.5362 3.38232 17.9781 3.38232L12.9256 3.38232C12.3675 3.38232 11.915 3.83474 11.915 4.39283C11.915 4.95093 12.3675 5.40335 12.9256 5.40335L17.9781 5.40335Z"/>
</mask>
<path fill-rule="evenodd" clip-rule="evenodd" d="M19.6418 4.04188L15.8649 0.495998C15.6451 0.302366 15.3088 0.302366 15.1018 0.495998C14.8948 0.68963 14.8948 1.01638 15.1018 1.21001L18.5036 4.39283L15.1018 7.57565C14.8948 7.78139 14.8948 8.09604 15.1018 8.28967C15.3088 8.4833 15.6451 8.4833 15.8649 8.28967L19.6418 4.75589C19.8488 4.55016 19.8488 4.23551 19.6418 4.04188Z" fill="#293142"/>
<path fill-rule="evenodd" clip-rule="evenodd" d="M14.9292 0.311523C15.2361 0.0243705 15.7196 0.0313749 16.0319 0.306401L16.0379 0.311724L19.8144 3.8574C19.8145 3.85743 19.8144 3.85737 19.8144 3.8574C20.1311 4.1538 20.1231 4.63368 19.8199 4.93506L19.8145 4.94045L16.032 8.47935C15.7197 8.75438 15.2361 8.7613 14.9292 8.47415C14.6124 8.17776 14.6205 7.6979 14.9237 7.39649L14.9291 7.3911L18.1338 4.39283L14.9292 1.39449C14.6155 1.10102 14.6155 0.604992 14.9292 0.311523ZM15.6954 0.683321C15.568 0.573457 15.3807 0.581042 15.2744 0.680472C15.1742 0.774267 15.1742 0.931745 15.2744 1.02554L18.8734 4.39283L15.2776 7.75714C15.1693 7.86697 15.178 8.01496 15.2744 8.1052C15.3807 8.20466 15.5681 8.21222 15.6955 8.10223L19.4661 4.5744C19.5743 4.46457 19.5657 4.31659 19.4692 4.22635L15.6954 0.683321Z" fill="#293142"/>
<path d="M17.9781 5.40335C18.5362 5.40335 18.9886 4.95093 18.9886 4.39283C18.9886 3.83474 18.5362 3.38232 17.9781 3.38232L12.9256 3.38232C12.3675 3.38232 11.915 3.83474 11.915 4.39283C11.915 4.95093 12.3675 5.40335 12.9256 5.40335L17.9781 5.40335Z" fill="#293142"/>
<path d="M19.6418 4.04188L18.9574 4.77093L18.9586 4.7721L19.6418 4.04188ZM15.8649 0.495998L16.5494 -0.233054L16.5378 -0.243963L16.5258 -0.254495L15.8649 0.495998ZM15.1018 1.21001L14.4186 1.94023L15.1018 1.21001ZM18.5036 4.39283L19.1868 5.12305L19.9673 4.39283L19.1868 3.66262L18.5036 4.39283ZM15.1018 7.57565L14.4186 6.84544L14.4075 6.85578L14.3968 6.86646L15.1018 7.57565ZM15.8649 8.28967L16.5258 9.04016L16.5371 9.0302L16.5482 9.01989L15.8649 8.28967ZM19.6418 4.75589L20.3251 5.48611L20.3361 5.47577L20.3469 5.46509L19.6418 4.75589ZM16.0319 0.306401L16.6928 -0.444092L16.6928 -0.444092L16.0319 0.306401ZM14.9292 0.311523L15.6124 1.04174L14.9292 0.311523ZM16.0379 0.311724L16.7224 -0.417311L16.7108 -0.428228L16.6988 -0.438769L16.0379 0.311724ZM19.8199 4.93506L19.1149 4.22586L19.1149 4.22588L19.8199 4.93506ZM19.8145 4.94045L20.4977 5.67069L20.5088 5.66033L20.5195 5.64963L19.8145 4.94045ZM16.032 8.47935L16.6929 9.22985L16.7042 9.21989L16.7152 9.20959L16.032 8.47935ZM14.9292 8.47415L15.6124 7.74393L15.6124 7.74393L14.9292 8.47415ZM14.9237 7.39649L15.6287 8.10569L15.6287 8.10567L14.9237 7.39649ZM14.9291 7.3911L14.2459 6.66086L14.2349 6.67122L14.2241 6.68191L14.9291 7.3911ZM18.1338 4.39283L18.817 5.12307L19.5975 4.39285L18.817 3.66262L18.1338 4.39283ZM14.9292 1.39449L14.246 2.12471L14.9292 1.39449ZM15.2744 0.680472L14.5912 -0.0497467L15.2744 0.680472ZM15.6954 0.683321L16.3798 -0.0457316L16.3644 -0.0602096L16.3484 -0.0740225L15.6954 0.683321ZM15.2744 1.02554L14.5912 1.75576V1.75576L15.2744 1.02554ZM18.8734 4.39283L19.5566 5.12305L20.337 4.39283L19.5566 3.66262L18.8734 4.39283ZM15.2776 7.75714L14.5944 7.02692L14.5796 7.04071L14.5655 7.05509L15.2776 7.75714ZM15.2744 8.1052L15.9576 7.37498L15.9576 7.37498L15.2744 8.1052ZM15.6955 8.10223L16.349 8.8592L16.3641 8.84612L16.3787 8.83244L15.6955 8.10223ZM19.4661 4.5744L20.1493 5.30462L20.164 5.29083L20.1782 5.27645L19.4661 4.5744ZM19.4692 4.22635L18.7848 4.9554L18.786 4.95657L19.4692 4.22635ZM12.9256 5.40335L12.9256 4.40335H12.9256V5.40335ZM12.9256 3.38232V2.38232V3.38232ZM17.9781 3.38232V4.38232V3.38232ZM17.9781 5.40335V6.40335V5.40335ZM20.3263 3.31282L16.5494 -0.233054L15.1805 1.22505L18.9574 4.77093L20.3263 3.31282ZM16.5258 -0.254495C15.9401 -0.770319 15.0212 -0.798045 14.4186 -0.234221L15.785 1.22622C15.5963 1.40278 15.3501 1.37505 15.2041 1.24649L16.5258 -0.254495ZM14.4186 -0.234221C13.7893 0.354604 13.7893 1.35141 14.4186 1.94023L15.785 0.479795C16.0004 0.681356 16.0004 1.02466 15.785 1.22622L14.4186 -0.234221ZM14.4186 1.94023L17.8204 5.12305L19.1868 3.66262L15.785 0.479795L14.4186 1.94023ZM17.8204 3.66262L14.4186 6.84544L15.785 8.30587L19.1868 5.12305L17.8204 3.66262ZM14.3968 6.86646C13.8089 7.45091 13.7769 8.41951 14.4186 9.01989L15.785 7.55945C15.8856 7.6536 15.9466 7.7918 15.9466 7.9372C15.9466 8.08097 15.8878 8.20436 15.8068 8.28485L14.3968 6.86646ZM14.4186 9.01989C15.0212 9.58371 15.9401 9.55599 16.5258 9.04016L15.2041 7.53918C15.3501 7.41062 15.5963 7.38289 15.785 7.55945L14.4186 9.01989ZM16.5482 9.01989L20.3251 5.48611L18.9586 4.02568L15.1817 7.55945L16.5482 9.01989ZM20.3469 5.46509C20.9348 4.88064 20.9667 3.91204 20.3251 3.31166L18.9586 4.7721C18.858 4.67794 18.7971 4.53975 18.7971 4.39435C18.7971 4.25058 18.8559 4.12719 18.9368 4.0467L20.3469 5.46509ZM16.6928 -0.444092C16.0162 -1.03987 14.9501 -1.07748 14.246 -0.418695L15.6124 1.04174C15.5671 1.08414 15.5145 1.09819 15.4773 1.09814C15.4424 1.0981 15.4043 1.0862 15.371 1.05689L16.6928 -0.444092ZM16.6988 -0.438769L16.6928 -0.444092L15.371 1.05689L15.3771 1.06222L16.6988 -0.438769ZM20.4989 3.12837L16.7224 -0.417311L15.3535 1.04076L19.13 4.58644L20.4989 3.12837ZM20.497 3.12653C20.4969 3.12652 20.497 3.12653 20.4969 3.12652C20.4969 3.12652 20.497 3.12653 20.4969 3.12652C20.4969 3.12652 20.4969 3.12652 20.4969 3.12652C20.4969 3.12652 20.4969 3.12652 20.4969 3.12652C20.4969 3.12652 20.4969 3.12652 20.4969 3.12652C20.4969 3.12652 20.4969 3.12652 20.4969 3.12652V3.12652C20.4969 3.12652 20.4969 3.12652 20.4969 3.12652C20.4969 3.12652 20.4969 3.12652 20.4969 3.12652C19.0836 3.17488 19.1319 4.58827 19.1319 4.58827C19.1319 4.58827 19.1319 4.58827 19.1319 4.58827C19.1319 4.58827 19.1319 4.58827 19.1319 4.58827C19.1319 4.58827 19.1319 4.58827 19.1319 4.58827C19.1319 4.58827 19.1319 4.58827 19.1319 4.58827C19.1319 4.58827 19.1319 4.58827 19.1319 4.58827C19.1319 4.58828 19.1319 4.58827 19.1319 4.58827L19.1319 4.58827C19.1319 4.58827 19.1319 4.58827 19.1319 4.58828C19.1319 4.58828 19.1319 4.58827 19.1319 4.58828C19.1319 4.58828 19.1319 4.58828 19.1319 4.58828C19.1319 4.58828 19.1319 4.58828 19.1319 4.58828C19.1319 4.58828 19.1319 4.58828 19.1319 4.58828C19.1319 4.58829 19.1319 4.58827 19.1319 4.58828C19.1319 4.58829 19.1319 4.58828 19.1319 4.58829C19.1319 4.58829 19.1319 4.58829 19.1319 4.58829C19.1319 4.58829 19.1319 4.58829 19.1319 4.58829C19.132 4.58832 19.1319 4.58825 19.1319 4.58829C19.1319 4.58829 19.1319 4.58829 19.1319 4.58829C19.1319 4.58829 19.1319 4.58829 19.1319 4.58829C19.1319 4.58829 19.1319 4.58829 19.1319 4.58829C19.1319 4.58829 19.1319 4.58829 19.1319 4.58829C19.1319 4.58829 19.1319 4.58829 19.1319 4.58829C19.1319 4.58829 19.0836 3.1749 20.497 3.12654C20.497 3.12653 20.497 3.12654 20.497 3.12653V3.12653V3.12653C20.497 3.12653 20.497 3.12653 20.497 3.12653C20.497 3.12653 20.497 3.12653 20.497 3.12653C20.497 3.12653 20.497 3.12654 20.497 3.12653C20.497 3.12653 20.497 3.12654 20.497 3.12653C20.497 3.12653 20.497 3.12653 20.497 3.12653C20.4969 3.12651 20.497 3.12655 20.497 3.12653C20.4969 3.12651 20.497 3.12655 20.497 3.12653L19.1319 4.58828C19.1319 4.58828 19.1319 4.58828 19.1319 4.58828C19.1319 4.58828 19.1319 4.58828 19.1319 4.58828C19.1319 4.58828 19.1319 4.58828 19.1319 4.58828C19.1319 4.58828 19.1319 4.58828 19.1319 4.58828C19.1319 4.58828 19.1319 4.58828 19.1319 4.58828C19.1319 4.58828 19.1319 4.58828 19.1319 4.58828C19.1319 4.58828 19.1319 4.58828 19.1319 4.58828C19.132 4.5883 19.1319 4.58827 19.1319 4.58829C19.1319 4.58829 19.1319 4.58829 19.1319 4.58829C19.1319 4.58829 19.1319 4.58829 19.1319 4.58829C20.5453 4.53992 20.497 3.12653 20.497 3.12653C20.497 3.12653 20.497 3.12653 20.497 3.12653C20.497 3.12653 20.497 3.12653 20.497 3.12653C20.497 3.12653 20.497 3.12653 20.497 3.12653C20.497 3.12653 20.497 3.12654 20.497 3.12653C20.497 3.12653 20.497 3.12653 20.497 3.12653C20.497 3.12653 20.497 3.12653 20.497 3.12653C20.4968 3.12638 20.4971 3.12669 20.497 3.12653L20.497 3.12653C20.497 3.12653 20.497 3.12653 20.497 3.12653C20.497 3.12653 20.497 3.12654 20.497 3.12653C20.497 3.12653 20.497 3.12653 20.497 3.12653C20.497 3.12653 20.497 3.12653 20.497 3.12653C20.497 3.12653 20.497 3.12653 20.497 3.12653C20.4969 3.12652 20.497 3.12653 20.497 3.12652C20.4969 3.12652 20.497 3.12653 20.497 3.12652C20.497 3.12652 20.497 3.12652 20.497 3.12652C20.497 3.12652 20.497 3.12652 20.4969 3.12652C20.4969 3.12652 20.4969 3.12652 20.4969 3.12652C20.4969 3.12651 20.497 3.12654 20.4969 3.12652C20.4969 3.12651 20.497 3.12652 20.4969 3.12652C20.4969 3.12652 20.4969 3.12652 20.4969 3.12652C20.4969 3.12652 20.4969 3.12652 20.4969 3.12652C20.4969 3.12652 20.4969 3.12652 20.4969 3.12652C20.4969 3.12652 20.4969 3.12652 20.4969 3.12652C20.4969 3.12652 20.4969 3.12652 20.4969 3.12652C20.4969 3.12652 20.4969 3.12652 20.4969 3.12652C20.4969 3.12652 20.4969 3.12652 20.4969 3.12652C20.4969 3.12652 20.5453 4.5399 19.1319 4.58827C19.1319 4.58827 19.1319 4.58827 19.1319 4.58827C19.1319 4.58827 19.1319 4.58827 19.1319 4.58827C19.1319 4.58827 19.1319 4.58827 19.1319 4.58827C19.1319 4.58827 19.1319 4.58827 19.1319 4.58827C19.1319 4.58827 19.1319 4.58827 19.1319 4.58827C19.1319 4.58828 19.1319 4.58827 19.1319 4.58828C19.132 4.58831 19.1319 4.58825 19.1319 4.58828L20.497 3.12653ZM20.525 5.64425C21.2069 4.96629 21.2512 3.83244 20.4978 3.1273L19.1311 4.58751C19.0821 4.54168 19.0495 4.46856 19.0496 4.39276C19.0498 4.32068 19.0789 4.26172 19.1149 4.22586L20.525 5.64425ZM20.5195 5.64963L20.525 5.64424L19.1149 4.22588L19.1095 4.23127L20.5195 5.64963ZM14.246 9.20436C14.9499 9.86301 16.0161 9.82576 16.6929 9.22985L15.3711 7.72886C15.4044 7.69949 15.4426 7.68761 15.4775 7.68757C15.5146 7.68753 15.5671 7.70155 15.6124 7.74393L14.246 9.20436ZM14.2187 6.6873C13.5368 7.36516 13.4922 8.49909 14.246 9.20436L15.6124 7.74393C15.6614 7.78976 15.6941 7.86295 15.694 7.93885C15.6938 8.01099 15.6647 8.06991 15.6287 8.10569L14.2187 6.6873ZM14.2241 6.68191L14.2187 6.68731L15.6287 8.10567L15.6341 8.10028L14.2241 6.68191ZM17.4506 3.6626L14.2459 6.66086L15.6123 8.12133L18.817 5.12307L17.4506 3.6626ZM14.246 2.12471L17.4506 5.12305L18.817 3.66262L15.6124 0.664269L14.246 2.12471ZM14.246 -0.418695C13.5099 0.269966 13.5099 1.43605 14.246 2.12471L15.6124 0.664269C15.7211 0.765993 15.7211 0.940018 15.6124 1.04174L14.246 -0.418695ZM15.9576 1.41069C15.6745 1.67554 15.2848 1.64969 15.0424 1.44066L16.3484 -0.0740225C15.8511 -0.502781 15.0868 -0.513452 14.5912 -0.0497467L15.9576 1.41069ZM15.9576 0.295321C16.2797 0.596719 16.2797 1.10929 15.9576 1.41069L14.5912 -0.0497467C14.0686 0.439241 14.0686 1.26677 14.5912 1.75576L15.9576 0.295321ZM15.9576 7.37498C16.1015 7.50963 16.1967 7.70695 16.1992 7.92753C16.2016 8.15205 16.1082 8.33902 15.9897 8.4592L14.5655 7.05509C14.0747 7.55293 14.0712 8.34891 14.5912 8.83542L15.9576 7.37498ZM15.0421 7.34525C15.2845 7.13597 15.6745 7.11005 15.9576 7.37498L14.5912 8.83542C15.087 9.29928 15.8517 9.28847 16.349 8.8592L15.0421 7.34525ZM18.7828 3.84418L15.0123 7.37201L16.3787 8.83244L20.1493 5.30462L18.7828 3.84418ZM18.786 4.95657C18.6421 4.82192 18.5469 4.6246 18.5445 4.40402C18.542 4.1795 18.6354 3.99254 18.7539 3.87235L20.1782 5.27645C20.669 4.77861 20.6724 3.98263 20.1525 3.49613L18.786 4.95657ZM16.7152 9.20959L20.4977 5.67069L19.1313 4.21022L15.3488 7.74912L16.7152 9.20959ZM19.5566 3.66262L15.9576 0.295321L14.5912 1.75576L18.1902 5.12305L19.5566 3.66262ZM15.9608 8.48736L19.5566 5.12305L18.1902 3.66262L14.5944 7.02692L15.9608 8.48736ZM15.0109 1.41237L18.7848 4.9554L20.1537 3.4973L16.3798 -0.0457316L15.0109 1.41237ZM17.9781 2.38232L12.9256 2.38232V4.38232L17.9781 4.38232V2.38232ZM12.9256 6.40335L17.9781 6.40335V4.40335L12.9256 4.40335L12.9256 6.40335ZM10.915 4.39283C10.915 5.50321 11.8152 6.40335 12.9256 6.40335V4.40335C12.9235 4.40335 12.9226 4.40316 12.9224 4.40312C12.9221 4.40307 12.922 4.40302 12.9218 4.40293C12.9212 4.40271 12.9198 4.40195 12.9181 4.40027C12.9164 4.39859 12.9157 4.39715 12.9155 4.39662C12.9154 4.39642 12.9153 4.39626 12.9153 4.39601C12.9152 4.39582 12.915 4.39487 12.915 4.39283H10.915ZM12.9256 2.38232C11.8152 2.38232 10.915 3.28246 10.915 4.39283H12.915C12.915 4.39079 12.9152 4.38984 12.9153 4.38966C12.9153 4.38941 12.9154 4.38925 12.9155 4.38905C12.9157 4.38851 12.9164 4.38708 12.9181 4.3854C12.9198 4.38372 12.9212 4.38296 12.9218 4.38273C12.922 4.38265 12.9221 4.3826 12.9224 4.38255C12.9226 4.38251 12.9235 4.38232 12.9256 4.38232V2.38232ZM19.9886 4.39283C19.9886 3.28246 19.0885 2.38232 17.9781 2.38232V4.38232C17.9802 4.38232 17.9811 4.38251 17.9813 4.38255C17.9816 4.3826 17.9817 4.38265 17.9819 4.38273C17.9825 4.38296 17.9839 4.38372 17.9856 4.3854C17.9872 4.38708 17.988 4.38851 17.9882 4.38905C17.9883 4.38925 17.9884 4.38941 17.9884 4.38966C17.9885 4.38984 17.9886 4.39079 17.9886 4.39283H19.9886ZM17.9886 4.39283C17.9886 4.39487 17.9885 4.39582 17.9884 4.39601C17.9884 4.39626 17.9883 4.39642 17.9882 4.39662C17.988 4.39715 17.9872 4.39859 17.9856 4.40027C17.9839 4.40195 17.9825 4.40271 17.9819 4.40293C17.9817 4.40302 17.9816 4.40307 17.9813 4.40312C17.9811 4.40316 17.9802 4.40335 17.9781 4.40335V6.40335C19.0885 6.40335 19.9886 5.50321 19.9886 4.39283H17.9886Z" fill="#293142" mask="url(#path-1-inside-1)"/>
<path d="M8.88363 5.40335C9.44172 5.40335 9.89415 4.95093 9.89415 4.39284C9.89415 3.83475 9.44172 3.38232 8.88363 3.38232L4.84157 3.38232C4.28348 3.38232 3.83105 3.83475 3.83105 4.39284C3.83105 4.95093 4.28348 5.40335 4.84157 5.40335H8.88363Z" fill="#A1B1CA"/>
<path d="M5.85209 4.39284C5.85209 3.83475 5.39966 3.38232 4.84157 3.38232C4.28348 3.38232 3.83105 3.83475 3.83105 4.39284L3.83105 8.4349C3.83105 8.99299 4.28348 9.44542 4.84157 9.44542C5.39966 9.44542 5.85209 8.99299 5.85209 8.4349L5.85209 4.39284Z" fill="#A1B1CA"/>
<mask id="path-4-inside-2" fill="white">
<path fill-rule="evenodd" clip-rule="evenodd" d="M5.44501 19.1931L8.99089 15.4162C9.18452 15.1963 9.18452 14.86 8.99089 14.6531C8.79726 14.4461 8.4705 14.4461 8.27687 14.6531L5.09405 18.0549L1.91123 14.6531C1.7055 14.4461 1.39084 14.4461 1.19721 14.6531C1.00358 14.86 1.00358 15.1963 1.19721 15.4162L4.73099 19.1931C4.93672 19.4001 5.25138 19.4001 5.44501 19.1931Z"/>
<path fill-rule="evenodd" clip-rule="evenodd" d="M9.17536 14.4805C9.46251 14.7874 9.45551 15.2708 9.18048 15.5832L9.17516 15.5892L5.62948 19.3657C5.33309 19.6824 4.85321 19.6744 4.55183 19.3712L4.54643 19.3658L1.00753 15.5832C0.732503 15.2709 0.725586 14.7874 1.01274 14.4805C1.30913 14.1637 1.78898 14.1718 2.09039 14.475L2.09579 14.4804L5.09405 17.6851L8.0924 14.4805C8.38587 14.1668 8.88189 14.1668 9.17536 14.4805ZM8.80356 15.2466C8.91343 15.1192 8.90584 14.9319 8.80641 14.8257C8.71262 14.7254 8.55514 14.7254 8.46135 14.8257L5.09405 18.4246L1.72974 14.8289C1.61991 14.7206 1.47192 14.7292 1.38169 14.8257C1.28222 14.932 1.27467 15.1194 1.38466 15.2468L4.91248 19.0173C5.02231 19.1256 5.1703 19.117 5.26053 19.0205L8.80356 15.2466Z"/>
<path d="M4.08354 17.5294C4.08354 18.0875 4.53596 18.5399 5.09405 18.5399C5.65214 18.5399 6.10457 18.0875 6.10457 17.5294V12.4768C6.10457 11.9187 5.65214 11.4663 5.09405 11.4663C4.53596 11.4663 4.08354 11.9187 4.08354 12.4768L4.08354 17.5294Z"/>
</mask>
<path fill-rule="evenodd" clip-rule="evenodd" d="M5.44501 19.1931L8.99089 15.4162C9.18452 15.1963 9.18452 14.86 8.99089 14.6531C8.79726 14.4461 8.4705 14.4461 8.27687 14.6531L5.09405 18.0549L1.91123 14.6531C1.7055 14.4461 1.39084 14.4461 1.19721 14.6531C1.00358 14.86 1.00358 15.1963 1.19721 15.4162L4.73099 19.1931C4.93672 19.4001 5.25138 19.4001 5.44501 19.1931Z" fill="#293142"/>
<path fill-rule="evenodd" clip-rule="evenodd" d="M9.17536 14.4805C9.46251 14.7874 9.45551 15.2708 9.18048 15.5832L9.17516 15.5892L5.62948 19.3657C5.33309 19.6824 4.85321 19.6744 4.55183 19.3712L4.54643 19.3658L1.00753 15.5832C0.732503 15.2709 0.725586 14.7874 1.01274 14.4805C1.30913 14.1637 1.78898 14.1718 2.09039 14.475L2.09579 14.4804L5.09405 17.6851L8.0924 14.4805C8.38587 14.1668 8.88189 14.1668 9.17536 14.4805ZM8.80356 15.2466C8.91343 15.1192 8.90584 14.9319 8.80641 14.8257C8.71262 14.7254 8.55514 14.7254 8.46135 14.8257L5.09405 18.4246L1.72974 14.8289C1.61991 14.7206 1.47192 14.7292 1.38169 14.8257C1.28222 14.932 1.27467 15.1194 1.38466 15.2468L4.91248 19.0173C5.02231 19.1256 5.1703 19.117 5.26053 19.0205L8.80356 15.2466Z" fill="#293142"/>
<path d="M4.08354 17.5294C4.08354 18.0875 4.53596 18.5399 5.09405 18.5399C5.65214 18.5399 6.10457 18.0875 6.10457 17.5294V12.4768C6.10457 11.9187 5.65214 11.4663 5.09405 11.4663C4.53596 11.4663 4.08354 11.9187 4.08354 12.4768L4.08354 17.5294Z" fill="#293142"/>
<path d="M5.44501 19.1931L4.71595 18.5087L4.71479 18.5099L5.44501 19.1931ZM8.99089 15.4162L9.71994 16.1007L9.73085 16.089L9.74138 16.0771L8.99089 15.4162ZM8.27687 14.6531L9.00709 15.3363L8.27687 14.6531ZM5.09405 18.0549L4.36383 18.7381L5.09405 19.5185L5.82427 18.7381L5.09405 18.0549ZM1.91123 14.6531L2.64145 13.9699L2.6311 13.9588L2.62042 13.9481L1.91123 14.6531ZM1.19721 15.4162L0.44672 16.0771L0.456688 16.0884L0.466994 16.0994L1.19721 15.4162ZM4.73099 19.1931L4.00077 19.8763L4.01112 19.8874L4.0218 19.8981L4.73099 19.1931ZM9.18048 15.5832L8.42999 14.9223L8.42996 14.9223L9.18048 15.5832ZM9.17536 14.4805L8.44514 15.1637L9.17536 14.4805ZM9.17516 15.5892L9.9042 16.2737L9.91513 16.262L9.92568 16.2501L9.17516 15.5892ZM5.62948 19.3657L4.90045 18.6812L4.89938 18.6824L5.62948 19.3657ZM4.55183 19.3712L5.26102 18.6662L5.26101 18.6662L4.55183 19.3712ZM4.54643 19.3658L3.8162 20.049L3.82656 20.0601L3.83725 20.0708L4.54643 19.3658ZM1.00753 15.5832L0.257038 16.2441L0.266999 16.2554L0.277296 16.2664L1.00753 15.5832ZM1.01274 14.4805L1.74296 15.1637L1.74296 15.1637L1.01274 14.4805ZM2.09039 14.475L1.3812 15.18L1.38121 15.18L2.09039 14.475ZM2.09579 14.4804L2.82603 13.7972L2.81566 13.7861L2.80497 13.7754L2.09579 14.4804ZM5.09405 17.6851L4.36381 18.3683L5.09403 19.1488L5.82427 18.3683L5.09405 17.6851ZM8.0924 14.4805L8.82262 15.1637L8.0924 14.4805ZM8.80641 14.8257L9.53663 14.1425V14.1425L8.80641 14.8257ZM8.80356 15.2466L9.53262 15.9311L9.54709 15.9157L9.56091 15.8997L8.80356 15.2466ZM8.46135 14.8257L7.73113 14.1425L8.46135 14.8257ZM5.09405 18.4246L4.36383 19.1078L5.09405 19.8883L5.82427 19.1078L5.09405 18.4246ZM1.72974 14.8289L2.45996 14.1456L2.44617 14.1309L2.4318 14.1167L1.72974 14.8289ZM1.38169 14.8257L2.11191 15.5089L2.11191 15.5089L1.38169 14.8257ZM1.38466 15.2468L0.627687 15.9002L0.640766 15.9154L0.654441 15.93L1.38466 15.2468ZM4.91248 19.0173L4.18226 19.7005L4.19606 19.7153L4.21043 19.7295L4.91248 19.0173ZM5.26053 19.0205L4.53148 18.3361L4.53031 18.3373L5.26053 19.0205ZM4.08354 12.4768L5.08354 12.4768V12.4768L4.08354 12.4768ZM6.10457 12.4768L5.10457 12.4768V12.4768H6.10457ZM6.10457 17.5294H7.10457H6.10457ZM4.08354 17.5294H3.08354H4.08354ZM6.17406 19.8776L9.71994 16.1007L8.26184 14.7318L4.71596 18.5087L6.17406 19.8776ZM9.74138 16.0771C10.2572 15.4913 10.2849 14.5725 9.72111 13.9699L8.26067 15.3363C8.08411 15.1476 8.11183 14.9013 8.24039 14.7553L9.74138 16.0771ZM9.72111 13.9699C9.13228 13.3405 8.13548 13.3405 7.54665 13.9699L9.00709 15.3363C8.80553 15.5517 8.46223 15.5517 8.26067 15.3363L9.72111 13.9699ZM7.54665 13.9699L4.36383 17.3717L5.82427 18.7381L9.00709 15.3363L7.54665 13.9699ZM5.82427 17.3717L2.64145 13.9699L1.18101 15.3363L4.36383 18.7381L5.82427 17.3717ZM2.62042 13.9481C2.03597 13.3601 1.06738 13.3282 0.466994 13.9699L1.92743 15.3363C1.83328 15.4369 1.69508 15.4979 1.54968 15.4979C1.40592 15.4979 1.28252 15.439 1.20204 15.3581L2.62042 13.9481ZM0.466994 13.9699C-0.0968297 14.5725 -0.0691038 15.4913 0.44672 16.0771L1.94771 14.7553C2.07627 14.9013 2.10399 15.1476 1.92743 15.3363L0.466994 13.9699ZM0.466994 16.0994L4.00077 19.8763L5.46121 18.5099L1.92743 14.733L0.466994 16.0994ZM4.0218 19.8981C4.60625 20.486 5.57484 20.518 6.17523 19.8763L4.71479 18.5099C4.80894 18.4093 4.94714 18.3483 5.09254 18.3483C5.2363 18.3483 5.3597 18.4071 5.44018 18.4881L4.0218 19.8981ZM9.93098 16.244C10.5268 15.5675 10.5644 14.5014 9.90558 13.7973L8.44514 15.1637C8.40274 15.1184 8.3887 15.0658 8.38874 15.0286C8.38878 14.9937 8.40069 14.9556 8.42999 14.9223L9.93098 16.244ZM9.92568 16.2501L9.93101 16.244L8.42996 14.9223L8.42464 14.9284L9.92568 16.2501ZM6.35852 20.0502L9.9042 16.2737L8.44613 14.9047L4.90045 18.6812L6.35852 20.0502ZM3.84263 20.0762C4.52059 20.7582 5.65445 20.8024 6.35958 20.049L4.89938 18.6824C4.94521 18.6334 5.01832 18.6008 5.09413 18.6009C5.1662 18.601 5.22516 18.6301 5.26102 18.6662L3.84263 20.0762ZM3.83725 20.0708L3.84265 20.0762L5.26101 18.6662L5.25561 18.6608L3.83725 20.0708ZM0.282521 13.7973C-0.376128 14.5012 -0.338879 15.5674 0.257038 16.2441L1.75802 14.9224C1.78739 14.9557 1.79928 14.9938 1.79932 15.0288C1.79936 15.0659 1.78533 15.1184 1.74296 15.1637L0.282521 13.7973ZM2.79959 13.7699C2.12173 13.0881 0.98779 13.0435 0.28252 13.7973L1.74296 15.1637C1.69712 15.2127 1.62394 15.2453 1.54803 15.2452C1.47589 15.2451 1.41698 15.216 1.3812 15.18L2.79959 13.7699ZM2.80497 13.7754L2.79957 13.7699L1.38121 15.18L1.38661 15.1854L2.80497 13.7754ZM5.82429 17.0019L2.82603 13.7972L1.36555 15.1636L4.36381 18.3683L5.82429 17.0019ZM7.36218 13.7973L4.36383 17.0019L5.82427 18.3683L8.82262 15.1637L7.36218 13.7973ZM9.90558 13.7973C9.21692 13.0612 8.05084 13.0612 7.36218 13.7973L8.82262 15.1637C8.72089 15.2724 8.54687 15.2724 8.44514 15.1637L9.90558 13.7973ZM8.07619 15.5089C7.81135 15.2258 7.83719 14.8361 8.04622 14.5936L9.56091 15.8997C9.98967 15.4024 10.0003 14.6381 9.53663 14.1425L8.07619 15.5089ZM9.19156 15.5089C8.89017 15.831 8.37759 15.831 8.07619 15.5089L9.53663 14.1425C9.04764 13.6198 8.22011 13.6198 7.73113 14.1425L9.19156 15.5089ZM2.11191 15.5089C1.97726 15.6528 1.77993 15.748 1.55935 15.7504C1.33483 15.7529 1.14787 15.6595 1.02769 15.541L2.4318 14.1167C1.93396 13.6259 1.13797 13.6225 0.651468 14.1425L2.11191 15.5089ZM2.14163 14.5933C2.35091 14.8358 2.37683 15.2257 2.11191 15.5089L0.651469 14.1425C0.187609 14.6382 0.198418 15.403 0.627687 15.9002L2.14163 14.5933ZM5.6427 18.3341L2.11488 14.5636L0.654441 15.93L4.18226 19.7005L5.6427 18.3341ZM4.53031 18.3373C4.66496 18.1934 4.86228 18.0982 5.08286 18.0957C5.30738 18.0933 5.49435 18.1867 5.61453 18.3052L4.21043 19.7295C4.70828 20.2203 5.50425 20.2237 5.99075 19.7037L4.53031 18.3373ZM0.277296 16.2664L3.8162 20.049L5.27667 18.6826L1.73776 14.9L0.277296 16.2664ZM5.82427 19.1078L9.19156 15.5089L7.73113 14.1425L4.36383 17.7414L5.82427 19.1078ZM0.999524 15.5121L4.36383 19.1078L5.82427 17.7414L2.45996 14.1456L0.999524 15.5121ZM8.07451 14.5622L4.53148 18.3361L5.98959 19.705L9.53262 15.9311L8.07451 14.5622ZM7.10457 17.5294V12.4768H5.10457V17.5294H7.10457ZM3.08354 12.4768L3.08354 17.5294H5.08354L5.08354 12.4768L3.08354 12.4768ZM5.09405 10.4663C3.98367 10.4663 3.08354 11.3664 3.08354 12.4768L5.08354 12.4768C5.08354 12.4748 5.08373 12.4738 5.08376 12.4736C5.08382 12.4734 5.08387 12.4732 5.08395 12.473C5.08418 12.4725 5.08494 12.4711 5.08662 12.4694C5.08829 12.4677 5.08973 12.467 5.09026 12.4667C5.09047 12.4666 5.09063 12.4666 5.09087 12.4665C5.09106 12.4665 5.09201 12.4663 5.09405 12.4663V10.4663ZM7.10457 12.4768C7.10457 11.3664 6.20443 10.4663 5.09405 10.4663V12.4663C5.09609 12.4663 5.09704 12.4665 5.09723 12.4665C5.09748 12.4666 5.09763 12.4666 5.09784 12.4667C5.09837 12.467 5.09981 12.4677 5.10149 12.4694C5.10316 12.4711 5.10392 12.4725 5.10415 12.473C5.10424 12.4732 5.10429 12.4734 5.10434 12.4736C5.10438 12.4738 5.10457 12.4748 5.10457 12.4768L7.10457 12.4768ZM5.09405 19.5399C6.20443 19.5399 7.10457 18.6398 7.10457 17.5294H5.10457C5.10457 17.5314 5.10438 17.5324 5.10434 17.5326C5.10429 17.5328 5.10424 17.533 5.10415 17.5332C5.10392 17.5337 5.10316 17.5352 5.10149 17.5368C5.09981 17.5385 5.09837 17.5393 5.09784 17.5395C5.09763 17.5396 5.09748 17.5396 5.09723 17.5397C5.09704 17.5397 5.09609 17.5399 5.09405 17.5399V19.5399ZM5.09405 17.5399C5.09201 17.5399 5.09106 17.5397 5.09087 17.5397C5.09063 17.5396 5.09047 17.5396 5.09026 17.5395C5.08973 17.5393 5.08829 17.5385 5.08662 17.5368C5.08494 17.5352 5.08418 17.5337 5.08395 17.5332C5.08386 17.533 5.08381 17.5328 5.08376 17.5326C5.08373 17.5324 5.08354 17.5314 5.08354 17.5294H3.08354C3.08354 18.6398 3.98367 19.5399 5.09405 19.5399V17.5399Z" fill="#293142" mask="url(#path-4-inside-2)"/>
</svg>
