<svg width="26" height="14" viewBox="0 0 26 14" fill="none" xmlns="http://www.w3.org/2000/svg">
<rect width="2" height="14" rx="1" transform="matrix(-1 0 0 1 2.5 0)" fill="#A1B1CA"/>
<rect width="2" height="14" rx="1" transform="matrix(-1 0 0 1 25.5 0)" fill="#A1B1CA"/>
<path fill-rule="evenodd" clip-rule="evenodd" d="M21.308 6.56587L16.636 2.17964C16.364 1.94012 15.948 1.94012 15.692 2.17964C15.436 2.41916 15.436 2.82335 15.692 3.06287L19.9 7L15.692 10.9371C15.436 11.1916 15.436 11.5808 15.692 11.8204C15.948 12.0599 16.364 12.0599 16.636 11.8204L21.308 7.4491C21.564 7.19461 21.564 6.80539 21.308 6.56587Z" fill="#293142" stroke="#293142" stroke-width="0.5"/>
<path fill-rule="evenodd" clip-rule="evenodd" d="M4.692 6.56587L9.364 2.17964C9.636 1.94012 10.052 1.94012 10.308 2.17964C10.564 2.41916 10.564 2.82335 10.308 3.06287L6.1 7L10.308 10.9371C10.564 11.1916 10.564 11.5808 10.308 11.8204C10.052 12.0599 9.636 12.0599 9.364 11.8204L4.692 7.4491C4.436 7.19461 4.436 6.80539 4.692 6.56587Z" fill="#293142" stroke="#293142" stroke-width="0.5"/>
<rect x="6" y="6.5" width="14" height="1" fill="#293142" stroke="#293142"/>
</svg>
