<svg width="20" height="19" viewBox="0 0 20 19" fill="none" xmlns="http://www.w3.org/2000/svg">
<path fill-rule="evenodd" clip-rule="evenodd" d="M12.0704 4.3897L15.8473 0.843818C16.0672 0.650186 16.4035 0.650186 16.6104 0.843818C16.8174 1.03745 16.8174 1.3642 16.6104 1.55783L13.2086 4.74065L16.6104 7.92347C16.8174 8.12921 16.8174 8.44386 16.6104 8.63749C16.4035 8.83112 16.0672 8.83112 15.8473 8.63749L12.0704 5.10371C11.8634 4.89798 11.8634 4.58333 12.0704 4.3897Z" fill="#293142" stroke="#293142" stroke-width="0.5"/>
<path fill-rule="evenodd" clip-rule="evenodd" d="M4.49077 11.9693L0.944892 15.7462C0.75126 15.9661 0.75126 16.3024 0.944892 16.5093C1.13852 16.7163 1.46528 16.7163 1.65891 16.5093L4.84173 13.1075L8.02455 16.5093C8.23028 16.7163 8.54493 16.7163 8.73857 16.5093C8.9322 16.3024 8.9322 15.9661 8.73857 15.7462L5.20479 11.9693C4.99905 11.7623 4.6844 11.7623 4.49077 11.9693Z" fill="#293142" stroke="#293142" stroke-width="0.5"/>
<rect x="-0.5" y="-0.5" width="1.02103" height="6.07361" rx="0.510515" transform="matrix(4.37114e-08 -1 -1 -4.37114e-08 18.9995 4.75146)" fill="#293142" stroke="#293142"/>
<path d="M8.88363 5.7515C9.44172 5.7515 9.89415 5.29908 9.89415 4.74098C9.89415 4.18289 9.44172 3.73047 8.88363 3.73047L4.84157 3.73047C4.28348 3.73047 3.83105 4.18289 3.83105 4.74098C3.83105 5.29908 4.28348 5.7515 4.84157 5.7515H8.88363Z" fill="#A1B1CA"/>
<path d="M5.85209 4.74098C5.85209 4.18289 5.39966 3.73047 4.84157 3.73047C4.28348 3.73047 3.83105 4.18289 3.83105 4.74098L3.83105 8.78305C3.83105 9.34114 4.28348 9.79356 4.84157 9.79356C5.39966 9.79356 5.85209 9.34114 5.85209 8.78305L5.85209 4.74098Z" fill="#A1B1CA"/>
<rect x="-0.5" y="0.5" width="1.02103" height="6.07361" rx="0.510516" transform="matrix(-1 8.74228e-08 8.74228e-08 1 4.85254 11.8145)" fill="#293142" stroke="#293142"/>
</svg>
