<svg width="14" height="14" viewBox="0 0 14 14" fill="none" xmlns="http://www.w3.org/2000/svg">
<path d="M0 2C0 0.895431 0.895431 0 2 0H12C13.1046 0 14 0.895431 14 2V3H0V2Z" fill="#A1B1CA"/>
<path fill-rule="evenodd" clip-rule="evenodd" d="M0 3.5H14V12C14 13.1046 13.1046 14 12 14H2C0.89543 14 0 13.1046 0 12V3.5ZM2 5H3.75V6.75H2V5ZM7.75 5H6V6.75H7.75V5ZM10 5H11.75V6.75H10V5ZM3.75 8H2V9.75H3.75V8ZM6 8H7.75V9.75H6V8ZM11.75 8H10V9.75H11.75V8ZM2 11H3.75V12.75H2V11ZM7.75 11H6V12.75H7.75V11Z" fill="#A1B1CA"/>
</svg>
