<svg width="17" height="15" viewBox="0 0 17 15" fill="none" xmlns="http://www.w3.org/2000/svg">
<rect width="2" height="15" rx="1" transform="matrix(-1 0 0 1 2.5 0)" fill="#A1B1CA"/>
<path d="M16 8.00323C16 8.0026 16 8.00197 16 8.00133C16 8.00151 16 8.00169 16 8.00187C16 8.00232 16 8.00278 16 8.00323ZM14.0286 9.5H14.453L11.3015 12.4486C11.2127 12.5231 11.0909 12.5088 11.0336 12.4552C11.0077 12.431 11 12.4064 11 12.3844C11 12.3623 11.0081 12.3297 11.0408 12.2955L14.0286 9.5ZM7.5 7.5H13.6338L14.1682 8L13.6338 8.5H7.5C7.22386 8.5 7 8.27614 7 8C7 7.72386 7.22386 7.5 7.5 7.5ZM14.4422 6.5H14.0286L11.0336 3.69776C10.9888 3.65584 10.9888 3.58667 11.0336 3.54475C11.0908 3.4912 11.2125 3.47692 11.3012 3.55117L14.4422 6.5Z" fill="#293142" stroke="#293142"/>
<path fill-rule="evenodd" clip-rule="evenodd" d="M16.308 7.56587L11.636 3.17964C11.364 2.94012 10.948 2.94012 10.692 3.17964C10.436 3.41916 10.436 3.82335 10.692 4.06287L14.9 8L10.692 11.9371C10.436 12.1916 10.436 12.5808 10.692 12.8204C10.948 13.0599 11.364 13.0599 11.636 12.8204L16.308 8.4491C16.564 8.19461 16.564 7.80539 16.308 7.56587Z" fill="#293142" stroke="#293142" stroke-width="0.5"/>
</svg>
