<svg width="13" height="2" viewBox="0 0 13 2" fill="none" xmlns="http://www.w3.org/2000/svg">
<path d="M2.02827 1C2.02827 1.55228 1.57423 2 1.01414 2C0.454044 2 0 1.55228 0 1C0 0.447715 0.454044 0 1.01414 0C1.57423 0 2.02827 0.447715 2.02827 1Z" fill="#202020"/>
<path d="M7.09895 1C7.09895 1.55228 6.64491 2 6.08482 2C5.52473 2 5.07068 1.55228 5.07068 1C5.07068 0.447715 5.52473 0 6.08482 0C6.64491 0 7.09895 0.447715 7.09895 1Z" fill="#202020"/>
<path d="M12.0313 1C12.0313 1.55228 11.5773 2 11.0172 2C10.4571 2 10.0031 1.55228 10.0031 1C10.0031 0.447715 10.4571 0 11.0172 0C11.5773 0 12.0313 0.447715 12.0313 1Z" fill="#202020"/>
</svg>
