<svg width="12" height="12" viewBox="0 0 12 12" fill="none" xmlns="http://www.w3.org/2000/svg">
<path d="M8.55345 0.137292L11.863 3.44662C11.9765 3.5598 12.0236 3.72071 11.9887 3.8771C11.9549 4.03316 11.8449 4.15989 11.6946 4.21567C11.1864 4.40495 10.6166 4.45138 10.0726 4.34981L7.23421 7.57144C7.48284 8.27277 7.51057 9.01667 7.31258 9.73348C7.15295 10.312 6.90271 10.6828 6.85402 10.7511C6.77308 10.864 6.64861 10.9346 6.51123 10.9459C6.49833 10.9469 6.48511 10.9475 6.47221 10.9475C6.34903 10.9475 6.23036 10.8988 6.142 10.8105L3.87083 8.53944L0.495196 11.9149C0.438763 11.9716 0.364272 12 0.290104 12C0.215935 12 0.141767 11.9716 0.0850117 11.9149C-0.0284984 11.8014 -0.0281759 11.6176 0.0850117 11.5044L3.46033 8.12896L1.18916 5.85792C1.09145 5.76054 1.04211 5.62543 1.05372 5.48807C1.06468 5.35135 1.13563 5.22688 1.24752 5.14659C1.30718 5.10371 2.68188 4.14441 4.42806 4.76513L7.64988 1.9269C7.54862 1.38325 7.59474 0.813797 7.78371 0.305289C7.8395 0.155027 7.96655 0.0447477 8.12295 0.0108902C8.27902 -0.0232898 8.44026 0.0241108 8.55345 0.137292Z" fill="#FF508C"/>
</svg>
