<svg width="14" height="14" viewBox="0 0 14 14" fill="none" xmlns="http://www.w3.org/2000/svg">
<path fill-rule="evenodd" clip-rule="evenodd" d="M6.37754 1.34789C6.57346 0.717364 7.42654 0.717373 7.62246 1.3479L8.76663 5.03008H12.4693C13.1033 5.03008 13.3669 5.87845 12.854 6.26813L9.85847 8.54385L11.0026 12.226C11.1986 12.8566 10.5084 13.3809 9.99548 12.9912L7 10.7155L4.00452 12.9912C3.49158 13.3809 2.80143 12.8566 2.99736 12.226L4.14153 8.54385L1.14605 6.26813C0.633107 5.87844 0.89673 5.03008 1.53075 5.03008H5.23337L6.37754 1.34789ZM7 2.11305L5.97471 5.41266C5.88709 5.69464 5.63579 5.88555 5.35225 5.88555H2.03433L4.71858 7.92482C4.94797 8.09909 5.04396 8.408 4.95634 8.68998L3.93105 11.9896L6.6153 9.95032C6.84469 9.77604 7.15531 9.77604 7.3847 9.95032L10.069 11.9896L9.04366 8.68998C8.95604 8.408 9.05203 8.09909 9.28142 7.92482L11.9657 5.88555H8.64776C8.36421 5.88555 8.11291 5.69464 8.02529 5.41266L7 2.11305Z" fill="#A1B1CA"/>
</svg>
