<svg width="16" height="16" viewBox="0 0 16 16" fill="none" xmlns="http://www.w3.org/2000/svg">
    <path fill-rule="evenodd" clip-rule="evenodd"
        d="M7.28862 1.54045C7.51253 0.819845 8.48747 0.819855 8.71139 1.54045L10.019 5.74866H14.2506C14.9752 5.74866 15.2764 6.71823 14.6902 7.16358L11.2668 9.7644L12.5745 13.9726C12.7984 14.6932 12.0096 15.2924 11.4234 14.8471L8 12.2463L4.5766 14.8471C3.99038 15.2924 3.20164 14.6932 3.42555 13.9726L4.73317 9.7644L1.30977 7.16358C0.723551 6.71822 1.02483 5.74866 1.74943 5.74866H5.98099L7.28862 1.54045ZM8 2.41492L6.82824 6.1859C6.7281 6.50816 6.44091 6.72635 6.11685 6.72635H2.32495L5.39267 9.05694C5.65483 9.25611 5.76453 9.60914 5.66439 9.93141L4.49263 13.7024L7.56034 11.3718C7.8225 11.1726 8.1775 11.1726 8.43966 11.3718L11.5074 13.7024L10.3356 9.93141C10.2355 9.60914 10.3452 9.25611 10.6073 9.05694L13.675 6.72635H9.88315C9.5591 6.72635 9.2719 6.50816 9.17176 6.1859L8 2.41492Z"
        fill="currentColor" />
</svg>