<svg width="14" height="14" viewBox="0 0 14 14" fill="none" xmlns="http://www.w3.org/2000/svg">
<path d="M6.76659 1.48007C6.84006 1.24363 7.15997 1.24363 7.23344 1.48007L8.41435 5.28048C8.4472 5.38622 8.54144 5.45782 8.64777 5.45782H12.4693C12.707 5.45782 12.8059 5.77595 12.6135 5.92209L9.52187 8.27087C9.43585 8.33622 9.39986 8.45206 9.43271 8.5578L10.6136 12.3582C10.6871 12.5947 10.4283 12.7913 10.2359 12.6451L7.14428 10.2964C7.05826 10.231 6.94177 10.231 6.85575 10.2964L3.7641 12.6451C3.57174 12.7913 3.31294 12.5947 3.38641 12.3582L4.56732 8.5578C4.60017 8.45206 4.56418 8.33622 4.47816 8.27087L1.3865 5.92209C1.19415 5.77595 1.29301 5.45782 1.53077 5.45782H5.35226C5.45859 5.45782 5.55283 5.38622 5.58568 5.28048L6.76659 1.48007Z" fill="#FFCB11"/>
<path fill-rule="evenodd" clip-rule="evenodd" d="M6.37754 1.34789C6.57346 0.717364 7.42654 0.717373 7.62246 1.3479L8.76663 5.03008H12.4693C13.1033 5.03008 13.3669 5.87845 12.854 6.26813L9.85847 8.54385L11.0026 12.226C11.1986 12.8566 10.5084 13.3809 9.99548 12.9912L7 10.7155L4.00452 12.9912C3.49158 13.3809 2.80143 12.8566 2.99736 12.226L4.14153 8.54385L1.14605 6.26813C0.633107 5.87844 0.89673 5.03008 1.53075 5.03008H5.23337L6.37754 1.34789ZM7 2.11305L5.97471 5.41266C5.88709 5.69464 5.63579 5.88555 5.35225 5.88555H2.03433L4.71858 7.92482C4.94797 8.09909 5.04396 8.408 4.95634 8.68998L3.93105 11.9896L6.6153 9.95032C6.84469 9.77604 7.15531 9.77604 7.3847 9.95032L10.069 11.9896L9.04366 8.68998C8.95604 8.408 9.05203 8.09909 9.28142 7.92482L11.9657 5.88555H8.64776C8.36421 5.88555 8.11291 5.69464 8.02529 5.41266L7 2.11305Z" fill="#FFCB11"/>
</svg>
