<svg width="16" height="16" viewBox="0 0 16 16" fill="none" xmlns="http://www.w3.org/2000/svg">
    <path
        d="M7.73325 1.69151C7.81722 1.42129 8.18282 1.42129 8.26679 1.69151L9.61639 6.03484C9.65395 6.15568 9.76165 6.2375 9.88316 6.2375H14.2506C14.5223 6.2375 14.6353 6.60109 14.4155 6.7681L10.8821 9.45242C10.7838 9.52711 10.7427 9.6595 10.7802 9.78035L12.1299 14.1237C12.2138 14.3939 11.918 14.6186 11.6982 14.4516L8.16489 11.7673C8.06658 11.6926 7.93346 11.6926 7.83514 11.7673L4.30182 14.4516C4.08199 14.6186 3.78621 14.3939 3.87018 14.1237L5.21979 9.78035C5.25734 9.6595 5.2162 9.52711 5.11789 9.45242L1.58457 6.7681C1.36474 6.60109 1.47772 6.2375 1.74945 6.2375H6.11687C6.23839 6.2375 6.34609 6.15568 6.38364 6.03484L7.73325 1.69151Z"
        fill="currentColor" />
    <path fill-rule="evenodd" clip-rule="evenodd"
        d="M7.28862 1.54045C7.51253 0.819845 8.48747 0.819855 8.71139 1.54045L10.019 5.74866H14.2506C14.9752 5.74866 15.2764 6.71823 14.6902 7.16358L11.2668 9.7644L12.5745 13.9726C12.7984 14.6932 12.0096 15.2924 11.4234 14.8471L8 12.2463L4.5766 14.8471C3.99038 15.2924 3.20164 14.6932 3.42555 13.9726L4.73317 9.7644L1.30977 7.16358C0.723551 6.71822 1.02483 5.74866 1.74943 5.74866H5.98099L7.28862 1.54045ZM8 2.41492L6.82824 6.1859C6.7281 6.50816 6.44091 6.72635 6.11685 6.72635H2.32495L5.39267 9.05694C5.65483 9.25611 5.76453 9.60914 5.66439 9.93141L4.49263 13.7024L7.56034 11.3718C7.8225 11.1726 8.1775 11.1726 8.43966 11.3718L11.5074 13.7024L10.3356 9.93141C10.2355 9.60914 10.3452 9.25611 10.6073 9.05694L13.675 6.72635H9.88315C9.5591 6.72635 9.2719 6.50816 9.17176 6.1859L8 2.41492Z"
        fill="currentColor" />
</svg>