<svg width="10" height="41" viewBox="0 0 10 41" fill="none" xmlns="http://www.w3.org/2000/svg">
<path d="M4.09814 16C3.54586 16 3.09814 15.5523 3.09814 15C3.09814 14.4477 3.54586 14 4.09814 14C4.65043 14 5.09814 14.4477 5.09814 15C5.09814 15.5523 4.65043 16 4.09814 16Z" fill="white"/>
<path d="M4.09814 21C3.54586 21 3.09814 20.5523 3.09814 20C3.09814 19.4477 3.54586 19 4.09814 19C4.65043 19 5.09814 19.4477 5.09814 20C5.09814 20.5523 4.65043 21 4.09814 21Z" fill="white"/>
<path d="M4.09814 26C3.54586 26 3.09814 25.5523 3.09814 25C3.09814 24.4477 3.54586 24 4.09814 24C4.65043 24 5.09814 24.4477 5.09814 25C5.09814 25.5523 4.65043 26 4.09814 26Z" fill="white"/>
</svg>
